<?xml version="1.0" encoding="iso-8859-1"?>
<!-- Generator: Adobe Illustrator 19.0.0, SVG Export Plug-In . SVG Version: 6.00 Build 0)  -->
<svg version="1.1" id="Layer_1" xmlns="http://www.w3.org/2000/svg" xmlns:xlink="http://www.w3.org/1999/xlink" x="0px" y="0px"
	 viewBox="0 0 511.999 511.999" style="enable-background:new 0 0 511.999 511.999;" xml:space="preserve">
<circle style="fill:#ECF0F1;" cx="256" cy="256" r="256"/>
<circle style="fill:#0F7986;" cx="256" cy="256" r="256"/>
<ellipse style="fill:#076673;" cx="256" cy="421.646" rx="182.284" ry="14.37"/>
<path style="fill:#666666;" d="M65.981,67.223h380.037c12.486,0,22.701,10.216,22.701,22.702v234.106H43.281V89.924
	C43.281,77.439,53.496,67.223,65.981,67.223L65.981,67.223z"/>
<path style="fill:#DCE3DB;" d="M58.695,308.616h394.609V89.924c0-3.978-3.309-7.287-7.286-7.287H65.981
	c-3.977,0-7.286,3.309-7.286,7.287V308.616L58.695,308.616z"/>
<g>
	<path style="fill:#FFFFFF;" d="M468.718,324.031v24.827c0,12.488-11.26,22.702-25.025,22.702H68.305
		c-13.764,0-25.025-10.214-25.025-22.702v-24.827H468.718L468.718,324.031z"/>
	<path style="fill:#FFFFFF;" d="M141.239,115.528h229.523h34.166c4.141,0,7.527,3.389,7.527,7.527v44.795v140.766H99.545
		l-0.001-140.766v-44.795c0-4.141,3.386-7.527,7.527-7.527L141.239,115.528L141.239,115.528z"/>
</g>
<path style="fill:#828282;" d="M107.072,115.528h297.857c4.141,0,7.527,3.386,7.527,7.527v15.053H99.543v-15.053
	C99.543,118.915,102.931,115.528,107.072,115.528L107.072,115.528z"/>
<path style="fill:#FFFFFF;" d="M226.383,123.325h163.62c1.114,0,2.022,0.912,2.022,2.022v3.752c0,1.111-0.911,2.022-2.022,2.022
	h-163.62c-1.108,0-2.02-0.909-2.02-2.022v-3.752C224.363,124.234,225.273,123.325,226.383,123.325z"/>
<path style="fill:#21D0C3;" d="M117.334,121.983c2.391,0,4.334,1.938,4.334,4.335c0,2.394-1.941,4.334-4.334,4.334
	c-2.396,0-4.338-1.939-4.338-4.334C112.996,123.921,114.937,121.983,117.334,121.983z"/>
<path style="fill:#FAD24D;" d="M134.441,121.983c2.396,0,4.335,1.938,4.335,4.335c0,2.394-1.938,4.334-4.335,4.334
	c-2.393,0-4.334-1.939-4.334-4.334C130.108,123.921,132.048,121.983,134.441,121.983z"/>
<path style="fill:#FF5B62;" d="M151.553,121.983c2.391,0,4.334,1.938,4.334,4.335c0,2.394-1.941,4.334-4.334,4.334
	c-2.396,0-4.338-1.939-4.338-4.334C147.215,123.921,149.156,121.983,151.553,121.983z"/>
<g>
	<rect x="268.755" y="161.943" style="fill:#ECF0F1;" width="124.586" height="14.321"/>
	<rect x="268.755" y="222.625" style="fill:#ECF0F1;" width="124.586" height="41.07"/>
</g>
<rect x="268.755" y="152.632" style="fill:#21D0C3;" width="39.203" height="3.938"/>
<rect x="268.755" y="190.897" style="fill:#ECF0F1;" width="124.586" height="14.321"/>
<g>
	<rect x="268.755" y="181.585" style="fill:#21D0C3;" width="39.203" height="3.938"/>
	<rect x="268.755" y="212.964" style="fill:#21D0C3;" width="39.203" height="3.938"/>
</g>
<rect x="126.922" y="161.943" style="fill:#ECF0F1;" width="124.586" height="14.321"/>
<rect x="126.922" y="152.632" style="fill:#21D0C3;" width="39.203" height="3.938"/>
<rect x="126.922" y="190.897" style="fill:#ECF0F1;" width="124.586" height="14.321"/>
<rect x="126.922" y="181.585" style="fill:#21D0C3;" width="39.203" height="3.938"/>
<rect x="126.922" y="220.419" style="fill:#ECF0F1;" width="124.586" height="14.321"/>
<rect x="126.922" y="211.117" style="fill:#21D0C3;" width="39.203" height="3.938"/>
<rect x="126.922" y="249.372" style="fill:#ECF0F1;" width="124.586" height="14.321"/>
<rect x="126.922" y="240.061" style="fill:#21D0C3;" width="39.203" height="3.938"/>
<rect x="234.791" y="273.924" style="fill:#FF5B62;" width="42.411" height="13.632"/>
<circle style="fill:#B6B6B8;" cx="256" cy="346.802" r="7.815"/>
<path style="fill:#C2C2C4;" d="M305.066,407.272l36.095,11.566H170.837l29.124-11.566V371.56h105.105V407.272z"/>
<path style="fill:#B6B6B8;" d="M305.066,407.272L199.961,371.56h105.105V407.272z"/>
<path style="fill:#ECF0F1;" d="M199.961,407.272h105.105l36.095,11.566v4.981h-85.16h-85.163v-4.981L199.961,407.272
	L199.961,407.272z"/>
<g>
</g>
<g>
</g>
<g>
</g>
<g>
</g>
<g>
</g>
<g>
</g>
<g>
</g>
<g>
</g>
<g>
</g>
<g>
</g>
<g>
</g>
<g>
</g>
<g>
</g>
<g>
</g>
<g>
</g>
</svg>
