<?xml version="1.0" encoding="iso-8859-1"?>
<!-- Generator: Adobe Illustrator 19.0.0, SVG Export Plug-In . SVG Version: 6.00 Build 0)  -->
<svg version="1.1" id="Layer_1" xmlns="http://www.w3.org/2000/svg" xmlns:xlink="http://www.w3.org/1999/xlink" x="0px" y="0px"
	 viewBox="0 0 511.998 511.998" style="enable-background:new 0 0 511.998 511.998;" xml:space="preserve">
<circle style="fill:#0F7986;" cx="255.999" cy="255.999" r="255.999"/>
<ellipse style="fill:#076673;" cx="255.999" cy="421.645" rx="182.283" ry="14.369"/>
<path style="fill:#666666;" d="M65.98,67.221h380.036c12.486,0,22.702,10.217,22.702,22.702v234.106H43.279V89.922
	C43.279,77.436,53.494,67.221,65.98,67.221z"/>
<path style="fill:#DCE3DB;" d="M58.695,308.616h394.608V89.925c0-3.977-3.31-7.287-7.285-7.287H65.982
	c-3.977,0-7.285,3.31-7.285,7.287v218.692h-0.002V308.616z"/>
<g>
	<path style="fill:#FFFFFF;" d="M468.717,324.031v24.826c0,12.489-11.26,22.702-25.025,22.702H68.304
		c-13.765,0-25.025-10.213-25.025-22.702v-24.826H468.717z"/>
	<path style="fill:#FFFFFF;" d="M141.238,115.527h229.525h34.166c4.141,0,7.527,3.388,7.527,7.527v44.795v140.767H99.544
		L99.542,167.85v-44.795c0-4.141,3.386-7.527,7.527-7.527h34.166H141.238z"/>
</g>
<path style="fill:#828282;" d="M107.071,115.527h297.857c4.141,0,7.527,3.386,7.527,7.527v15.053H99.544v-15.053
	C99.544,118.914,102.931,115.527,107.071,115.527z"/>
<g>
	<path style="fill:#C9CACC;" d="M120.563,148.046v2.357h-4.714v-2.357H120.563z M114.67,152.337h2.357v4.714h-2.357V152.337z
		 M114.67,164.124h2.357v4.714h-2.357V164.124z M114.67,175.912h2.357v4.714h-2.357V175.912z M114.67,187.699h2.357v4.714h-2.357
		V187.699z M114.67,199.486h2.357v4.714h-2.357V199.486z M114.67,211.273h2.357v4.714h-2.357V211.273z M118.342,221.746v-2.357
		h4.714v2.357H118.342z M130.13,221.746v-2.357h4.714v2.357H130.13z M141.917,221.746v-2.357h4.714v2.357H141.917z M153.704,221.746
		v-2.357h4.714v2.357H153.704z M165.491,221.746v-2.357h4.714v2.357H165.491z M177.278,221.746v-2.357h4.714v2.357H177.278z
		 M189.065,221.746v-2.357h4.714v2.357H189.065z M200.853,221.746v-2.357h4.714v2.357H200.853z M212.64,221.746v-2.357h4.714v2.357
		H212.64z M224.427,221.746v-2.357h4.714v2.357H224.427z M236.214,221.746v-2.357h4.714v2.357H236.214z M248.001,221.746v-2.357
		h4.714v2.357H248.001z M259.788,221.746v-2.357h4.714v2.357H259.788z M271.576,221.746v-2.357h4.714v2.357H271.576z
		 M283.362,221.746v-2.357h4.714v2.357H283.362z M295.149,221.746v-2.357h4.714v2.357H295.149z M306.936,221.746v-2.357h4.714v2.357
		H306.936z M318.723,221.746v-2.357h4.714v2.357H318.723z M330.51,221.746v-2.357h4.714v2.357H330.51z M342.298,221.746v-2.357
		h4.714v2.357H342.298z M354.085,221.746v-2.357h4.714v2.357H354.085z M365.872,221.746v-2.357h4.714v2.357H365.872z
		 M377.659,221.746v-2.357h4.714v2.357H377.659z M389.446,221.746v-2.357h4.714v2.357H389.446z M397.319,215.475h-2.357v-4.714
		h2.357V215.475z M397.319,203.688h-2.357v-4.714h2.357V203.688z M397.319,191.9h-2.357v-4.714h2.357V191.9z M397.319,180.114
		h-2.357V175.4h2.357V180.114z M397.319,168.327h-2.357v-4.714h2.357V168.327z M397.319,156.54h-2.357v-4.714h2.357V156.54z
		 M391.664,148.048v2.357h-4.714v-2.357H391.664z M379.878,148.048v2.357h-4.714v-2.357H379.878z M368.09,148.048v2.357h-4.714
		v-2.357H368.09z M356.303,148.048v2.357h-4.714v-2.357H356.303z M344.516,148.048v2.357h-4.714v-2.357H344.516z M332.729,148.048
		v2.357h-4.714v-2.357H332.729z M320.942,148.048v2.357h-4.714v-2.357H320.942z M309.155,148.048v2.357h-4.714v-2.357H309.155z
		 M297.367,148.048v2.357h-4.714v-2.357H297.367z M285.58,148.048v2.357h-4.714v-2.357H285.58z M273.793,148.048v2.357h-4.714
		v-2.357H273.793z M262.006,148.048v2.357h-4.714v-2.357H262.006z M250.219,148.048v2.357h-4.714v-2.357H250.219z M238.432,148.048
		v2.357h-4.714v-2.357H238.432z M226.644,148.048v2.357h-4.714v-2.357H226.644z M214.858,148.048v2.357h-4.714v-2.357H214.858z
		 M203.071,148.048v2.357h-4.714v-2.357H203.071z M191.284,148.048v2.357h-4.714v-2.357H191.284z M179.497,148.048v2.357h-4.714
		v-2.357H179.497z M167.71,148.048v2.357h-4.714v-2.357H167.71z M155.922,148.048v2.357h-4.714v-2.357H155.922z M144.135,148.048
		v2.357h-4.714v-2.357H144.135z M132.348,148.048v2.357h-4.714v-2.357H132.348z"/>
	<path style="fill:#C9CACC;" d="M126.801,247.457v2.357h-4.714v-2.357H126.801z M326.747,252.402h2.357v4.714h-2.357V252.402z
		 M326.747,264.189h2.357v4.714h-2.357V264.189z M326.747,275.976h2.357v4.714h-2.357V275.976z M326.747,287.763h2.357v4.714h-2.357
		V287.763z M330.499,298.155v-2.357h4.714v2.357H330.499z M342.287,298.155v-2.357h4.714v2.357H342.287z M354.074,298.155v-2.357
		h4.714v2.357H354.074z M365.861,298.155v-2.357h4.714v2.357H365.861z M377.648,298.155v-2.357h4.714v2.357H377.648z
		 M389.435,298.155v-0.474l-0.704-0.704v-4.24h2.357v4.24v1.18h-1.18h-0.474V298.155z M391.089,285.664h-2.357v-4.714h2.357V285.664
		z M391.089,273.877h-2.357v-4.714h2.357V273.877z M391.089,262.09h-2.357v-4.714h2.357V262.09z M391.089,250.303h-2.357v-0.487
		h-1.869v-2.357h3.049h1.18v1.18v1.667L391.089,250.303z M379.789,247.457v2.357h-4.714v-2.357H379.789z M368.002,247.457v2.357
		h-4.714v-2.357H368.002z M356.215,247.457v2.357h-4.714v-2.357H356.215z M344.428,247.457v2.357h-4.714v-2.357H344.428z
		 M332.64,247.457v2.357h-4.714v-2.357H332.64z M120.907,252.402h2.357v4.714h-2.357V252.402z M120.907,264.189h2.357v4.714h-2.357
		V264.189z M120.907,275.976h2.357v4.714h-2.357V275.976z M120.907,287.763h2.357v4.714h-2.357V287.763z M124.66,298.155v-2.357
		h4.714v2.357H124.66z M136.447,298.155v-2.357h4.714v2.357H136.447z M148.234,298.155v-2.357h4.714v2.357H148.234z
		 M160.021,298.155v-2.357h4.714v2.357H160.021z M171.808,298.155v-2.357h4.714v2.357H171.808z M183.596,298.155v-0.474
		l-0.704-0.704v-4.24h2.357v4.24v1.18h-1.18h-0.474L183.596,298.155L183.596,298.155z M185.248,285.664h-2.357v-4.714h2.357V285.664
		z M185.248,273.877h-2.357v-4.714h2.357V273.877z M185.248,262.09h-2.357v-4.714h2.357V262.09z M185.248,250.303h-2.357v-0.487
		h-1.869v-2.357h3.049h1.18v1.18v1.667L185.248,250.303z M173.949,247.457v2.357h-4.714v-2.357H173.949z M162.162,247.457v2.357
		h-4.714v-2.357H162.162z M150.375,247.457v2.357h-4.714v-2.357H150.375z M138.588,247.457v2.357h-4.714v-2.357H138.588z"/>
</g>
<path style="fill:#FFFFFF;" d="M226.382,123.326h163.622c1.114,0,2.022,0.913,2.022,2.022v3.753c0,1.111-0.91,2.022-2.022,2.022
	H226.382c-1.109,0-2.02-0.908-2.02-2.022v-3.753C224.363,124.234,225.271,123.326,226.382,123.326z"/>
<circle style="fill:#ECF0F1;" cx="255.999" cy="215.538" r="49.9"/>
<path style="fill:#828282;" d="M307.077,215.534c0,14.104-5.717,26.874-14.96,36.117c-9.243,9.243-22.013,14.96-36.117,14.96
	c-14.104,0-26.874-5.717-36.117-14.96c-9.243-9.243-14.96-22.013-14.96-36.117h2.357c0,13.454,5.454,25.636,14.27,34.451
	c8.815,8.815,20.997,14.27,34.451,14.27c13.454,0,25.636-5.454,34.451-14.27c8.815-8.815,14.27-20.997,14.27-34.451H307.077z"/>
<path style="fill:#21D0C3;" d="M117.333,121.983c2.392,0,4.333,1.938,4.333,4.335c0,2.394-1.942,4.333-4.333,4.333
	c-2.396,0-4.337-1.938-4.337-4.333C112.996,123.921,114.938,121.983,117.333,121.983z"/>
<path style="fill:#FAD24D;" d="M134.441,121.983c2.396,0,4.335,1.938,4.335,4.335c0,2.394-1.938,4.333-4.335,4.333
	c-2.392,0-4.333-1.938-4.333-4.333C130.108,123.921,132.049,121.983,134.441,121.983z"/>
<path style="fill:#FF5B62;" d="M151.552,121.983c2.392,0,4.333,1.938,4.333,4.335c0,2.394-1.942,4.333-4.333,4.333
	c-2.396,0-4.337-1.938-4.337-4.333C147.215,123.921,149.158,121.983,151.552,121.983z"/>
<path style="fill:#FFBA1B;" d="M245.776,195.422l-11.708,28.233l21.25,40.479v-40.657c-1.784-0.39-3.118-1.98-3.118-3.878
	c0-2.194,1.778-3.971,3.971-3.971c2.194,0,3.971,1.778,3.971,3.971c0,2.02-1.508,3.687-3.459,3.938v40.598l21.248-40.479
	l-11.708-28.233h-10.222h-10.224H245.776z"/>
<g>
	<path style="fill:#828282;" d="M200.18,264.255h111.636v2.357H200.18V264.255z"/>
	<path style="fill:#828282;" d="M200.18,261.536c2.152,0,3.896,1.744,3.896,3.896c0,2.152-1.744,3.896-3.896,3.896
		s-3.896-1.744-3.896-3.896C196.284,263.281,198.028,261.536,200.18,261.536z"/>
	<path style="fill:#828282;" d="M311.818,261.536c2.152,0,3.896,1.744,3.896,3.896c0,2.152-1.744,3.896-3.896,3.896
		c-2.152,0-3.896-1.744-3.896-3.896C307.922,263.281,309.666,261.536,311.818,261.536z"/>
</g>
<path style="fill:#FF5B62;" d="M242.023,138.107h27.951v53.999c0,1.825-1.493,3.316-3.317,3.316H245.34
	c-1.825,0-3.317-1.49-3.317-3.316V138.107z"/>
<rect x="242.026" y="178.531" style="fill:#FFFFFF;" width="27.945" height="5.051"/>
<g>
	<circle style="fill:#828282;" cx="255.999" cy="265.67" r="3.938"/>
	<path style="fill:#828282;" d="M206.1,211.639c2.152,0,3.896,1.744,3.896,3.896s-1.744,3.896-3.896,3.896
		c-2.152,0-3.896-1.744-3.896-3.896S203.948,211.639,206.1,211.639z"/>
	<path style="fill:#828282;" d="M305.9,211.639c2.152,0,3.896,1.744,3.896,3.896s-1.744,3.896-3.896,3.896
		c-2.152,0-3.896-1.744-3.896-3.896S303.749,211.639,305.9,211.639z"/>
</g>
<circle style="fill:#B6B6B8;" cx="255.999" cy="346.801" r="7.816"/>
<path style="fill:#C2C2C4;" d="M305.065,407.272l36.095,11.566H170.836l29.124-11.566V371.56h105.105V407.272z"/>
<path style="fill:#B6B6B8;" d="M305.065,407.272L199.96,371.56h105.105V407.272z"/>
<path style="fill:#ECF0F1;" d="M199.96,407.272h105.105l36.095,11.566v4.981H256h-85.164v-4.981L199.96,407.272z"/>
<g>
</g>
<g>
</g>
<g>
</g>
<g>
</g>
<g>
</g>
<g>
</g>
<g>
</g>
<g>
</g>
<g>
</g>
<g>
</g>
<g>
</g>
<g>
</g>
<g>
</g>
<g>
</g>
<g>
</g>
</svg>
