<?xml version="1.0" encoding="utf-8"?>
<!-- Generator: Adobe Illustrator 16.0.0, SVG Export Plug-In . SVG Version: 6.00 Build 0)  -->
<!DOCTYPE svg PUBLIC "-//W3C//DTD SVG 1.1//EN" "http://www.w3.org/Graphics/SVG/1.1/DTD/svg11.dtd">
<svg version="1.1" id="OBJECTS" xmlns="http://www.w3.org/2000/svg" xmlns:xlink="http://www.w3.org/1999/xlink" x="0px" y="0px"
	 width="800px" height="800px" viewBox="0 0 800 800" enable-background="new 0 0 800 800" xml:space="preserve">
<g>
	<ellipse fill="#EDEDED" cx="400" cy="685.604" rx="245.331" ry="8.396"/>
	<g>
		<path fill="#FFBF0D" d="M290.303,273.079l-3.341-2.085l-38.354,13.491l-1.3,3.718c-0.24,0.687-5.78,16.975,3.205,30.575
			c6.343,9.602,17.766,15.018,33.948,16.098l3.504,0.234l2.586-2.376c11.943-10.974,17.459-22.348,16.394-33.807
			C305.438,282.697,290.92,273.464,290.303,273.079z"/>
		<polygon fill="#70A09B" points="279.501,196.776 288.543,248.489 346.688,263.321 329.423,214.238 		"/>
		<polygon fill="#70A09B" points="300.513,254.645 262.197,261.855 227.805,280.22 233.425,307.201 314.164,278.8 		"/>
		<polygon fill="#70A09B" points="207.961,221.941 179.966,266.812 197.231,315.895 233.286,267.927 		"/>
		<path fill="#A2E0E2" d="M212.839,107.493L207.374,106l-3.327,4.586c-1.537,2.117-37.439,52.394-21.161,98.671
			c9.708,27.599,39.996,64.925,41.281,66.5l3.639,4.462l72.708-25.576l0.044-5.758c0.015-2.033,0.265-50.101-9.443-77.7
			C274.834,124.909,215.362,108.182,212.839,107.493z"/>
		<g>
			<circle fill="#70A09B" cx="237.873" cy="192.704" r="16.39"/>
			<path fill="#FFFFFF" d="M229.715,169.512c-12.788,4.498-19.532,18.562-15.034,31.35c4.499,12.788,18.562,19.532,31.35,15.034
				c12.788-4.499,19.532-18.562,15.034-31.35C256.566,171.758,242.502,165.014,229.715,169.512z M240.592,200.434
				c-4.263,1.5-8.95-0.749-10.45-5.011s0.749-8.95,5.011-10.45s8.95,0.749,10.45,5.011S244.854,198.935,240.592,200.434z"/>
		</g>
	</g>
	<path fill="#FFBF0D" d="M177.657,546.056c0.396-1.77,0.596-3.583,0.596-5.423s-0.2-3.653-0.596-5.423l0.694-0.394l4.509-2.552
		l-2.603-4.42l-2.604-4.421l-2.604-4.42l-4.509,2.552l-0.706,0.399c-1.338-1.198-2.436-2.255-4.017-3.162
		c-1.653-0.948-2.819-1.706-4.819-2.267v-0.787V510h-5.942h-5.207H145v5.739v0.787c-3,0.561-3.711,1.317-5.365,2.267
		c-1.581,0.907-3.135,1.964-4.473,3.162l-0.75-0.399l-4.531-2.552l-2.615,4.42l-2.609,4.421l-2.606,4.42l4.508,2.552l0.694,0.394
		c-0.396,1.77-0.597,3.583-0.597,5.423s0.2,3.653,0.596,5.423l-0.695,0.394l-4.509,2.552l2.603,4.421l2.604,4.42l2.604,4.42
		l4.509-2.552l0.706-0.399c1.338,1.198,2.981,2.255,4.562,3.162c1.653,0.948,2.365,1.706,5.365,2.267v0.787V571h4.851h5.207H161
		v-5.474v-0.787c2-0.561,3.166-1.318,4.819-2.267c1.581-0.907,2.862-1.964,4.2-3.162l0.614,0.399l4.463,2.552l2.581-4.42l2.592-4.42
		l2.598-4.421l-4.512-2.552L177.657,546.056z M152.455,555.095c-8.135,0-14.753-6.487-14.753-14.462s6.618-14.462,14.753-14.462
		s14.753,6.487,14.753,14.462S160.589,555.095,152.455,555.095z"/>
	<path fill="#FFBF0D" d="M674.266,581.711l-9.25-9.896c-0.794-0.85-0.362-2.259,0.779-2.485c1.897-0.378,3.7-1.372,5.09-2.999
		c2.691-3.148,2.846-7.851,0.367-11.168c-3.267-4.371-9.491-4.836-13.365-1.215c-1.268,1.185-2.114,2.65-2.535,4.211
		c-0.304,1.123-1.738,1.457-2.532,0.607l-9.25-9.896l-9.896,9.25c-0.85,0.795-2.258,0.363-2.485-0.778
		c-0.377-1.897-1.372-3.701-2.998-5.091c-3.148-2.691-7.852-2.846-11.169-0.366c-4.371,3.266-4.836,9.491-1.215,13.364
		c1.185,1.268,2.65,2.115,4.211,2.536c1.123,0.303,1.457,1.738,0.607,2.532l-9.896,9.249l9.25,9.896
		c0.794,0.851,0.362,2.259-0.779,2.485c-1.897,0.378-3.7,1.372-5.09,2.999c-2.691,3.148-2.847,7.851-0.367,11.168
		c3.267,4.371,9.491,4.836,13.364,1.216c1.269-1.186,2.115-2.651,2.536-4.212c0.303-1.122,1.738-1.457,2.532-0.607l9.25,9.896
		L674.266,581.711z"/>
	<path fill="#A2E0E2" d="M495.22,308.75c1.152,2.162,1.46,4.5,1.069,6.68c-0.235,1.311,1.085,2.36,2.322,1.869l14.418-5.725
		l-18.998-47.84l-14.416,5.725c-1.237,0.492-1.48,2.162-0.41,2.954c1.487,1.101,2.695,2.616,3.429,4.463
		c2.241,5.643-0.855,12.084-6.881,13.739c-4.573,1.257-9.521-0.874-11.753-5.059c-1.152-2.162-1.46-4.5-1.069-6.68
		c0.235-1.312-1.086-2.361-2.324-1.869l-14.416,5.725l18.998,47.84l14.417-5.725c1.236-0.492,1.479-2.161,0.409-2.953
		c-1.487-1.101-2.695-2.616-3.429-4.463c-2.241-5.643,0.855-12.085,6.881-13.74C488.04,302.436,492.988,304.566,495.22,308.75z"/>
	<g>
		<g>
			<path fill="#E4E4E4" d="M631.456,574.673l-94.457-33.828c-7.18-2.571-10.915-10.476-8.344-17.655l64.722-180.72
				c2.571-7.18,10.476-10.915,17.655-8.344l94.456,33.828c7.18,2.571,10.916,10.476,8.345,17.655l-64.722,180.719
				C646.54,573.508,638.636,577.244,631.456,574.673z"/>
		</g>
		<g>
			<g>
				<g>
					
						<rect x="543.328" y="382.48" transform="matrix(0.3372 -0.9414 0.9414 0.3372 -7.3853 882.42)" fill="#AADDD9" width="159.29" height="127.949"/>
				</g>
				<polyline fill="#AADDD9" points="537.395,500.348 657.851,543.486 711.557,393.524 				"/>
			</g>
			<g>
				<g>
					
						<rect x="543.328" y="382.48" transform="matrix(0.3372 -0.9414 0.9414 0.3372 -7.3853 882.42)" fill="#A2E0E2" width="159.29" height="127.949"/>
				</g>
				<polyline fill="#95D5CF" points="537.395,500.348 657.851,543.486 711.557,393.524 				"/>
			</g>
		</g>
		<circle fill="#FFFFFF" cx="592.208" cy="540.152" r="11.566"/>
	</g>
	<g>
		<path fill="#FFBF0D" d="M608,253.792v44.617c0,7.99,3.838,18.591,12.392,18.591h20.311L678,333.177V317h12.615
			c8.57,0,14.385-10.782,14.385-18.591v-44.617c0-7.926-5.568-12.792-14.385-12.792h-70.224C611.838,241,608,245.739,608,253.792z"
			/>
		<circle fill="#FFFFFF" cx="675.438" cy="277.356" r="6.532"/>
		<circle fill="#FFFFFF" cx="655.841" cy="277.356" r="6.532"/>
		<circle fill="#FFFFFF" cx="635.965" cy="277.356" r="6.532"/>
	</g>
	<g>
		<path fill="#A2E0E2" d="M626.06,202h-86.535C528.659,202,522,208.762,522,218.529v54.98c0,9.624,6.963,22.491,17.524,22.491H555
			v20.353L601.031,296h25.028c10.54,0,16.94-12.645,16.94-22.491v-54.98C643,208.605,636.6,202,626.06,202z"/>
		<circle fill="#FFFFFF" cx="558.228" cy="247.566" r="8.049"/>
		<circle fill="#FFFFFF" cx="582.376" cy="247.566" r="8.049"/>
		<circle fill="#FFFFFF" cx="606.868" cy="247.566" r="8.049"/>
	</g>
	<g>
		<defs>
			<circle id="SVGID_1_" cx="213.765" cy="460.523" r="95.827"/>
		</defs>
		<use xlink:href="#SVGID_1_"  overflow="visible" fill="#A2E0E2"/>
		<clipPath id="SVGID_2_">
			<use xlink:href="#SVGID_1_"  overflow="visible"/>
		</clipPath>
		<path clip-path="url(#SVGID_2_)" fill="#95D5CF" d="M129.967,410.08c-1.094,7.929,1.641,12.029,0,15.858
			c-1.641,3.827-3.554,10.662-1.914,15.311c1.641,4.646,4.102,14.763,6.289,15.036c2.187,0.273-1.64-10.936,0.546-7.382
			c2.188,3.555,2.188,8.844,6.016,12.486c3.828,3.645,9.022,3.097,13.124,6.651c4.101,3.555,8.202,8.749,12.029,8.203
			c0,0-0.273,2.733-2.188,7.382c-1.914,4.647-2.188,10.115,0.273,13.396c2.462,3.282,4.921,8.203,7.109,10.664
			c2.187,2.459,3.828,15.583,3.281,22.146c-0.546,6.561,2.461,21.324,9.296,24.605c6.834,3.28,0-1.642-1.367-5.742
			c-1.367-4.1,1.057-13.669,4.356-15.036c3.298-1.367,6.306-6.835,8.767-10.663s8.749-5.468,10.662-10.115
			c1.915-4.648,1.095-10.117,2.188-12.576c1.094-2.461,4.101-7.929-2.461-11.211c-6.561-3.279-9.295-1.64-9.568-4.647
			c-0.274-3.008-1.914-6.288-6.562-7.655c-4.648-1.368-8.748-4.021-13.943-4.608c-5.194-0.586-6.288,3.516-9.022,1.327
			c-2.735-2.188-4.922-4.374-6.016-7.108c-1.093-2.733-4.374-1.093-4.101-2.733c0.273-1.642,4.648-6.288-0.273-4.648
			c-4.921,1.642-9.295,1.095-9.022-3.279c0.274-4.375,6.289-6.015,8.749-6.563c2.461-0.547,4.375,2.461,7.382,4.374
			c3.009,1.914,0.274-2.732,1.915-6.014c1.64-3.281,7.928-3.008,8.749-7.655c0.82-4.648-0.273-8.476,4.648-9.022
			c4.921-0.547,10.115,0.273,10.663-2.188c0.546-2.461-5.742,0.82-6.016-2.188c-0.273-3.008,5.468-7.108,7.108-4.101
			c1.641,3.007,5.742,3.28,6.289,2.187s0-3.007-1.913-7.655c-1.914-4.647-3.829-3.28-5.468-8.476
			c-1.641-5.194-4.375,0.273-7.108-2.46c-2.734-2.734-6.015-8.476-6.562-3.555c-0.546,4.921-0.546,7.655-3.007,11.483
			c-2.461,3.827-3.555,0.82-5.741-1.641c-2.188-2.461-7.108-4.922-5.469-7.108c1.64-2.188,3.281-7.929,5.742-6.288
			c2.46,1.64,6.289,1.64,5.742-1.094c-0.546-2.734,0-3.828,1.094-5.195c1.094-1.366,4.922-3.828,4.922,1.093
			c0,4.922-0.548,6.289,3.28,6.835c3.829,0.546,8.201,0.821,7.928-1.64c-0.273-2.461,1.094-1.915,0-6.015
			c-1.094-4.101-4.373-4.374-7.928-6.289c-3.554-1.913-5.468-4.921-8.476-3.827c-3.008,1.093-3.281,2.188-3.555,5.195
			c-0.273,3.008-1.913,4.101-3.007,2.733c-1.094-1.367,0.273-5.741-3.828-3.007c-4.1,2.734-5.741,7.382-7.928,4.102
			s3.281-9.022-2.46-6.562s-9.843,5.194-6.835,6.289c3.008,1.093,6.016,3.007,3.008,4.101c-3.008,1.094-9.022-0.819-11.209,1.367
			C135.982,399.145,129.967,410.08,129.967,410.08z"/>
		<path clip-path="url(#SVGID_2_)" fill="#95D5CF" d="M162.229,380.553c-0.015,3.057,0.82,5.468,3.554,2.733
			c2.734-2.733,4.374-6.013,6.289-4.647c1.913,1.367,5.193,1.004,6.56,0.912c1.368-0.092,1.641-4.193,5.468-3.646
			c3.828,0.546,2.462-0.82,6.562-3.008c4.102-2.187,12.85-6.014,3.829-4.921c-9.023,1.094-9.57-1.367-15.858,2.734
			c-6.287,4.102-7.655,4.102-9.296,5.195c-1.64,1.094-3.553-3.282-5.741,0C161.409,379.186,162.245,377.439,162.229,380.553z"/>
		<path clip-path="url(#SVGID_2_)" fill="#95D5CF" d="M195.038,372.078c-3.232,2.792-8.202,6.835-4.375,6.835
			c3.829,0,5.687-2.004,7.765,0.638c2.079,2.643,1.258,6.743,1.258,8.658c0,1.913-1.094,6.288,1.641,11.756
			c2.733,5.468,3.007,9.022,5.742,5.468c2.733-3.554,9.296-10.389,12.576-10.936c3.282-0.547,6.561-1.914,8.203-4.648
			c1.641-2.734,0-5.386,2.734-7.341c2.732-1.954,2.186-4.415,3.006-7.422c0.822-3.007,8.204-3.007,4.922-4.647
			c-3.28-1.641-9.294-2.734-16.403-1.914C214.997,369.343,201.053,366.883,195.038,372.078z"/>
		<path clip-path="url(#SVGID_2_)" fill="#95D5CF" d="M164.963,456.559c-1.739,2.836-0.821,3.007,1.094,3.555
			c1.914,0.547-0.82,3.825,1.367,4.102c2.188,0.271,7.108,1.64,8.476,0c1.367-1.641-2.187-1.001-4.648-2.825
			C168.791,459.565,166.199,454.543,164.963,456.559z"/>
		<path clip-path="url(#SVGID_2_)" fill="#95D5CF" d="M297.291,501.123c-2.945,1.473-1.64,3.827-4.375,5.469
			c-2.735,1.64-1.641,2.187-2.46,6.014c-0.823,3.828,0.273,6.015,2.187,3.008C294.557,512.605,300.57,499.482,297.291,501.123z"/>
		<path clip-path="url(#SVGID_2_)" fill="#95D5CF" d="M312.874,455.191c-0.819-4.646-6.835-46.752-6.835-46.752
			s-16.129-10.389-18.864-8.202c-2.734,2.187-7.383,1.857-6.834-0.302c0.545-2.158,4.1-1.611-1.914-5.713
			c-6.016-4.101-7.11-7.655-11.757-2.46c-4.648,5.194-5.742,9.569-8.476,10.936c-2.735,1.367-4.922,5.741-1.914,6.835
			c3.007,1.094,3.279,0,5.742,2.187c2.46,2.188,5.742,1.642,6.287,0.274c0.547-1.367,1.095-5.741,1.368-7.382
			c0.273-1.641,3.053-7.108,2.756-2.733c-0.296,4.374,3.805,4.374,1.072,7.382c-2.734,3.007-1.095,5.468-6.563,6.015
			c-5.467,0.546-5.742-2.734-8.749-1.095c-3.007,1.641-2.735,2.734-3.828,4.374c-1.094,1.642-6.835,4.922-6.835,4.922
			s-4.648-1.641-2.461,1.368c2.188,3.007,4.103,6.562,2.188,6.834c-1.914,0.274-7.109-2.733-7.109,0.547s-0.82,6.835,1.367,7.656
			c1.545,0.578,2.547,1.832,3.963,1.656c-1.098,0.476-2.098,1.162-2.868,2.171c-2.127,2.781-0.819,7.655-5.195,9.295
			c-4.375,1.642-4.375,3.555-5.194,7.109c-0.821,3.554,0,12.575,1.092,13.396c1.095,0.821,3.008,7.655,7.655,7.109
			c4.649-0.547,9.571-0.759,11.21,0.03c1.64,0.789,4.375-1.671,5.195,4.617c0.821,6.289,2.734,7.109,3.828,10.391
			c1.092,3.28-0.546,10.115,0,14.217c0.545,4.1,4.375,11.208,4.375,14.764c0,3.554,4.101,5.194,6.288,3.826
			c2.188-1.365,6.836-4.101,8.75-8.475c1.915-4.375,1.915-6.562,4.92-12.303c3.007-5.742,2.189-9.843,3.554-14.217
			c1.369-4.376,4.657-7.383,9.164-12.305c4.506-4.92,3.696-7.655,0-7.382c-3.695,0.273-6.16-3.28-8.072-7.654
			c-1.911-4.375-4.099-15.31-2.457-11.756c1.639,3.555,4.92,13.396,8.2,15.036c3.282,1.642,9.296-2.788,10.664-4.401
			c1.367-1.614,0.819-6.261-2.735-8.175c-3.554-1.913-1.366-3.555,2.188-1.367C309.592,457.652,313.694,459.84,312.874,455.191z
			 M283.894,443.436c-0.274,2.188,0.819,5.741-5.194,4.375c-6.017-1.367-6.017-4.648-8.476-2.188c-2.46,2.46-5.469,4.647-9.023,0.82
			c-3.553-3.828-3.007-4.921-4.92-5.194c-1.363-0.195-5.907-1.21-9.698-0.107c0.294-0.174,0.61-0.407,0.949-0.713
			c2.734-2.461,2.187-3.281,5.194-6.015c3.008-2.735,5.196-5.194,7.382-2.735c2.186,2.461,6.835,3.008,5.194,5.742
			c-1.639,2.734-0.546,4.374,1.369,2.734c1.913-1.642,4.647-2.734,2.734-4.922c-1.915-2.187-3.828-7.928-1.095-4.101
			c2.735,3.827,3.554,5.741,5.196,7.928c1.64,2.188,3.28,3.555,3.827,2.188c0.546-1.367-0.273-4.375,0.546-4.922
			c0.821-0.547,0,4.647,2.462,4.922C282.799,441.522,284.167,441.249,283.894,443.436z M290.18,434.14
			c-1.915-1.093-5.466,0-9.839,1.366c-4.377,1.368-0.877-3.041,1.093-6.014c1.76-2.657,0.819,0.82,4.647,1.094
			C289.91,430.859,292.096,435.233,290.18,434.14z M299.751,442.615c-0.82,0.82-2.188-3.828-3.008-6.015s-0.799-5.987,1.508-8.103
			c2.875-2.635,1.5,3.455,1.5,6.735S300.57,441.795,299.751,442.615z"/>
		<path clip-path="url(#SVGID_2_)" fill="#95D5CF" d="M246.985,409.261c-1.678,0.503-3.008,3.827-2.188,5.468
			c0.821,1.641-0.82-0.82-3.006,0.547c-2.188,1.366-5.439,5.194-2.447,5.467c2.994,0.274,2.447-2.188,5.18-1.093
			c2.734,1.093,5.742,0.82,5.742-1.914S249.718,408.439,246.985,409.261z"/>
		<path clip-path="url(#SVGID_2_)" fill="#95D5CF" d="M229.214,396.684c-1.647,0.235-2.188,4.374,1.367,4.922
			c3.553,0.546,9.918-0.821,7.556-3.008C235.775,396.41,233.04,396.137,229.214,396.684z"/>
	</g>
	<g>
		<polygon fill="#FF9600" points="401.133,540.151 567.566,416.27 240.388,416.27 		"/>
		<path fill="#EDEDED" d="M246.371,614.248c0,0,13.651,11.386,23.044,11.386h269.124c16.031,0,29.027-12.996,29.027-29.027V416.27
			L246.371,614.248z"/>
		<path fill="#E4E4E4" d="M561.584,614.248c-5.305,6.92-13.651,11.386-23.045,11.386H269.415c-16.031,0-29.027-12.996-29.027-29.027
			V416.27C240.388,416.27,541.831,603.39,561.584,614.248z"/>
		<path fill="#D2D2D2" d="M246.371,614.248L246.371,614.248c0.319,0.417,0.651,0.823,0.992,1.222c0.03,0.035,0.061,0.07,0.091,0.105
			c0.32,0.37,0.649,0.731,0.987,1.085c0.035,0.036,0.069,0.072,0.104,0.108c0.358,0.371,0.726,0.734,1.104,1.086
			c0.007,0.006,0.014,0.013,0.02,0.019c1.177,1.094,2.445,2.09,3.791,2.979c0.063,0.041,0.128,0.081,0.192,0.123
			c0.37,0.24,0.745,0.472,1.126,0.694c0.101,0.06,0.202,0.117,0.303,0.175c0.355,0.202,0.716,0.396,1.081,0.584
			c0.111,0.058,0.222,0.115,0.334,0.172c0.379,0.188,0.765,0.368,1.153,0.541c0.093,0.041,0.184,0.085,0.278,0.126
			c0.97,0.419,1.967,0.786,2.988,1.1c0.11,0.033,0.223,0.062,0.333,0.094c0.39,0.114,0.782,0.223,1.178,0.32
			c0.171,0.043,0.344,0.08,0.517,0.12c0.342,0.078,0.687,0.15,1.034,0.217c0.192,0.036,0.386,0.07,0.58,0.104
			c0.338,0.057,0.679,0.107,1.021,0.152c0.195,0.025,0.391,0.053,0.587,0.074c0.365,0.041,0.732,0.071,1.101,0.099
			c0.173,0.013,0.344,0.213,0.517,0.223c0.541,0.03,1.085,0.231,1.634,0.231h269.124c0.549,0,1.094-0.201,1.635-0.231
			c0.173-0.01,0.344-0.118,0.517-0.131c0.369-0.027,0.736-0.104,1.102-0.145c0.196-0.021,0.392-0.071,0.587-0.098
			c0.342-0.045,0.683-0.106,1.021-0.163c0.194-0.033,0.388-0.073,0.58-0.109c0.347-0.066,0.69-0.142,1.033-0.22
			c0.173-0.04,0.346-0.079,0.517-0.121c0.396-0.099,0.789-0.207,1.179-0.321c0.11-0.032,0.223-0.062,0.332-0.095
			c1.021-0.313,2.019-0.681,2.988-1.1c0.094-0.04,0.186-0.085,0.278-0.126c0.389-0.173,0.773-0.352,1.152-0.541
			c0.113-0.057,0.224-0.114,0.336-0.172c0.364-0.188,0.725-0.382,1.079-0.584c0.102-0.058,0.202-0.115,0.303-0.175
			c0.382-0.223,0.757-0.454,1.127-0.694c0.063-0.042,0.129-0.082,0.192-0.123c1.346-0.889,2.614-1.885,3.791-2.979
			c0.006-0.006,0.013-0.013,0.02-0.019c0.378-0.352,0.746-0.715,1.104-1.086c0.034-0.036,0.068-0.072,0.104-0.108
			c0.338-0.354,0.667-0.715,0.986-1.085c0.03-0.035,0.062-0.07,0.091-0.105c0.342-0.398,0.673-0.805,0.992-1.222l0,0
			c-9.884-5.434-157.606-96.082-157.606-96.082S256.255,608.814,246.371,614.248z"/>
		<path fill="#FFBF0D" d="M240.388,416.494L388.98,283.807c8.884-6.676,21.111-6.676,29.995,0l148.592,132.688H240.388z"/>
	</g>
	<polygon fill="#FFFFFF" points="404.377,518.261 537,435.435 537,311 274,311 274,436.858 	"/>
	<text transform="matrix(1 0 0 1 312.665 389.1479)" fill="#858585" font-family="'Raleway-SemiBold'" font-size="32.6014">CONTACT US!</text>
	<g>
		<polygon fill="#FFBF0D" points="411.337,168 378.893,129.095 346.449,168 359,168 359,218 399,218 399,168 		"/>
		<polygon fill="#FF6B3E" points="449,229 449,179 408,179 408,229 396.618,229 429.063,267.905 461.506,229 		"/>
	</g>
	<g>
		<path fill="#70A09B" d="M506.113,616.805c-9.923,3.59-15.074,14.583-11.485,24.506c3.59,9.923,14.583,15.075,24.506,11.485
			s15.075-14.583,11.485-24.506S516.036,613.216,506.113,616.805z"/>
		<path fill="#FFBF0D" d="M508.466,518.684c-12.188-5.66-25.829-6.255-38.456-1.688c-0.114,0.042-0.23,0.084-0.345,0.126
			c-12.342,4.563-22.287,13.656-28.002,25.602c-5.716,11.949-6.553,25.396-2.355,37.867c4.407,13.091,13.692,23.569,26.146,29.505
			c6.751,3.218,12.009,8.895,14.426,15.574l1.766,4.881l52.067-18.836l-1.767-4.882c-2.431-6.718-2.052-14.379,1.039-21.017
			c5.674-12.188,6.279-25.861,1.706-38.502C530.079,534.563,520.765,524.395,508.466,518.684z"/>
		<path fill="#A2E0E2" d="M479.879,625.67l2.955,8.168c2.27,6.272,9.193,9.518,15.467,7.248l29.353-10.619
			c6.272-2.269,9.518-9.193,7.248-15.466l-2.954-8.168L479.879,625.67z"/>
		<circle fill="#FFDB2D" cx="466.945" cy="545.138" r="13.408"/>
		<circle fill="#FFDB2D" cx="469.415" cy="568.72" r="23.011"/>
		<circle fill="#FFFFFF" cx="469.325" cy="568.471" r="9.551"/>
	</g>
	<path fill="#FF6B3E" d="M290.772,621.639c1.864-3.203,3.379-6.61,4.53-10.193c1.151-3.583,1.903-7.234,2.254-10.924l1.572-0.34
		l10.203-2.204l-2.204-10.202l-2.204-10.203l-2.204-10.203l-10.203,2.204l-1.596,0.345c-1.804-3.152-5.019-6.456-7.47-9.192
		c-2.562-2.86-5.74-5.508-9.562-7.941l0.492-1.531l3.779-11.761l-7.778-2.499l-9.938-3.193l-12.542-4.028l-3.779,11.762
		l-0.492,1.531c-2.438,0.422-6.267,0.817-10.016,1.65c-3.585,0.797-6.392,2.167-9.695,3.679l-0.771-1.106l-6.848-7.681l-7.652,7.036
		l-7.693,7.022l-7.714,7.017l7.021,7.737l1.085,1.194c-1.864,3.202-3.376,6.61-4.527,10.193c-1.151,3.583-1.903,7.235-2.253,10.925
		l-1.571,0.34l-10.203,2.204l2.204,10.203l2.204,10.202l2.204,10.203l10.203-2.204l1.597-0.345c1.804,3.152,2.638,5.691,5.088,8.427
		c2.562,2.86,5.445,5.414,7.18,7.177l-0.492,1.531l-2.956,9.2l12.542,4.029l9.938,3.193l7.778,2.498l2.956-9.201l0.492-1.531
		c4.524,0.249,8.649-0.053,12.398-0.886c3.585-0.797,7.583-1.783,10.886-3.295l1.367,1.297l7.145,7.777l7.802-6.989l7.768-6.999
		l7.751-7.005l-7.002-7.731L290.772,621.639z M237.017,623.784c-15.526-4.988-24.1-21.678-19.112-37.204
		c4.988-15.525,21.678-24.1,37.204-19.111c15.526,4.988,24.1,21.678,19.112,37.204C269.232,620.198,252.542,628.772,237.017,623.784
		z"/>
	<path fill="#FFFFFF" d="M229.214,451.452c0-9.335-6.24-17.838-15.175-20.677l-3.197-1.015l-0.161-3.351
		c-0.736-15.281-13.306-27.25-28.616-27.25c-13.656,0-25.478,9.72-28.112,23.113l-0.648,3.297l-3.318,0.535
		c-11.354,1.83-19.916,11.875-19.916,23.365c0,13.05,10.617,23.666,23.667,23.666h53.793
		C219.487,473.136,229.214,463.409,229.214,451.452z"/>
	<path fill="#A2E0E2" d="M137.702,372.453c0-4.429-3.285-8.462-7.988-9.808l-1.683-0.482l-0.085-1.589
		c-0.388-7.249-7.004-12.926-15.064-12.926c-7.188,0-13.412,4.611-14.798,10.964l-0.341,1.564l-1.746,0.254
		c-5.977,0.868-10.484,5.633-10.484,11.083c0,6.19,5.589,11.226,12.458,11.226h28.317
		C132.582,382.738,137.702,378.124,137.702,372.453z"/>
	<path fill="#A2E0E2" d="M236.098,334.696c0-2.317-1.719-4.428-4.18-5.133l-0.881-0.252l-0.044-0.832
		c-0.203-3.793-3.666-6.765-7.883-6.765c-3.762,0-7.019,2.413-7.744,5.737l-0.179,0.819l-0.914,0.133
		c-3.128,0.454-5.486,2.948-5.486,5.8c0,3.239,2.925,5.875,6.52,5.875h14.819C233.418,340.079,236.098,337.665,236.098,334.696z"/>
	<g>
		<path fill="#A2E0E2" d="M397.942,404.659c2.046,0,4.037,0.314,5.97,0.945c1.934,0.63,3.65,1.598,5.15,2.901
			c1.498,1.303,2.697,2.964,3.594,4.981c0.896,2.019,1.346,4.429,1.346,7.231c0,0.394-0.021,0.911-0.063,1.556
			c-0.043,0.646-0.133,1.332-0.273,2.06c-0.141,0.729-0.357,1.472-0.652,2.229c-0.293,0.757-0.693,1.443-1.197,2.06
			c-0.506,0.616-1.135,1.114-1.893,1.492c-0.756,0.379-1.668,0.568-2.732,0.568c-0.785,0-1.443-0.1-1.977-0.294
			c-0.531-0.196-0.967-0.448-1.303-0.758c-0.336-0.308-0.588-0.645-0.756-1.009s-0.281-0.7-0.338-1.009
			c-0.953,0.897-2.045,1.563-3.279,1.997s-2.508,0.651-3.825,0.651c-2.159,0-3.784-0.546-4.877-1.64
			c-1.093-1.093-1.639-2.564-1.639-4.414c0-1.205,0.224-2.222,0.673-3.048c0.448-0.826,1.036-1.493,1.766-1.997
			c0.729-0.504,1.562-0.868,2.501-1.093c0.938-0.225,1.898-0.336,2.879-0.336c1.065,0,1.948,0.091,2.648,0.272
			c0.7,0.183,1.247,0.371,1.641,0.567c0-0.56-0.072-1.078-0.211-1.556c-0.141-0.477-0.378-0.882-0.714-1.219
			c-0.337-0.337-0.793-0.596-1.367-0.777c-0.575-0.183-1.297-0.274-2.165-0.274c-1.177,0-2.222,0.155-3.132,0.463
			c-0.911,0.31-1.647,0.729-2.207,1.262l-1.345-4.078c1.064-0.729,2.228-1.255,3.489-1.576c1.262-0.323,2.593-0.483,3.994-0.483
			c2.018,0,3.586,0.294,4.709,0.883c1.119,0.588,1.947,1.33,2.48,2.229c0.531,0.896,0.846,1.863,0.945,2.899
			c0.098,1.038,0.146,2.019,0.146,2.943v2.817c0,0.616,0.014,1.232,0.043,1.85c0.027,0.616,0.111,1.177,0.252,1.681
			c0.139,0.506,0.342,0.912,0.609,1.22c0.266,0.309,0.652,0.463,1.156,0.463c0.672,0,1.199-0.267,1.576-0.8
			c0.379-0.531,0.674-1.17,0.883-1.912c0.211-0.742,0.344-1.493,0.4-2.249c0.055-0.757,0.084-1.359,0.084-1.808
			c0-1.878-0.309-3.608-0.926-5.192c-0.617-1.583-1.5-2.949-2.648-4.099c-1.15-1.149-2.537-2.046-4.162-2.691
			c-1.625-0.645-3.461-0.967-5.507-0.967c-2.018,0-3.833,0.322-5.444,0.967c-1.612,0.646-2.971,1.535-4.078,2.67
			c-1.108,1.136-1.956,2.48-2.544,4.036s-0.883,3.258-0.883,5.107c0,1.766,0.273,3.428,0.82,4.982
			c0.546,1.555,1.345,2.915,2.396,4.077c1.051,1.164,2.333,2.082,3.847,2.755c1.514,0.673,3.251,1.009,5.213,1.009
			c0.729,0,1.388-0.05,1.977-0.146c0.588-0.1,1.142-0.219,1.66-0.358c0.518-0.141,1.016-0.308,1.493-0.504s0.98-0.394,1.514-0.589
			l0.84,2.859c-1.205,0.56-2.459,0.98-3.762,1.261c-1.303,0.28-2.585,0.42-3.847,0.42c-2.102,0-4.078-0.372-5.927-1.114
			c-1.85-0.742-3.469-1.801-4.856-3.174c-1.388-1.373-2.48-3.033-3.28-4.981c-0.799-1.948-1.198-4.141-1.198-6.58
			c0-2.577,0.448-4.842,1.345-6.789c0.897-1.948,2.095-3.58,3.595-4.898c1.499-1.317,3.229-2.305,5.192-2.964
			C393.724,404.988,395.784,404.659,397.942,404.659z M399.625,425.806c0.363-0.196,0.728-0.463,1.093-0.799
			c0.365-0.337,0.546-0.743,0.546-1.22v-1.723c-0.42-0.169-1.016-0.344-1.788-0.526c-0.771-0.182-1.562-0.273-2.374-0.273
			c-1.178,0-2.026,0.238-2.544,0.715c-0.519,0.477-0.778,1.206-0.778,2.187c0,1.57,0.827,2.354,2.48,2.354
			c0.393,0,0.911-0.042,1.556-0.125C398.46,426.311,399.063,426.114,399.625,425.806z"/>
	</g>
	<polygon fill="#FFBF0D" points="614.311,643.573 608.441,648.458 609.139,656.063 602.679,651.99 595.662,655.003 597.539,647.602 
		592.505,641.859 600.125,641.356 604.03,634.795 606.863,641.887 	"/>
	<polygon fill="#FFBF0D" points="519.453,154.658 518.541,162.239 524.27,167.288 516.777,168.764 513.745,175.772 510.026,169.103 
		502.425,168.385 507.618,162.787 505.952,155.335 512.881,158.545 	"/>
	<polygon fill="#FFBF0D" points="146.955,619.599 152.734,624.59 160.122,622.659 157.16,629.697 161.279,636.127 153.67,635.485 
		148.828,641.39 147.087,633.955 139.975,631.175 146.508,627.221 	"/>
	<polygon fill="#FFBF0D" points="88.076,464.279 90.634,471.475 98.011,473.445 91.959,478.102 92.364,485.728 86.065,481.41 
		78.938,484.151 81.098,476.827 76.288,470.896 83.921,470.687 	"/>
	<polygon fill="#FFBF0D" points="141.118,215.041 147.192,219.668 154.448,217.289 151.923,224.496 156.428,230.661 
		148.794,230.486 144.323,236.676 142.129,229.362 134.861,227.022 141.139,222.676 	"/>
	<polygon fill="#FFBF0D" points="134.155,255.544 138.658,256.447 141.954,253.25 142.486,257.811 146.545,259.958 142.372,261.874 
		141.584,266.397 138.473,263.021 133.927,263.669 136.177,259.667 	"/>
</g>
</svg>
