<?xml version="1.0" encoding="utf-8"?>
<!-- Generator: Adobe Illustrator 22.0.1, SVG Export Plug-In . SVG Version: 6.00 Build 0)  -->
<svg version="1.1" id="Layer_1" xmlns="http://www.w3.org/2000/svg" xmlns:xlink="http://www.w3.org/1999/xlink" x="0px" y="0px"
	 viewBox="0 0 658 736" style="enable-background:new 0 0 658 736;" xml:space="preserve">
<style type="text/css">
	.st0{fill:#3BAC7F;}
	.st1{fill:#6600BE;}
	.st2{fill:#C8D7D7;}
	.st3{fill:#F00000;}
	.st4{fill:url(#SVGID_1_);}
	.st5{fill:#FFFFFF;}
	.st6{fill:#292C38;}
	.st7{fill:#E8E8E8;}
	.st8{fill:#FF0000;}
	.st9{fill:#40434E;}
	.st10{fill:#500000;}
</style>
<circle class="st0" cx="329" cy="408" r="321.6"/>
<g>
	<g>
		<path class="st1" d="M513.9,504.3c8.5,10.4,17.5,23.3,26.7,38.2c9.2,14.9,18,32.3,26.9,51.1c2.8,6.6,5.9,13.2,8.8,20.1
			c24.2-29,43.3-62.3,56.1-98.7c-3.1-6.5-6.4-12.8-9.7-19c-10.2-19-20.8-36.1-31.5-50.9c-10.8-14.8-21.7-27.3-31.9-37.3
			C539,387.6,521.4,378.1,516,376L477,470c-0.1,0-0.2-0.1-0.3-0.1c2.5,1.4,7.5,4.6,14.4,10.6C497.5,486.1,505.4,494,513.9,504.3z"/>
	</g>
	<g>
		<path class="st1" d="M76.2,606.8c0.5-1.2,1-2.4,1.5-3.7c3.9-10.4,8.5-20.1,12.7-29.7c8.9-18.8,17.7-36.2,26.9-51.1
			c9.1-14.9,18.2-27.8,26.7-38.2c8.5-10.3,16.4-18.2,22.8-23.8c6.9-6,11.9-9.3,14.4-10.6c-0.1,0-0.2,0.1-0.3,0.1L141.7,356
			c-5.4,2.1-23,11.5-43.3,31.7c-10.2,10-21.1,22.5-31.9,37.3c-10.7,14.8-21.3,32-31.5,50.9c-4.6,8.6-9.1,17.6-13.4,26.9
			C33.4,541,52.1,576.2,76.2,606.8z"/>
	</g>
	<g>
		<path class="st2" d="M329,729.6c99.8,0,188.9-45.4,247.9-116.7c-6.3-132.8-116-238.5-250.4-238.5h0
			c-132.4,0-240.9,102.7-250,232.9C135.4,681.8,226.6,729.6,329,729.6z"/>
	</g>
	<path class="st3" d="M329.8,157.6L329.8,157.6c-118.6,0-214.8,96.2-214.8,214.8v154.4h429.5V372.4
		C544.6,253.8,448.4,157.6,329.8,157.6z"/>
	<linearGradient id="SVGID_1_" gradientUnits="userSpaceOnUse" x1="329.7944" y1="508.7829" x2="329.7944" y2="175.418">
		<stop  offset="0" style="stop-color:#F00000"/>
		<stop  offset="1" style="stop-color:#FF2D2D"/>
	</linearGradient>
	<path class="st4" d="M329.8,175.4L329.8,175.4c-105.9,0-191.8,85.9-191.8,191.8v141.6h383.6V367.2
		C521.6,261.3,435.7,175.4,329.8,175.4z"/>
	<path class="st3" d="M122.5,475.3c-2.6,0.9-5,1.9-7.3,3v37.5c147.5,2.3,289.8,2.2,429.4-0.3v-76.3
		C402.8,412.2,266,425.7,122.5,475.3z"/>
	<path class="st5" d="M211.6,305.9c31.4-1.9,58.5,22,60.4,53.4l-113.8,7C156.2,334.8,180.1,307.8,211.6,305.9z"/>
	<path class="st6" d="M222.6,362.3c-2.8-3-4.7-6.9-5-11.4c-0.6-10.1,7.1-18.8,17.2-19.4c10.1-0.6,18.8,7.1,19.4,17.2
		c0.3,4.5-1.1,8.6-3.6,11.9L222.6,362.3z"/>
	<circle class="st5" cx="230.8" cy="345.2" r="3.6"/>
	<path class="st5" d="M432.4,286.5c37.9-2.3,70.6,26.5,72.9,64.5l-137.3,8.4C365.6,321.4,394.5,288.8,432.4,286.5z"/>
	<path class="st6" d="M445.7,354.6c-3.4-3.6-5.7-8.4-6.1-13.7c-0.7-12.2,8.5-22.7,20.7-23.4c12.2-0.7,22.7,8.5,23.4,20.7
		c0.3,5.4-1.4,10.4-4.3,14.4L445.7,354.6z"/>
	<circle class="st5" cx="455.6" cy="334" r="4.4"/>
	<path class="st5" d="M177.9,388.6l52.7,119.8l-54.1,12.2l-5.6-130.4C170.7,386.2,176.3,384.9,177.9,388.6z"/>
	<path class="st5" d="M411.5,410.4l19.1,68.5l-48.1-4.5l25.4-64.2C408.5,408.4,411,408.6,411.5,410.4z"/>
	<path class="st5" d="M501.4,402.8l21.5,77.3l-58.7-5.5l28.5-72.2C494.3,398.3,500.2,398.6,501.4,402.8z"/>
	<path class="st7" d="M230.7,508.4l-22.8-51.7c-12.3,3.3-21.3,5.7-33.7,9.7l2.3,54.3L230.7,508.4z"/>
	<path class="st7" d="M430.5,478.8l-12.9-46.4c-6.2-0.1-12.4-0.1-18.6-0.1l-16.6,42L430.5,478.8z"/>
	<path class="st7" d="M522.9,480.1l-11.1-40c-10.8-1.6-21.6-2.9-32.4-4l-15.2,38.5L522.9,480.1z"/>
	<path class="st8" d="M98.4,512.7l18.1,137.1c2.7,20.4,18.8,36.4,39.2,39l284.8,36c47.7,6,91.3-27.8,97.2-75.6l21.1-170.5
		c1.4-11.3-6.4-21.7-17.7-23.5c-137.8-22.3-282.4-10-428,34.6C103.2,492.7,97,502.5,98.4,512.7z"/>
	<path class="st6" d="M411,193.6c43.7-37.4,63.1-98.7,44.1-156.8c-3-9.1-6.8-17.7-11.3-25.8c39.5,15.3,72,47.6,86.2,91
		c18.7,57.2,0.2,117.6-42.2,155.1C456.8,244.7,429.6,222.8,411,193.6z"/>
	<path class="st9" d="M530,102c-14.2-43.4-46.7-75.7-86.2-91c3.4,6.1,6.4,12.4,8.9,19.1c31,17.3,55.8,45.8,67.7,82.2
		c16.4,50,4.3,102.5-27.4,140C531.7,214.6,548,156.9,530,102z"/>
	<path class="st6" d="M199.5,227.3c-35.6-18-58.6-56.2-55.3-98.4c0.5-6.6,1.7-13,3.4-19.2c-24.1,16.8-40.7,43.8-43.2,75.4
		c-3.2,41.6,19.1,79.3,53.8,97.6C177,269.1,191.7,249.9,199.5,227.3z"/>
	<path class="st9" d="M111.6,192.8c2.1-26.8,14.4-50.3,32.9-67.1c0.6-5.5,1.6-10.9,3.1-16c-24.1,16.8-40.7,43.8-43.2,75.4
		c-2.4,31.4,9.7,60.5,30.7,80.8C118.5,246.2,109.4,220.4,111.6,192.8z"/>
	<path class="st3" d="M349,299.8c-16.9-10-25.7-23.2-30.3-34.5c50.6,13.1,74.8-4.5,74.8-4.5c-22.2-5.5-36.1-17.7-44.5-28.7
		c32.2-5.1,44.4-20.2,44.4-20.2c-42.1,1.1-60.7-30.4-60.7-30.4c-7.8-10.9-17.8-18.8-31.4-22c-37,4.9-71,19.2-99.5,40.4
		C272.6,316.9,349,299.8,349,299.8z"/>
	<path class="st10" d="M329.1,170.7c0,0,18.6,31.4,60.7,30.4c0,0-12.1,15.1-44.4,20.2c8.4,11,22.2,23.2,44.5,28.7
		c0,0-24.2,17.6-74.8,4.5c4.6,11.3,13.4,24.5,30.3,34.5c0,0-60.1,21.2-141.8-89.7c0,0-14.8-22.8,37.4-42.8
		C288,138.5,313.2,148.4,329.1,170.7z"/>
</g>
</svg>
