<svg id="Layer_1" data-name="Layer 1" xmlns="http://www.w3.org/2000/svg" xmlns:xlink="http://www.w3.org/1999/xlink" viewBox="0 0 647.01 719.65"><defs><style>.cls-1{fill:#fff;}.cls-2{fill:#ffd800;}.cls-3{fill:#6e78ff;}.cls-4{fill:#5019f0;}.cls-5{fill:#003;}.cls-6{clip-path:url(#clip-path);}.cls-7{fill:#1b1625;}.cls-8{clip-path:url(#clip-path-2);}.cls-9{fill:url(#linear-gradient);}.cls-10{fill:#35355d;}</style><clipPath id="clip-path" transform="translate(-6.02 -11.18)"><path id="_Clipping_Path_" data-name="&lt;Clipping Path&gt;" class="cls-1" d="M134.92,334.47a59.63,59.63,0,1,1,119.26,0"/></clipPath><clipPath id="clip-path-2" transform="translate(-6.02 -11.18)"><path id="_Clipping_Path_2" data-name="&lt;Clipping Path&gt;" class="cls-1" d="M517.72,334.47a59.63,59.63,0,0,0-119.26,0"/></clipPath><linearGradient id="linear-gradient" x1="326.32" y1="196.19" x2="326.32" y2="444.16" gradientUnits="userSpaceOnUse"><stop offset="0" stop-color="#6e78ff"/><stop offset="1" stop-color="#60f"/></linearGradient></defs><title>hat-circle</title><circle class="cls-2" cx="321.6" cy="380.6" r="321.6"/><path class="cls-3" d="M413.65,426.48A290.92,290.92,0,0,1,653,700.34a23.11,23.11,0,1,1-46.18,2A244.46,244.46,0,0,0,352.17,468.5a23.11,23.11,0,0,1-2-46.18A293.59,293.59,0,0,1,413.65,426.48Z" transform="translate(-6.02 -11.18)"/><path class="cls-3" d="M231,415.06A290.92,290.92,0,0,0,16.43,708.74a23.11,23.11,0,1,0,46.17-2.06A244.45,244.45,0,0,1,295.91,451.57a23.11,23.11,0,0,0-2.06-46.18A293.65,293.65,0,0,0,231,415.06Z" transform="translate(-6.02 -11.18)"/><path class="cls-4" d="M327.61,713.37a320.2,320.2,0,0,0,190.63-62.58,224.58,224.58,0,0,0,21.39-95.11V544.89H113v10.79a224.36,224.36,0,0,0,20,92.16A320.19,320.19,0,0,0,327.61,713.37Z" transform="translate(-6.02 -11.18)"/><path class="cls-3" d="M539.63,216.16H113V554.62a413.42,413.42,0,0,0,426.62,0Z" transform="translate(-6.02 -11.18)"/><path class="cls-1" d="M234.72,471.2a91.6,91.6,0,0,0,183.19,0Z" transform="translate(-6.02 -11.18)"/><path class="cls-5" d="M326.32,500.25C435.2,533.79,595,500.19,595,419.42c-41.71,20.29-81.91-19.54-174.86-19.54-49.41,0-84.58,11.12-93.81,22-9.24-10.87-44.41-22-93.82-22-92.95,0-133.14,39.83-174.86,19.54C57.64,500.19,217.43,533.79,326.32,500.25Z" transform="translate(-6.02 -11.18)"/><path id="_Clipping_Path_3" data-name="&lt;Clipping Path&gt;" class="cls-1" d="M134.92,334.47a59.63,59.63,0,1,1,119.26,0" transform="translate(-6.02 -11.18)"/><g class="cls-6"><circle class="cls-7" cx="201.36" cy="311.08" r="19.17"/></g><path id="_Clipping_Path_4" data-name="&lt;Clipping Path&gt;" class="cls-1" d="M517.72,334.47a59.63,59.63,0,0,0-119.26,0" transform="translate(-6.02 -11.18)"/><g class="cls-8"><circle class="cls-7" cx="439.25" cy="311.08" r="19.17"/><circle class="cls-1" cx="444.46" cy="305.87" r="6.75"/></g><path class="cls-5" d="M281.73,261,106.32,276.31h0a35.53,35.53,0,0,1,32.29-38.47l140-12.25Z" transform="translate(-6.02 -11.18)"/><path class="cls-5" d="M546.31,300.65,370.91,285.3,374.5,250,514,262.17a35.52,35.52,0,0,1,32.28,38.48Z" transform="translate(-6.02 -11.18)"/><path class="cls-9" d="M326.32,444.16h0A76.55,76.55,0,0,1,251,381.51L216.82,196.19h219L401.6,381.51A76.57,76.57,0,0,1,326.32,444.16Z" transform="translate(-6.02 -11.18)"/><path class="cls-5" d="M171.84,16.59H503.24A47.61,47.61,0,0,1,550.85,64.2v69.52a0,0,0,0,1,0,0H124.23a0,0,0,0,1,0,0V64.2A47.61,47.61,0,0,1,171.84,16.59Z" transform="translate(-3.38 -22.18) rotate(1.87)"/><rect class="cls-10" x="121.4" y="130.25" width="426.62" height="62.34" transform="translate(-0.56 -22.04) rotate(1.87)"/><path class="cls-5" d="M78.95,189.15H587.51a26,26,0,0,1,26,26v0a9.51,9.51,0,0,1-9.51,9.51H62.43a9.51,9.51,0,0,1-9.51-9.51v0a26,26,0,0,1,26-26Z" transform="translate(0.93 -21.97) rotate(1.87)"/><circle class="cls-1" cx="206.27" cy="305.87" r="6.75"/></svg>