<svg xmlns="http://www.w3.org/2000/svg" xmlns:xlink="http://www.w3.org/1999/xlink" viewBox="0 0 658 736"><defs><style>.cls-1,.cls-15,.cls-24,.cls-4{fill:none;}.cls-2{isolation:isolate;}.cls-3{fill:#d5024e;}.cls-4{stroke:#1ed28c;stroke-width:45.48px;}.cls-15,.cls-4{stroke-linecap:round;}.cls-24,.cls-4{stroke-miterlimit:10;}.cls-5{fill:#003;}.cls-6{fill:#0cf;}.cls-7{fill:#71718d;}.cls-8{fill:#fff;}.cls-9{fill:#9f9e96;}.cls-10{fill:#ff7676;}.cls-11{fill:#609;}.cls-12{fill:#7e28a9;}.cls-13{fill:#dbd3c1;}.cls-14{fill:#3e3e3d;}.cls-15{stroke:#bab9b3;stroke-linejoin:round;stroke-width:5.11px;}.cls-16{fill:#ffad00;}.cls-17{fill:#fc0;}.cls-18{clip-path:url(#clip-path);}.cls-19{fill:#1ed28c;}.cls-20{fill:#292c38;}.cls-21{fill:#c1e0d1;mix-blend-mode:multiply;}.cls-22{clip-path:url(#clip-path-2);}.cls-23{fill:#434350;}.cls-24{stroke:#09f;stroke-width:13.64px;}.cls-25{fill:#64e0b0;}.cls-26{fill:#8ce8c4;}</style><clipPath id="clip-path"><circle class="cls-1" cx="362.46" cy="380.01" r="295.54"/></clipPath><clipPath id="clip-path-2"><ellipse class="cls-1" cx="667.69" cy="447.18" rx="178.69" ry="177.64"/></clipPath></defs><title>afro-cirlce</title><g class="cls-2"><g id="Layer_1" data-name="Layer 1"><circle class="cls-3" cx="362.46" cy="380.01" r="295.54"/><path class="cls-4" d="M206.81,191.92q11.61,18.69,24.62,36.46c24.35,33.16,53,63.79,87.74,85.78s76.19,34.89,117.16,31.11"/><path class="cls-4" d="M60.31,319S230.88,553.08,444.12,446.79"/><rect class="cls-5" x="61.07" y="255.25" width="98.75" height="179.3" rx="16.16" ry="16.16" transform="translate(235.41 4.99) rotate(37.94)"/><rect class="cls-6" x="75.7" y="286.79" width="70.03" height="115.52" transform="translate(235.25 4.75) rotate(37.94)"/><circle class="cls-7" cx="65.02" cy="403.16" r="6.11"/><rect class="cls-7" x="147.02" y="283.03" width="21.44" height="2.41" rx="1.17" ry="1.17" transform="translate(208.11 -36.91) rotate(37.94)"/><path class="cls-8" d="M106.84,364.28a9.19,9.19,0,1,1-2.59-12.73A9.19,9.19,0,0,1,106.84,364.28Zm14.66-52.14,12.37,8.19-21.58,32.59-12.37-8.19Z"/><path class="cls-4" d="M75.39,620.88s71.27-85,215-67.48S471.2,525.91,471.2,525.91"/><rect class="cls-9" x="49.56" y="522.4" width="40.7" height="49.93" transform="translate(379.05 1004.47) rotate(153.21)"/><path class="cls-10" d="M32.26,499.7H73a0,0,0,0,1,0,0v7.11a19.72,19.72,0,0,1-19.72,19.72H52a19.72,19.72,0,0,1-19.72-19.72V499.7a0,0,0,0,1,0,0Z" transform="translate(330.87 947.43) rotate(153.21)"/><rect class="cls-11" x="96.69" y="563.82" width="18.01" height="108.82" transform="translate(478.7 1122.45) rotate(153.21)"/><rect class="cls-12" x="86.92" y="570.43" width="11.35" height="108.82" transform="translate(456.89 1140.87) rotate(153.21)"/><rect class="cls-12" x="113.12" y="557.2" width="11.35" height="108.82" transform="translate(500.52 1104.02) rotate(153.21)"/><polygon class="cls-13" points="112.05 675.97 148.38 657.62 162.46 730.64 112.05 675.97"/><polygon class="cls-14" points="162.46 730.64 157.52 705.02 149.1 716.16 162.46 730.64"/><line class="cls-15" x1="88.98" y1="554.52" x2="64.35" y2="566.96"/><line class="cls-15" x1="84.48" y1="545.61" x2="59.85" y2="558.05"/><line class="cls-15" x1="79.98" y1="536.69" x2="55.35" y2="549.13"/><line class="cls-15" x1="75.48" y1="527.78" x2="50.85" y2="540.22"/><path class="cls-16" d="M212.64,213.46A60,60,0,0,1,143.85,164l-3.73-22.86,118.26-19.32,3.73,22.86A60,60,0,0,1,212.64,213.46Zm-53.32-58.53,1,6.36a43.2,43.2,0,1,0,85.26-13.93l-1-6.36Z"/><path class="cls-17" d="M.11,102A18.25,18.25,0,1,0,20.2,85.82,18.25,18.25,0,0,0,.11,102Z"/><polygon class="cls-17" points="43.6 20.45 34.54 105.14 25.48 189.83 285.99 146.51 289.88 114.01 43.6 20.45"/><rect class="cls-16" x="-64.91" y="96.33" width="183.34" height="17.11" rx="5.37" ry="5.37" transform="translate(-80.37 120.33) rotate(-83.89)"/><g class="cls-18"><path class="cls-19" d="M1000.71,862.72c-.17-13.06-1.82-59.86-16-116.16a441.52,441.52,0,0,0-33.84-92c-24.29-48-38.35-100.74-36.74-154.47.09-3,.1-15.07,0-18a350.45,350.45,0,0,1,15.24-113.3,273.12,273.12,0,0,0,12.06-80.47C941.47,132.92,812,7.75,655,14.86c-139.62,6.32-253.21,119-260.65,258.56a273.89,273.89,0,0,0,12.55,98.23c11.4,35.62,15.43,73.05,14.35,110.43-.08,3-.08,15,0,18.05,1.61,53.73-12.45,106.51-36.74,154.47a441,441,0,0,0-33.84,92c-14.15,56.3-15.8,103.1-16,116.16H501.89c.57-28.78,8.36-90.72,35.26-139.49,37.87,26.28,82.59,41.53,130.54,41.53s92.67-15.25,130.54-41.53c26.9,48.77,34.69,110.71,35.26,139.49Z"/><circle class="cls-20" cx="472.63" cy="225.65" r="25.08"/><circle class="cls-8" cx="477.37" cy="220.91" r="8.36"/><path class="cls-21" d="M667.69,694.81c-69.77,0-133.23-25.13-180.68-66.19,40.76,61.67,106.49,101.74,180.68,101.74s139.92-40.07,180.68-101.74C800.92,669.68,737.46,694.81,667.69,694.81Z"/><g class="cls-22"><ellipse class="cls-20" cx="667.69" cy="447.18" rx="178.69" ry="177.64"/><path class="cls-23" d="M692.31,428.09a126.94,126.94,0,0,0-20.26,5.5,125.87,125.87,0,0,1,56.65,99.13,125.85,125.85,0,1,0-46.31,140.83,125.9,125.9,0,1,0,9.92-245.46Z"/><path class="cls-8" d="M620.11,551.69h1.7a26.38,26.38,0,0,1,26.38,26.38v52.24a0,0,0,0,1,0,0H593.73a0,0,0,0,1,0,0V578.07A26.38,26.38,0,0,1,620.11,551.69Z" transform="translate(213.02 -162.96) rotate(18)"/><path class="cls-8" d="M594.82,264.18h50.53a0,0,0,0,1,0,0v48.47a24.48,24.48,0,0,1-24.48,24.48H619.3a24.48,24.48,0,0,1-24.48-24.48V264.18a0,0,0,0,1,0,0Z" transform="translate(-62.56 206.33) rotate(-18)"/><path class="cls-8" d="M537.41,511.06h1.31a20.34,20.34,0,0,1,20.34,20.34v40.27a0,0,0,0,1,0,0h-42a0,0,0,0,1,0,0V531.39A20.34,20.34,0,0,1,537.41,511.06Z" transform="translate(659.77 -212.14) rotate(54)"/><path class="cls-8" d="M517.07,322.69h42a0,0,0,0,1,0,0V363a20.34,20.34,0,0,1-20.34,20.34h-1.31A20.34,20.34,0,0,1,517.07,363V322.69A0,0,0,0,1,517.07,322.69Z" transform="translate(-63.78 580.81) rotate(-54)"/></g><ellipse class="cls-24" cx="667.69" cy="447.18" rx="178.69" ry="177.64"/><circle class="cls-25" cx="555.64" cy="108.37" r="21.94"/><path class="cls-26" d="M555.64,95.88a23.66,23.66,0,0,1,17.1,7.29,17.87,17.87,0,0,0-34.2,0A23.66,23.66,0,0,1,555.64,95.88Z"/><circle class="cls-25" cx="455.89" cy="327.3" r="13.45"/><path class="cls-26" d="M455.89,319.64a14.51,14.51,0,0,1,10.48,4.47,11,11,0,0,0-21,0A14.49,14.49,0,0,1,455.89,319.64Z"/><circle class="cls-25" cx="402.85" cy="732.06" r="13.45"/><path class="cls-26" d="M402.85,724.4a14.51,14.51,0,0,1,10.48,4.47,11,11,0,0,0-21,0A14.49,14.49,0,0,1,402.85,724.4Z"/><circle class="cls-25" cx="464.62" cy="566.15" r="11.21"/><path class="cls-26" d="M464.62,559.77a12.08,12.08,0,0,1,8.73,3.72,9.12,9.12,0,0,0-17.46,0A12.08,12.08,0,0,1,464.62,559.77Z"/><circle class="cls-25" cx="633.43" cy="191.92" r="16.25"/><path class="cls-26" d="M633.43,182.67a17.52,17.52,0,0,1,12.66,5.39,13.23,13.23,0,0,0-25.32,0A17.52,17.52,0,0,1,633.43,182.67Z"/></g></g></g></svg>