<svg id="Layer_1" data-name="Layer 1" xmlns="http://www.w3.org/2000/svg" xmlns:xlink="http://www.w3.org/1999/xlink" viewBox="0 0 643.19 721.6"><defs><style>.cls-1{fill:none;}.cls-2{fill:#ffb400;}.cls-3{fill:#609;}.cls-4{fill:#0cf;}.cls-5{fill:#fff;}.cls-6{clip-path:url(#clip-path);}.cls-7{fill:#292c38;}.cls-8{clip-path:url(#clip-path-2);}.cls-9{fill:#812dab;}</style><clipPath id="clip-path" transform="translate(-8.4 -3.4)"><path class="cls-1" d="M272.43,240.44a63.35,63.35,0,1,1-126.69,0"/></clipPath><clipPath id="clip-path-2" transform="translate(-8.4 -3.4)"><path class="cls-1" d="M514.26,240.44a63.35,63.35,0,1,1-126.69,0"/></clipPath></defs><title>hipster-circle</title><circle class="cls-2" cx="321.6" cy="321.6" r="321.6"/><circle class="cls-3" cx="121.12" cy="326.52" r="66.83"/><circle class="cls-3" cx="522.08" cy="326.52" r="66.83"/><path class="cls-4" d="M330,51.07h0c-123.76,0-224.09,100.33-224.09,224.09V543H554.09V275.16C554.09,151.4,453.76,51.07,330,51.07Z" transform="translate(-8.4 -3.4)"/><path class="cls-5" d="M272.43,240.44a63.35,63.35,0,1,1-126.69,0" transform="translate(-8.4 -3.4)"/><g class="cls-6"><path class="cls-7" d="M253.43,253.41a20.36,20.36,0,1,1-20.36-20.36A20.36,20.36,0,0,1,253.43,253.41Z" transform="translate(-8.4 -3.4)"/></g><path class="cls-5" d="M514.26,240.44a63.35,63.35,0,1,1-126.69,0" transform="translate(-8.4 -3.4)"/><g class="cls-8"><path class="cls-7" d="M495.25,253.41a20.36,20.36,0,1,1-20.36-20.36A20.35,20.35,0,0,1,495.25,253.41Z" transform="translate(-8.4 -3.4)"/></g><circle class="cls-3" cx="330" cy="632.01" r="92.99" transform="translate(-355.11 853.11) rotate(-80.78)"/><path class="cls-3" d="M419.1,524.52A93,93,0,0,1,330,458a93,93,0,0,1-89.1,66.48c-1.25,0-2.46-.14-3.7-.19a92.87,92.87,0,0,0,185.6,0C421.57,524.38,420.35,524.52,419.1,524.52Z" transform="translate(-8.4 -3.4)"/><circle class="cls-3" cx="240.9" cy="609.73" r="92.99" transform="translate(-423.01 595.56) rotate(-67.5)"/><circle class="cls-3" cx="419.1" cy="609.73" r="92.99" transform="translate(-237.37 963.31) rotate(-84.35)"/><circle class="cls-3" cx="165.67" cy="539.5" r="92.99"/><circle class="cls-3" cx="121.12" cy="428.13" r="92.99"/><circle class="cls-3" cx="485.93" cy="542.91" r="92.99" transform="translate(-210.01 780.68) rotate(-67.5)"/><circle class="cls-3" cx="530.48" cy="431.53" r="92.99" transform="translate(11.14 882.63) rotate(-80.78)"/><path class="cls-3" d="M441.38,374.24a4.61,4.61,0,0,0-2.62-4.05,4.7,4.7,0,0,0-4.82.43c-13,9.5-26.86,5.88-33.94-2.15-8.25-9.32-18.91-29.08-44.26-27.65-15.09.88-22.16,7.45-25.74,15.26-3.58-7.81-10.64-14.41-25.72-15.26-25.38-1.43-36,18.33-44.28,27.65-7.08,8-21,11.65-33.95,2.15a4.68,4.68,0,0,0-7.43,3.62c-.17,9.08,2.35,22.76,17,31.86,23.57,14.61,59.51,18.2,82.71-2.26A78.29,78.29,0,0,0,330,387.2a78.38,78.38,0,0,0,11.69,16.64c23.2,20.46,59.14,16.87,82.69,2.26C439.05,397,441.57,383.32,441.38,374.24Z" transform="translate(-8.4 -3.4)"/><path class="cls-9" d="M52.18,447.18a93,93,0,0,1,115.14-90.31A83.68,83.68,0,0,0,54.86,469.33,92.91,92.91,0,0,1,52.18,447.18Z" transform="translate(-8.4 -3.4)"/><path class="cls-9" d="M514.83,354.19a93,93,0,0,1,90.31,115.14A83.68,83.68,0,0,0,492.68,356.87,92.91,92.91,0,0,1,514.83,354.19Z" transform="translate(-8.4 -3.4)"/><path class="cls-9" d="M130.45,608.66A93,93,0,0,1,148,463.39a83.68,83.68,0,0,0,0,159A93.24,93.24,0,0,1,130.45,608.66Z" transform="translate(-8.4 -3.4)"/><path class="cls-9" d="M470.28,465.57A93,93,0,0,1,560.59,580.7,83.69,83.69,0,0,0,448.13,468.24,93.42,93.42,0,0,1,470.28,465.57Z" transform="translate(-8.4 -3.4)"/><path class="cls-9" d="M493.77,571.94a93,93,0,0,1-90.32,115.13,92.36,92.36,0,0,1-16.14-1.43c-.41.33-.82.66-1.24,1a83.68,83.68,0,0,0,107.7-114.68Z" transform="translate(-8.4 -3.4)"/><path class="cls-9" d="M161.6,596a93.31,93.31,0,0,1,1.7-17.65,83.69,83.69,0,0,0,108.94,109A94.14,94.14,0,0,1,254.59,689,93,93,0,0,1,161.6,596Z" transform="translate(-8.4 -3.4)"/><path class="cls-9" d="M330,705.44a92.9,92.9,0,0,1-77.28-41.26,83.72,83.72,0,0,0,154.56,0A92.9,92.9,0,0,1,330,705.44Z" transform="translate(-8.4 -3.4)"/><path class="cls-9" d="M330,558.58a92.9,92.9,0,0,1,77.28,41.26,83.72,83.72,0,0,0-154.56,0A92.9,92.9,0,0,1,330,558.58Z" transform="translate(-8.4 -3.4)"/></svg>