<?xml version="1.0" encoding="utf-8"?>
<!-- Generator: Adobe Illustrator 16.0.0, SVG Export Plug-In . SVG Version: 6.00 Build 0)  -->
<!DOCTYPE svg PUBLIC "-//W3C//DTD SVG 1.1//EN" "http://www.w3.org/Graphics/SVG/1.1/DTD/svg11.dtd">
<svg version="1.1" id="Layer_1" xmlns="http://www.w3.org/2000/svg" xmlns:xlink="http://www.w3.org/1999/xlink" x="0px" y="0px"
	 width="500px" height="500px" viewBox="0 0 500 500" enable-background="new 0 0 500 500" xml:space="preserve">
<g>
	<path opacity="0.32" fill="#3E3E3E" d="M447.859,436.26c0-17.823-85.587-32.311-191.185-32.311
		c-105.4,0-190.902,14.487-190.902,32.311c0,5.949,9.189,11.487,25.243,16.198c-5.172,3.85-8.019,8.323-8.019,12.729
		c0,18.021,44.272,32.509,98.854,32.509c51.373,0,93.443-12.723,98.459-29.27C374.765,466.5,447.859,452.91,447.859,436.26z"/>
	<g>
		<g>
			<path fill="#DE4B72" d="M56.398,238.177C3.211,283.463-4.533,354.603,45.834,343.538c29.703-6.489,77.523-74.61,92.105-113.778
				C152.424,190.492,109.548,192.792,56.398,238.177z"/>
			<path fill="#C83559" d="M72.064,327.269c26.31-23.933,55.167-68.613,65.876-97.509c9.549-25.816-5.782-33.684-32.53-23.05
				c0,18.269-0.655,58.604-6.088,72.933C94.492,292.164,80.698,314.119,72.064,327.269z"/>
			<path fill="#DE4B72" d="M338.863,430.208c-50.043-12.095-122.181-12.728-174.054,2.716
				c-19.648,6.838-84.593,20.943-78.045-39.646c19.124-99.243,30.791-193.759,25.112-277.116c0-19.733,16.101-35.847,35.846-35.847
				l200.6-22.65c19.646,0,35.847,16.102,35.847,35.845c-6.94,87.895,8.26,191.645,28.558,299.767
				C421.837,451.134,361.282,436.15,338.863,430.208z"/>
			<path fill="#F16E96" d="M127.537,104.033c13.542-15.346,79.658-22.525,92.69-27.936c2.13-0.914,4.457-2.573,6.913-4.708
				l-79.417,8.926c-19.745,0-35.846,16.113-35.846,35.847c1.208,17.979,1.648,36.558,1.384,55.501
				C116.119,142.725,120.75,111.726,127.537,104.033z"/>
			<path fill="#C83559" d="M383.187,109.668c0,0-9.197,41.05-8.293,56.605c0.904,15.574,5.584,130.491,6.433,163.821
				c0.652,33.519,15.345,45.443-21.016,62.315c-36.557,16.872-191.262,39.938-215.533,32.96c-15.879-4.605-38.479,2.32-56.646-10.12
				c10.065,34.541,59.874,23.37,76.678,17.675c51.873-15.443,124.011-14.811,174.054-2.716c22.419,5.942,82.974,20.926,73.863-36.93
				c-19.176-101.568-33.638-199.268-29.538-283.61H383.187z"/>
			<path fill="#DE4B72" d="M444.662,238.177c53.129,45.286,60.8,116.426,10.407,105.361c-29.526-6.489-77.445-74.61-91.929-113.778
				C348.652,190.492,391.534,192.792,444.662,238.177z"/>
			<path fill="#C83559" d="M485.693,297.744c-2.364,12.541-8.324,23.439-20.38,26.206c-20.921,4.726-62.984-26.549-63.006-26.564
				c17.751,23.376,37.711,42.867,52.762,46.152C485.385,350.111,494.66,327.102,485.693,297.744z"/>
		</g>
		<g>
			<path fill="#C83559" d="M200.929,171.547c0,4.93-2.91,8.924-6.611,8.924c-3.704,0-6.709-3.995-6.709-8.924
				c0-5.029,3.005-9.023,6.709-9.023C198.019,162.524,200.929,166.518,200.929,171.547z"/>
			<path fill="#C83559" d="M283.069,164.683c0,5.047-3.104,9.066-6.61,9.066c-3.705,0-6.81-4.02-6.81-9.066
				c0-4.97,3.104-8.988,6.81-8.988C279.965,155.694,283.069,159.713,283.069,164.683z"/>
			<path fill="#3E3E3E" d="M200.929,170.857c0,3.704-2.91,6.611-6.611,6.611c-3.704,0-6.709-2.907-6.709-6.611
				c0-3.704,3.005-6.71,6.709-6.71C198.019,164.147,200.929,167.153,200.929,170.857z"/>
			<path fill="#3E3E3E" d="M283.069,164.147c0,3.704-3.104,6.71-6.61,6.71c-3.705,0-6.81-3.007-6.81-6.71
				c0-3.705,3.104-6.71,6.81-6.71C279.965,157.437,283.069,160.442,283.069,164.147z"/>
		</g>
		<g>
			<path fill="#C83559" d="M373.374,99.863c-10.61,10.254-27.948,9.497-38.994-1.809c-10.848-11.223-11.238-28.666-0.628-38.921
				c10.412-10.253,27.943-9.399,38.795,1.816C383.586,72.166,383.785,89.61,373.374,99.863z"/>
			<path fill="#CBDB2A" d="M375.891,96.884c2.714-2.343,5.423-4.742,7.924-7.302c31.554-30.684,57.308-73.58,46.459-84.796
				c-11.045-11.292-54.525,13.404-86.08,44.066c-2.501,2.56-5.138,5.133-7.515,7.71C314.365,82.346,350.703,119.835,375.891,96.884z
				"/>
			<path fill="#9FAD39" d="M417.339,49.051c-8.17-3.86-16.432-9.071-24.211-15.745c-4.771-4.197-9.054-8.681-13.03-13.363
				c-2.045,1.42-4.295,2.898-6.55,4.467c3.116,3.377,6.387,6.607,9.821,9.735c10.054,8.54,20.824,14.745,31.549,18.628
				C415.803,51.478,416.674,50.255,417.339,49.051z"/>
			<path fill="#9FAD39" d="M336.191,57.227c-2.724,3.253-4.529,6.662-5.492,10.085c7.97,13.537,21.344,25.987,38.107,34.413
				c2.396-1.15,4.768-2.748,7.084-4.841c0.004-0.005,0.006-0.01,0.009-0.014C357.529,87.231,343.275,72.642,336.191,57.227z"/>
			<path fill="#9FAD39" d="M429.768,25.884c-8.863-4.331-17.64-10.427-25.59-18.123c-0.348-0.275-0.487-0.528-0.833-0.78
				c-1.955,0.892-4.145,1.878-6.166,2.979c2.281,2.622,4.655,5.193,7.126,7.69c6.906,6.588,14.328,12.05,21.851,16.174
				C427.538,31.112,428.813,28.407,429.768,25.884z"/>
			<path fill="#9FAD39" d="M358.013,50.946c9.042,13.716,20.703,24.409,33.1,31.268c2.248-2.345,4.297-4.708,6.501-7.089
				c-13.906-6.738-27.349-18.327-37.61-33.654c-0.958-1.45-1.881-2.889-2.787-4.402c-1.559,1.468-3.306,2.899-4.857,4.333
				C353.941,44.634,355.813,47.782,358.013,50.946z"/>
			<path opacity="0.32" fill="#3E3E3E" d="M376.269,82.425c-21.871,13.277-35.962-0.546-46.133-12.284
				c-3.781,23.009,24.778,45.807,45.755,26.743c2.714-2.343,5.423-4.742,7.924-7.302c19.832-19.215,37.211-43.19,44.977-61.204
				C414.481,46.147,391.573,73.159,376.269,82.425z"/>
		</g>
		<g>
			<path fill="#C83559" d="M112.598,124.317c8.893,8.563,22.785,8.794,30.929,0.493c8.141-8.203,7.482-21.835-1.495-30.322
				c-8.907-8.563-22.701-8.792-30.845-0.494C103.042,102.198,103.705,115.762,112.598,124.317z"/>
			<path fill="#CBDB2A" d="M110.303,121.925c-2.176-2.017-4.451-4.077-6.706-6.196C76.971,90.3,54.148,55.552,62.292,47.251
				c8.145-8.203,44.188,13.22,70.808,38.65c2.266,2.113,4.393,4.249,6.465,6.453C158.571,113.54,131.622,141.025,110.303,121.925z"
				/>
			<path fill="#9FAD39" d="M74.846,82.44c6.37-2.572,12.646-6.262,18.439-11.024c3.682-3.035,6.926-6.383,9.723-9.809
				c1.748,1.202,3.576,2.444,5.421,3.789c-2.171,2.515-4.662,4.874-7.292,7.071c-7.452,6.217-15.783,10.585-24.149,12.996
				C76.264,84.482,75.548,83.505,74.846,82.44z"/>
			<path fill="#9FAD39" d="M139.919,92.854c2.304,2.622,3.907,5.392,4.858,8.159c-5.634,10.207-15.61,19.166-28.479,24.958
				c-2.044-0.976-3.989-2.347-5.995-4.046c-0.002-0.01-0.005-0.071-0.007-0.08C124.53,115.214,135.017,104.536,139.919,92.854z"/>
			<path fill="#9FAD39" d="M63.786,63.79c6.88-2.992,13.472-7.268,19.462-12.87c0.211-0.205,0.341-0.413,0.528-0.601
				c1.663,0.832,3.419,1.667,5.131,2.676c-1.651,1.913-3.369,3.792-5.36,5.626c-5.107,4.849-10.726,8.651-16.542,11.596
				C65.794,67.957,64.693,65.84,63.786,63.79z"/>
			<path fill="#9FAD39" d="M122.329,86.85c-6.667,10.246-15.359,18.077-24.83,22.818c-1.873-1.906-3.729-3.916-5.539-5.867
				c10.682-4.609,20.825-12.973,28.144-24.421c0.701-1.102,1.374-2.151,2.033-3.282c1.405,1.177,2.802,2.365,4.192,3.581
				C125.153,82.142,123.794,84.51,122.329,86.85z"/>
			<path opacity="0.32" fill="#3E3E3E" d="M109.333,110.575c18.127,11.426,28.663,1.337,36.116-7.307
				c4.218,18.102-17.441,34.531-35.146,18.657c-2.176-2.017-4.451-4.077-6.706-6.196C86.965,99.839,71.805,80.268,64.716,65.825
				C76.982,80.354,96.723,102.619,109.333,110.575z"/>
		</g>
		<g>
			<g>
				<path fill="#C83559" d="M302.535,427.294c-32.947-7.932-80.522-8.414-114.709,1.794c-13.011,4.336-55.807,13.649-51.454-26.075
					c12.598-65.211,20.288-127.43,16.532-182.073c0-12.987,10.663-23.532,23.574-23.532L308.729,182.5
					c13.011,0,23.674,10.544,23.674,23.532c-4.597,57.774,5.279,125.834,18.78,196.98
					C357.151,440.93,317.181,431.09,302.535,427.294z"/>
				<path fill="#B22C53" d="M305.784,430.569c-32.5-7.93-79.528-8.413-113.268,1.796c-12.817,4.335-55.019,13.647-50.78-26.076
					c12.505-65.212,20.04-127.43,16.312-182.073c0-12.987,10.486-23.532,23.302-23.532l130.589-14.907
					c12.718,0,23.304,10.545,23.304,23.532c-4.563,57.774,5.239,125.834,18.642,196.98
					C359.612,444.207,320.328,434.367,305.784,430.569z"/>
				<path fill="#3E3E3E" d="M294.842,356.631c0,23.585-18.854,42.633-42.44,42.633c-23.386,0-42.438-19.048-42.438-42.633
					c0-23.387,19.051-42.438,42.438-42.438C275.988,314.192,294.842,333.244,294.842,356.631z"/>
				<path opacity="0.32" fill="#3E3E3E" d="M192.517,432.365c33.739-10.209,80.768-9.726,113.268-1.796
					c14.544,3.798,53.828,13.638,48.101-24.28c-8.298-44.057-15.225-86.669-18.143-126.646c-2.699,22.441-0.453,52.2-9.799,55.952
					c-27.459,11.104-99.257,28.766-105.717,25.653c-6.746-3.197-42.676-11.765-52.573-6.739c-6.11,2.994-8.895-31.008-11.292-47.279
					c-2.974,31.71-8.115,65.036-14.625,99.06C137.498,446.013,179.7,436.7,192.517,432.365z"/>
				<polygon fill="#FFFFFF" points="181.35,200.684 194.318,225.43 200.929,217.959 288.559,215.415 298.382,230.285 
					310.005,186.007 				"/>
				<path fill="#D5EFF9" d="M182.943,203.699c20.471-2.095,100.242-9.104,125.309-11.354l1.753-6.339L181.35,200.684
					L182.943,203.699z"/>
				<polygon fill="#D5EFF9" points="196.673,222.811 200.929,211.87 208.354,217.737 200.929,217.959 				"/>
				<polygon fill="#D5EFF9" points="256.167,216.348 290.183,213.237 296.191,227.089 288.559,215.415 				"/>
				<path fill="#D5EFF9" d="M304.518,206.591c0.009-0.031,5.487-20.584,5.487-20.584l-6.021,0.69
					C303.984,186.697,304.51,206.72,304.518,206.591z"/>
			</g>
			<g>
				<path fill="#F0BB82" d="M347.396,370.079c0,0-21.823-19.739-52.745-19.739c-31.119,0-59.776,19.739-59.776,19.739
					s-41.849-21.468-69.231-9.868c-27.475,11.6-72.35,69.997-56.51,96.39c15.839,26.194,75.616,25.093,110.181,15.461
					c34.565-9.479,75.335-16.742,89.515-14.378c14.379,2.364,51.542-0.455,51.479-36.757
					C360.285,411.146,356.219,376.564,347.396,370.079z"/>
				<path fill="#E0914C" d="M360.311,420.927c-0.023-8.918-3.529-38.761-10.721-48.603c1.588,15.982,3.818,43.481-0.271,54.067
					c-5.723,15.29-43.897,0.577-54.477,1.883c-10.382,1.306-86.075,36.242-117.92,37.597c-20.516,0.711-48.486-5.355-69.471-12.996
					c0.47,1.307,0.981,2.457,1.685,3.726c15.839,26.194,75.616,25.093,110.181,15.461c34.565-9.479,75.335-16.742,89.515-14.378
					C323.21,460.048,360.373,457.229,360.311,420.927z"/>
				<path fill="#C6773C" d="M350.229,442.59c-9.026,10.778-26.747,10.28-33.567,9.825c-6.636-0.455-30.836-2.32-41.114,0.107
					c-8.688,2.187-61.185,18.564-78.638,24.081c8.113-1.213,15.684-2.687,22.406-4.542c34.565-9.479,75.335-16.742,89.515-14.378
					c14.379,2.364,51.542-0.455,51.479-36.757c-0.01-3.984-0.821-12.689-2.28-21.654
					C358.036,399.382,359.438,431.637,350.229,442.59z"/>
				<path fill="#E0914C" d="M223.225,364.989c-4.37,5.404-10.455,13.866-13.261,22.824c-4.626,14.833-4.385,31.487-4.385,31.487
					s0-10.02,7.644-22.119c7.645-11.919,21.653-27.103,21.653-27.103S230.269,367.742,223.225,364.989z"/>
				<path fill="#F8CFAB" d="M196.909,357.845c-10.649-1.739-21.844-1.714-31.264,2.366c-18.096,7.537-43.651,35.436-54.488,61.086
					c12.21-17.167,29.845-40.024,42.019-48.973C173.816,357.056,196.885,357.845,196.909,357.845z"/>
			</g>
		</g>
	</g>
</g>
</svg>
