<?xml version="1.0" encoding="utf-8"?>
<!-- Generator: Adobe Illustrator 16.0.0, SVG Export Plug-In . SVG Version: 6.00 Build 0)  -->
<!DOCTYPE svg PUBLIC "-//W3C//DTD SVG 1.1//EN" "http://www.w3.org/Graphics/SVG/1.1/DTD/svg11.dtd">
<svg version="1.1" id="Layer_1" xmlns="http://www.w3.org/2000/svg" xmlns:xlink="http://www.w3.org/1999/xlink" x="0px" y="0px"
	 width="500px" height="500px" viewBox="0 0 500 500" enable-background="new 0 0 500 500" xml:space="preserve">
<g>
	<path opacity="0.32" fill="#3E3E3E" d="M335.5,482.635c0,6.821-33.382,12.365-74.563,12.365c-41.182,0-74.568-5.544-74.568-12.365
		c0-6.834,33.387-12.365,74.568-12.365C302.118,470.27,335.5,475.801,335.5,482.635z"/>
	<g>
		<path fill="#17A2BE" d="M130.382,437.504c0,0,9.555-5.132,14.236-4.089c4.678,1.035,10.917,6.239,19.756,9.354
			c8.837,3.125,12.218,13.255,22.879,10.142c10.656-3.125,27.552-9.884,43.932-6.762c16.375,3.115,22.488,9.496,32.43,7.353
			c9.941-2.154,17.742-12.549,34.899-14.367c17.156-1.823,16.633,2.339,21.843,3.112c5.198,0.78,21.833-13.254,30.666-15.856
			c8.844-2.596,30.676-1.298,30.676-1.298l-30.155-14.297l-17.675-41.205l-20.31-15.993l-7.765-45.574l-80.067,0.867l-18.545,35.354
			l-27.991,31.974l-15.078,12.999l-24.696,41.338L130.382,437.504z"/>
		<path fill="#238498" d="M351.544,410.795l-17.675-41.205l-20.31-15.993l-7.765-45.574l-80.067,0.867l-18.545,35.354
			l-27.991,31.974l-15.078,12.999l-24.696,41.338l-9.035,6.95c0,0,9.555-5.132,14.236-4.089c4.678,1.035,10.917,6.239,19.756,9.354
			c5.183,1.826,8.495,6.054,12.487,8.623c-0.821-10.639-2.178-31.927-0.593-39.035c2.146-9.619,27.974-25.064,30.914-31.384
			c2.947-6.317,14.97-57.011,14.97-57.011s66.385-1.553,72.542,8.572c6.158,10.146,3.299,25.229,9.539,31.723
			c6.239,6.507,30.677,36.398,35.353,49.655c1.982,5.613,3.35,11.207,4.274,15.808c2.65-1.505,5.126-2.728,7.163-3.33
			c8.844-2.596,30.676-1.298,30.676-1.298L351.544,410.795z"/>
		<path fill="#41C3D8" d="M213.678,316.435c0,0-18.562,38.402-41.181,49.321c-22.615,10.915-41.333,60.833-42.115,71.748
			c0,0,7.805-3.114,13.261,3.9c5.459,7.017,5.459,7.017,5.459,7.017s13.366-41.979,27.167-53.228
			c24.24-19.752,30.525-25.216,33.727-36.133c3.206-10.917,12.157-40.485,12.157-40.485L213.678,316.435z"/>
		<path fill="#41C3D8" d="M310.217,311.747c0,0,3.637,25.214,9.1,34.835c5.452,9.619,22.099,18.718,27.552,29.112
			c5.463,10.407,4.155,25.225,8.844,29.902c4.676,4.676,25.987,19.495,25.987,19.495s-27.028,2.859-29.368,7.28
			c-2.338,4.421-3.379,5.719-3.379,5.719s-5.465-23.141-8.844-29.114c-3.381-5.984-5.719-23.396-9.62-31.462
			c-3.895-8.06-20.536-15.074-21.833-25.471c-1.298-10.411-4.422-38.479-4.422-38.479L310.217,311.747z"/>
		<polygon fill="#238498" points="219.078,277.824 307.479,277.824 317.232,283.676 314.693,292.336 238.075,294.203 
			213.703,289.129 209.996,286.013 209.996,281.302 		"/>
		<path fill="#238498" d="M288.387,369.814c0,16.628-12.737,30.11-28.449,30.11c-15.718,0-28.455-13.482-28.455-30.11
			c0-16.637,12.736-30.117,28.455-30.117C275.649,339.697,288.387,353.178,288.387,369.814z"/>
		<path fill="#F89943" d="M288.387,360.595c0,15.712-12.737,28.446-28.449,28.446c-15.718,0-28.455-12.734-28.455-28.446
			c0-15.716,12.736-28.46,28.455-28.46C275.649,332.135,288.387,344.879,288.387,360.595z"/>
		<path fill="#DD772A" d="M278.936,339.415c2.908,4.466,4.62,9.791,4.62,15.512c0,15.714-12.759,28.449-28.471,28.449
			c-7.298,0-13.966-2.754-19.004-7.286c5.078,7.799,13.864,12.951,23.857,12.951c15.712,0,28.449-12.734,28.449-28.446
			C288.387,352.176,284.738,344.623,278.936,339.415z"/>
		<path fill="#3E3E3E" d="M265.752,366.407c0,3.208-2.607,5.813-5.814,5.813c-3.208,0-5.815-2.604-5.815-5.813
			c0-3.22,2.607-5.813,5.815-5.813C263.145,360.595,265.752,363.188,265.752,366.407z"/>
		<path fill="#238498" d="M232.62,410.399c0,10.214-7.831,18.507-17.493,18.507s-17.491-8.293-17.491-18.507
			c0-10.226,7.829-18.514,17.491-18.514S232.62,400.174,232.62,410.399z"/>
		<path fill="#F89943" d="M232.62,406.205c0,9.665-7.831,17.499-17.493,17.499s-17.491-7.834-17.491-17.499
			c0-9.648,7.829-17.484,17.491-17.484S232.62,396.557,232.62,406.205z"/>
		<path fill="#DD772A" d="M226.808,393.198c1.788,2.738,2.828,6.011,2.828,9.531c0,9.662-7.831,17.487-17.49,17.487
			c-4.491,0-8.585-1.689-11.682-4.469c3.12,4.791,8.522,7.956,14.664,7.956c9.663,0,17.493-7.834,17.493-17.499
			C232.62,401.039,230.373,396.398,226.808,393.198z"/>
		<circle fill="#3E3E3E" cx="215.127" cy="409.785" r="3.573"/>
		<path fill="#238498" d="M321.729,404.392c0,10.228-7.834,18.518-17.496,18.518c-9.657,0-17.488-8.29-17.488-18.518
			c0-10.215,7.831-18.505,17.488-18.505C313.896,385.887,321.729,394.177,321.729,404.392z"/>
		<path fill="#F89943" d="M321.729,398.905c0,9.662-7.834,17.487-17.496,17.487c-9.657,0-17.488-7.825-17.488-17.487
			s7.831-17.496,17.488-17.496C313.896,381.409,321.729,389.243,321.729,398.905z"/>
		<path fill="#DD772A" d="M315.917,385.887c1.784,2.738,2.828,6.012,2.828,9.531c0,9.662-7.835,17.484-17.494,17.484
			c-4.487,0-8.587-1.687-11.679-4.466c3.117,4.789,8.52,7.956,14.661,7.956c9.662,0,17.496-7.825,17.496-17.487
			C321.729,393.738,319.479,389.087,315.917,385.887z"/>
		<path fill="#3E3E3E" d="M307.812,402.474c0,1.975-1.604,3.579-3.578,3.579c-1.975,0-3.568-1.604-3.568-3.579
			c0-1.971,1.594-3.568,3.568-3.568C306.207,398.905,307.812,400.503,307.812,402.474z"/>
		<path fill="#F89943" d="M366.087,318.145c0,9.653-7.833,17.487-17.487,17.487c-9.661,0-17.496-7.834-17.496-17.487
			c0-9.66,7.835-17.496,17.496-17.496C358.254,300.648,366.087,308.484,366.087,318.145z"/>
		<path fill="#DD772A" d="M360.275,305.126c1.784,2.742,2.827,6.011,2.827,9.533c0,9.662-7.825,17.485-17.486,17.485
			c-4.493,0-8.584-1.689-11.686-4.467c3.126,4.789,8.519,7.954,14.669,7.954c9.654,0,17.487-7.834,17.487-17.487
			C366.087,312.969,363.847,308.326,360.275,305.126z"/>
		<path fill="#3E3E3E" d="M352.169,321.713c0,1.975-1.605,3.579-3.569,3.579c-1.973,0-3.577-1.604-3.577-3.579
			c0-1.973,1.604-3.568,3.577-3.568C350.563,318.145,352.169,319.74,352.169,321.713z"/>
		<path fill="#F89943" d="M370.982,360.595c0,6.723-5.455,12.169-12.181,12.169s-12.172-5.446-12.172-12.169
			c0-6.727,5.446-12.181,12.172-12.181S370.982,353.868,370.982,360.595z"/>
		<path fill="#DD772A" d="M366.933,351.533c1.25,1.91,1.971,4.185,1.971,6.635c0,6.727-5.455,12.17-12.172,12.17
			c-3.13,0-5.98-1.173-8.132-3.11c2.168,3.335,5.926,5.536,10.202,5.536c6.726,0,12.181-5.446,12.181-12.169
			C370.982,356.99,369.417,353.759,366.933,351.533z"/>
		<path fill="#3E3E3E" d="M361.292,363.084c0,1.372-1.118,2.479-2.49,2.479s-2.49-1.106-2.49-2.479c0-1.379,1.118-2.489,2.49-2.489
			S361.292,361.705,361.292,363.084z"/>
		<path fill="#F89943" d="M178.812,339.597c0,7.584-6.149,13.731-13.739,13.731c-7.585,0-13.733-6.147-13.733-13.731
			c0-7.586,6.147-13.745,13.733-13.745C172.663,325.852,178.812,332.011,178.812,339.597z"/>
		<path fill="#DD772A" d="M174.248,329.369c1.402,2.158,2.225,4.723,2.225,7.479c0,7.599-6.155,13.748-13.741,13.748
			c-3.524,0-6.742-1.335-9.175-3.519c2.451,3.762,6.691,6.251,11.516,6.251c7.59,0,13.739-6.147,13.739-13.731
			C178.812,335.53,177.046,331.888,174.248,329.369z"/>
		<path fill="#3E3E3E" d="M167.884,342.401c0,1.552-1.259,2.805-2.811,2.805c-1.548,0-2.806-1.253-2.806-2.805
			c0-1.554,1.258-2.805,2.806-2.805C166.625,339.597,167.884,340.848,167.884,342.401z"/>
		<path fill="#41C3D8" d="M337.157,166.25c0.464,4.492,0.711,9.077,0.711,13.739c0,55.812-34.26,117.413-76.531,117.413
			c-42.264,0-76.531-61.601-76.531-117.413c0-4.662,0.243-9.247,0.705-13.739C193.304,123.147,333.938,123.005,337.157,166.25z"/>
		<path fill="#B5E3F2" d="M185.511,166.25c-0.462,4.492-0.705,9.077-0.705,13.739c0,8.957,0.884,18.064,2.542,27.046
			c-0.033-16.122,0.845-38.103,5.496-45.892c7.67-12.841,63.825-27.141,63.896-27.158
			C222.349,135.174,189.185,145.942,185.511,166.25z"/>
		<path fill="#17A2BE" d="M261.337,297.401c42.271,0,76.531-61.601,76.531-117.413c0-4.662-0.247-9.247-0.711-13.739
			c-0.943-12.692-13.729-21.639-31.516-26.871l-0.103,0.791c0,0,17.158,24.177,17.158,37.826c0,13.648-4.153,58.593-11.044,75.31
			c-6.899,16.718-25.402,35.547-39.89,39.724c-4.827,1.394-10.646,2.764-16.258,3.982
			C257.43,297.265,259.374,297.401,261.337,297.401z"/>
		<path fill="#41C3D8" d="M182.173,91.099c-7.051-60.425,30.084-110.353,55.729-73.509c15.098,21.694,5.25,93.571-8.707,127.185
			C215.246,178.384,189.218,151.529,182.173,91.099z"/>
		<path fill="#17A2BE" d="M193.403,117.478c-4.503-38.62,19.226-70.524,35.616-46.981c9.649,13.863,3.354,59.802-5.564,81.285
			C214.538,173.263,197.907,156.099,193.403,117.478z"/>
		<path fill="#238498" d="M195.547,112.995c-1.65-14.153,0.499-27.393,4.68-37.341c-5.545,10.246-8.738,25.421-6.824,41.824
			c4.503,38.622,21.135,55.785,30.052,34.304c0.107-0.255,0.209-0.531,0.316-0.794C214.572,166.451,199.757,149.108,195.547,112.995
			z"/>
		<path fill="#41C3D8" d="M335.076,93.299c7.046-60.427-30.084-110.355-55.733-73.511c-15.094,21.694-5.251,93.573,8.706,127.188
			C302.004,180.584,328.03,153.725,335.076,93.299z"/>
		<path fill="#17A2BE" d="M325.111,115.688c4.878-41.887-20.862-76.501-38.641-50.958c-10.465,15.038-3.637,64.866,6.039,88.168
			C302.185,176.197,320.224,157.579,325.111,115.688z"/>
		<path fill="#238498" d="M314.457,65.162c5.923,11.107,9.296,27.432,7.248,45.067c-4.266,36.57-18.554,55.401-28.562,44.091
			c9.815,21.04,27.188,2.357,31.968-38.632C327.538,94.891,322.403,75.901,314.457,65.162z"/>
		<path fill="#238498" d="M313.56,262.586c-4.58,0.736-9.093,1.376-13.529,1.887l-2.096-9.713l-2.382,1.47l1.16,8.604
			c-5.158,0.536-10.216,0.928-15.13,1.202l1.576-8.322l-4.272-0.468l-0.987,8.956c-4.612,0.197-9.109,0.285-13.469,0.279
			l-2.729-8.811l-4.103,1.269l2.992,7.515c-5.461-0.076-10.688-0.291-15.662-0.597l-1.971-9.173l-2.382,1.468l1,7.471
			c-3.932-0.286-7.693-0.629-11.251-1.025l2.486-8.313l-4.119-1.244l-1.966,9.138c-7.042-0.855-13.236-1.855-18.411-2.826
			c1.634,2.55,3.341,4.998,5.106,7.341c3.639,0.255,7.771,0.55,12.145,0.838l-1.553,7.214l2.773-0.353l1.991-6.643
			c4.399,0.282,8.964,0.573,13.469,0.828l1.125,8.364l4.258-0.554l-1.635-7.596c5.982,0.323,11.725,0.588,16.62,0.744l3.206,8.022
			l2.099-1.842l-1.89-6.091c2.558,0.055,4.789,0.068,6.592,0.023c1.456-0.033,3.042-0.123,4.71-0.256l-0.74,6.713l2.417,1.409
			l1.607-8.414c5.196-0.526,10.994-1.362,16.633-2.296l1.109,8.22l4.259-0.562l-1.787-8.269c3.616-0.632,7.065-1.269,10.162-1.873
			C311.862,265.098,312.724,263.854,313.56,262.586z"/>
		<g>
			<polygon fill="#F89943" points="223.153,275.288 227.836,253.584 231.954,254.828 225.929,274.936 			"/>
			<polygon fill="#F89943" points="242.097,255.229 246.773,276.932 242.515,277.497 239.713,256.697 			"/>
			<polygon fill="#F89943" points="297.077,253.306 301.751,275.008 297.491,275.577 294.694,254.773 			"/>
			<polygon fill="#F89943" points="264.954,278.103 256.742,257.484 260.845,256.216 267.063,276.263 			"/>
			<polygon fill="#F89943" points="278.151,278.06 282.302,256.259 278.03,255.791 275.733,276.65 			"/>
			<path fill="#F89943" d="M314.693,260.815c-45.961,7.777-85.567,3.158-107.31-0.934c1.583,2.544,3.232,4.992,4.945,7.339
				c17.774,1.272,47.698,3.245,59.435,2.975c11.009-0.262,29.019-3.476,40.541-5.752
				C313.124,263.256,313.917,262.05,314.693,260.815z"/>
		</g>
		<path fill="#DD772A" d="M224.71,268.076c-0.025-0.161,1.018-4.584,1.018-4.584l-1.627,4.543L224.71,268.076z"/>
		<polygon fill="#DD772A" points="229.459,263.144 228.257,267.16 229.913,263.189 		"/>
		<polygon fill="#DD772A" points="240.052,264.123 240.72,264.172 241.049,266.998 		"/>
		<polygon fill="#DD772A" points="245.139,269.338 244.438,265.931 245.875,269.371 		"/>
		<polygon fill="#DD772A" points="259.729,265.001 261.425,269.221 258.449,264.981 		"/>
		<polygon fill="#DD772A" points="265.173,270.174 264.166,266.929 266.077,270.174 		"/>
		<polygon fill="#DD772A" points="275.857,269.988 276.909,265.931 276.469,269.941 		"/>
		<polygon fill="#DD772A" points="280.715,264.58 280.076,267.957 281.384,264.543 		"/>
		<path fill="#B5E3F2" d="M233.591,12.32c-22.231-22.926-50.295,11.252-52.187,58.698c5.817-18.578,14.467-42.249,23.153-51.471
			C215.721,7.712,227.903,10.175,233.591,12.32z"/>
		<path fill="#B5E3F2" d="M316.892,16.924c-11.289-12.638-25.654-14.222-37.549,2.864c-4.173,6-6.431,15.849-7.237,27.657
			c4.21-10.229,8.849-19.319,13.501-24.258C298.607,9.399,313.002,15.013,316.892,16.924z"/>
		<path fill="#17A2BE" d="M261.337,297.401c12.407,0,24.133-5.312,34.488-14.221c-6.977,1.756-19.067,4.263-30.703,3.997
			c-14.415-0.315-33.055-3.84-39.581-5.155C236.223,291.626,248.403,297.401,261.337,297.401z"/>
		<path fill="#41C3D8" d="M213.703,284.063c0,0,76.623,10.529,93.777,6.627c17.167-3.9,0-12.866,0-12.866s12.878,0.865,12.878,6.857
			c0,6.009-5.467,11.076-5.664,13.405c-0.188,2.357,3.714,4.302,3.714,9.762c0,5.462-8.564,12.089-43.671,12.479
			c-35.1,0.388-66.16,1.949-66.421-5.852c-0.265-7.792,6.363-11.694,5.387-17.546c-0.974-5.85-7.763-5.462-6.319-11.703
			c1.444-6.239,11.695-7.402,11.695-7.402S210.777,280.161,213.703,284.063z"/>
		<path fill="#17A2BE" d="M224.912,299.269c0,0,17.688,4.678,33.537,6.239c15.848,1.563,23.853,0.977,23.853,0.977
			S224.539,312.971,224.912,299.269z"/>
		<polygon fill="#17A2BE" points="212.693,318.382 222.153,320.064 220.667,323.484 209.536,324.187 		"/>
		<polygon fill="#17A2BE" points="304.669,317.481 310.819,315.565 311.75,320.715 305.039,320.715 		"/>
		<path fill="#17A2BE" d="M355.049,404.803l0.002-0.016c-3.89-5.363-3.009-19.142-8.146-29.013
			c-0.317,5.317-1.646,12.772-1.302,17.081C346.092,398.901,355.049,404.803,355.049,404.803z"/>
		<path fill="#17A2BE" d="M358.806,429.105c-0.309-0.45-0.67-0.904-1.085-1.288c-1.322-1.205-1.819-3.503-1.792-6.816
			c0.027-3.319-6.068-9.952-6.068-9.952s3.055,6.178,3.055,12.225c0,6.04-0.584,9.099-0.584,9.099
			C352.969,431.148,355.496,430.059,358.806,429.105z"/>
		<g>
			<path fill="#17A2BE" d="M147.317,430.002c-3.106,4.259-6.177,6.521-8.351,7.717c1.601,0.676,3.221,1.814,4.676,3.686
				c0.645,0.828,1.209,1.558,1.712,2.193l9.82-28.938C153.881,418.201,151.233,424.618,147.317,430.002z"/>
			<path fill="#17A2BE" d="M155.175,414.66c0.602-1.663,0.914-2.702,0.914-2.702L155.175,414.66z"/>
		</g>
		<path fill="#238498" d="M239.897,429.56c-2.477,5.431-6.11,14.569-7.045,16.936c9.362,1.994,15.261,4.988,20.658,6.499
			c-1.657-9.304-3.173-25.172-4.126-29.44C248.082,417.729,242.759,423.273,239.897,429.56z"/>
		<path fill="#238498" d="M296.395,439.428c-0.535-1.055-0.939-2.01-1.127-2.766c-1.043-4.29-9.488-10.917-9.232-3.77
			c0.102,2.736-0.565,6.461-1.465,10.063C287.988,441.41,291.858,440.13,296.395,439.428z"/>
		<path fill="#17A2BE" d="M259.938,320.538c4.8-0.072,9.752-0.154,14.799-0.211c35.106-0.39,43.671-7.017,43.671-12.479
			c0-5.46-3.901-7.404-3.714-9.762c0.139-1.635,2.884-4.645,4.502-8.373c-0.021,0.016-10.63,8.539-9.591,9.555
			c1.043,1.018,4.872,6.777,4.76,8.754C313.992,314.694,260.428,322.637,259.938,320.538z"/>
		<polygon fill="#DD772A" points="295.825,263.389 296.076,265.058 295.14,263.492 		"/>
		<polygon fill="#DD772A" points="299.973,266.739 299.498,264.543 300.782,266.599 		"/>
		<g>
			<ellipse fill="#17A2BE" cx="210.889" cy="205.043" rx="34.62" ry="36.636"/>
			<path fill="#FFFFFF" d="M245.508,203.026c0,19.119-15.499,34.624-34.619,34.624s-34.621-15.504-34.621-34.624
				c0-19.12,15.501-34.619,34.621-34.619S245.508,183.906,245.508,203.026z"/>
			<path fill="#D5EFF9" d="M234.007,177.263c3.536,5.428,5.6,11.904,5.6,18.866c0,19.12-15.5,34.617-34.624,34.617
				c-8.882,0-16.989-3.354-23.117-8.85c6.176,9.479,16.869,15.753,29.024,15.753c19.12,0,34.619-15.504,34.619-34.624
				C245.508,192.794,241.067,183.603,234.007,177.263z"/>
			<path fill="#3E3E3E" d="M217.961,210.102c0,3.902-3.169,7.071-7.072,7.071c-3.908,0-7.077-3.168-7.077-7.071
				c0-3.908,3.169-7.076,7.077-7.076C214.792,203.026,217.961,206.194,217.961,210.102z"/>
		</g>
		<g>
			<path fill="#17A2BE" d="M346.364,205.043c0,20.231-15.494,36.636-34.614,36.636s-34.623-16.405-34.623-36.636
				c0-20.234,15.503-36.636,34.623-36.636S346.364,184.81,346.364,205.043z"/>
			<path fill="#FFFFFF" d="M346.364,203.026c0,19.119-15.494,34.624-34.614,34.624s-34.623-15.504-34.623-34.624
				c0-19.12,15.503-34.619,34.623-34.619S346.364,183.906,346.364,203.026z"/>
			<path fill="#D5EFF9" d="M334.862,177.263c3.541,5.428,5.605,11.904,5.605,18.866c0,19.12-15.503,34.617-34.623,34.617
				c-8.891,0-16.995-3.354-23.123-8.85c6.176,9.479,16.866,15.753,29.028,15.753c19.12,0,34.614-15.504,34.614-34.624
				C346.364,192.794,341.933,183.603,334.862,177.263z"/>
			<path fill="#3E3E3E" d="M318.821,210.102c0,3.902-3.173,7.071-7.071,7.071c-3.907,0-7.081-3.168-7.081-7.071
				c0-3.908,3.174-7.076,7.081-7.076C315.648,203.026,318.821,206.194,318.821,210.102z"/>
		</g>
	</g>
</g>
</svg>
