<?xml version="1.0" encoding="utf-8"?>
<!-- Generator: Adobe Illustrator 16.0.0, SVG Export Plug-In . SVG Version: 6.00 Build 0)  -->
<!DOCTYPE svg PUBLIC "-//W3C//DTD SVG 1.1//EN" "http://www.w3.org/Graphics/SVG/1.1/DTD/svg11.dtd">
<svg version="1.1" id="Layer_1" xmlns="http://www.w3.org/2000/svg" xmlns:xlink="http://www.w3.org/1999/xlink" x="0px" y="0px"
	 width="500px" height="500px" viewBox="0 0 500 500" enable-background="new 0 0 500 500" xml:space="preserve">
<g>
	<g>
		<path opacity="0.32" fill="#3E3E3E" d="M349.01,481.583c0,8.316-39.955,14.954-89.25,14.954c-49.333,0-89.303-6.638-89.303-14.954
			c0-8.201,39.97-14.921,89.303-14.921C309.055,466.662,349.01,473.382,349.01,481.583z"/>
		<path opacity="0.32" fill="#3E3E3E" d="M452.769,485.009c0,6.353-18.041,11.528-40.33,11.528
			c-22.214,0-40.332-5.176-40.332-11.528c0-6.347,18.118-11.521,40.332-11.521C434.728,473.488,452.769,478.662,452.769,485.009z"/>
		<path opacity="0.32" fill="#3E3E3E" d="M128.158,485.009c0,6.353-18.034,11.528-40.292,11.528
			c-22.261,0-40.314-5.176-40.314-11.528c0-6.347,18.053-11.521,40.314-11.521C110.124,473.488,128.158,478.662,128.158,485.009z"/>
	</g>
	<g>
		<g>
			<g>
				<path fill="#49C5DE" d="M314.313,92.129c0,0,33.671,9.002,54.628-8.953c20.862-17.943,3.455-46.357,38.271-52.734
					c34.795-6.377,57.937,0.107,51.559,5.917c-6.379,5.82-37.074,16.331-41.193,29.186c-3.986,12.861-6.413,35.64-11.562,47.965
					c-11.029,26.294-77.316,30.224-77.316,30.224L314.313,92.129z"/>
				<path fill="#13A0C2" d="M346.982,93.209c-1.565,0.291-3.041,0.514-4.612,0.702c1.337,4.408,3.285,10.206,5.942,17.809
					c5.97,16.769,13.998,23.261,18.818,25.777c2.265-0.603,4.465-1.241,6.65-1.92C360.465,130.288,351.52,107.671,346.982,93.209z"
					/>
				<path fill="#13A0C2" d="M394.151,113.486c3.896,1.058,7.529,1.794,10.683,2.329c0.424-0.749,0.821-1.501,1.181-2.305
					c0.406-0.919,0.797-1.956,1.183-3.017c-1.158-0.169-2.253-0.334-3.305-0.585c-10.654-2.363-32.679-14.897-34.952-26.731
					c-0.748,0.593-1.506,1.175-2.144,1.71C369.871,93.499,377.61,109.042,394.151,113.486z"/>
				<path fill="#13A0C2" d="M378.846,68.05c-0.09,0.382-0.303,0.76-0.416,1.126c7.107,3.766,21.345,9.287,37.314,3.482
					c0.278-1.267,0.542-2.501,0.888-3.653C410.496,70.49,395.492,73.038,378.846,68.05z"/>
				<path fill="#13A0C2" d="M425.604,55.782c-3.393-1.562-8.318-4.531-15.311-10.205c-6.79-5.525-11.074-9.286-13.769-11.809
					c-1.159,0.552-2.185,1.162-3.18,1.798c6.417,6.313,18.618,17.345,29.728,22.336C423.878,57.182,424.724,56.48,425.604,55.782z"
					/>
				<path fill="#13A0C2" d="M430.045,27.889c-1.229,0.048-2.537,0.11-3.883,0.195c0.296,0.858,0.636,1.772,0.99,2.788
					c1.56,4.995,8.852,12.557,12.503,16.168c1.118-0.558,2.101-1.115,3.15-1.651C436.095,40.589,432.02,32.895,430.045,27.889z"/>
				<path opacity="0.32" fill="#3E3E3E" d="M454.271,30.205c-3.178,3.121-7.923,6.641-15.054,9.416
					c-16.616,6.509-27.241,5.748-29.742,20.467c-2.501,14.719-12.511,49.253-37.944,58.285c-13.475,4.768-32.873,5.955-48.259,6.012
					l5.427,19.35c0,0,66.286-3.929,77.315-30.224c5.148-12.325,7.575-35.104,11.562-47.965
					c4.119-12.855,34.814-23.366,41.193-29.186C461.229,34.161,459.371,31.868,454.271,30.205z"/>
			</g>
			<g>
				<path fill="#49C5DE" d="M179.293,92.129c0,0-33.671,9.002-54.563-8.953c-20.863-17.943-3.455-46.357-38.271-52.734
					c-34.805-6.377-58.003,0.107-51.623,5.917c6.379,5.82,37.13,16.331,41.191,29.186c4.054,12.861,6.413,35.64,11.591,47.965
					c11.016,26.294,77.288,30.224,77.288,30.224L179.293,92.129z"/>
				<path fill="#13A0C2" d="M146.624,93.209c1.551,0.291,3.104,0.514,4.612,0.702c-1.352,4.408-3.233,10.206-5.943,17.809
					c-5.969,16.769-13.996,23.261-18.789,25.777c-2.228-0.603-4.465-1.241-6.679-1.92
					C133.208,130.288,142.152,107.671,146.624,93.209z"/>
				<path fill="#13A0C2" d="M99.458,113.486c-3.903,1.058-7.469,1.794-10.689,2.329c-0.425-0.749-0.821-1.501-1.15-2.305
					c-0.389-0.919-0.76-1.956-1.144-3.017c1.107-0.169,2.207-0.334,3.268-0.585c10.676-2.363,32.649-14.897,34.988-26.731
					c0.71,0.593,1.44,1.175,2.143,1.71C123.785,93.499,115.995,109.042,99.458,113.486z"/>
				<path fill="#13A0C2" d="M114.763,68.05c0.153,0.382,0.298,0.76,0.415,1.126c-7.043,3.766-21.353,9.287-37.254,3.482
					c-0.303-1.267-0.604-2.501-0.919-3.653C83.146,70.49,98.113,73.038,114.763,68.05z"/>
				<path fill="#13A0C2" d="M68.009,55.782c3.387-1.562,8.347-4.531,15.312-10.205c6.784-5.525,11.095-9.286,13.815-11.809
					c1.154,0.552,2.165,1.162,3.124,1.798c-6.426,6.313-18.586,17.345-29.728,22.336C69.754,57.182,68.91,56.48,68.009,55.782z"/>
				<path fill="#13A0C2" d="M63.596,27.889c1.243,0.048,2.537,0.11,3.847,0.195c-0.292,0.858-0.579,1.772-0.924,2.788
					c-1.621,4.995-8.879,12.557-12.568,16.168c-1.053-0.558-2.092-1.115-3.117-1.651C57.58,40.589,61.586,32.895,63.596,27.889z"/>
				<path opacity="0.32" fill="#3E3E3E" d="M39.371,30.205c3.155,3.121,7.934,6.641,15.02,9.416
					c16.642,6.509,27.267,5.748,29.741,20.467c2.493,14.719,12.576,49.253,38.009,58.285c13.409,4.768,32.824,5.955,48.193,6.012
					l-5.426,19.35c0,0-66.272-3.929-77.286-30.224c-5.179-12.325-7.538-35.104-11.592-47.965
					C71.968,52.69,41.217,42.179,34.837,36.359C32.424,34.161,34.271,31.868,39.371,30.205z"/>
			</g>
			<g>
				<path fill="#AD3293" d="M441.35,386.327c1.192-10.59,1.586-37.81-15.694-79.968c-22.566-55.399-80.02-90.123-80.02-90.123
					c-23.67-8.567,2.525,30.416,2.525,30.416c26.071,31.126,33.188,111.742,34.573,133.17c-7.938,6.801-12.944,16.609-12.944,27.591
					c0,20.492,17.532,37.108,39.217,37.108c21.683,0,39.252-16.616,39.252-37.108C448.259,399.531,445.705,392.299,441.35,386.327z"
					/>
				<path fill="#7E2676" d="M425.655,306.359c-1.969-4.992-4.298-9.732-6.817-14.359c0.253,0.723,11.852,44.56,13.384,56.918
					c1.459,12.426,3.081,43.684,3.081,43.684s3.856,9.454,0,22.847c-2.02,6.818-6.271,12.099-6.271,12.099l-11.049-9.143
					l-17.872,16.328l-2.523-19.284l-26.056,2.956c4.906,15.108,19.886,26.117,37.476,26.117c21.683,0,39.252-16.616,39.252-37.108
					c0-7.882-2.554-15.114-6.909-21.086C442.542,375.737,442.936,348.518,425.655,306.359z"/>
				<g>
					<g>
						<path fill="#49C5DE" d="M377.118,429.044l20.469-13.596c0,0,3.552,25.577,2.233,28.075
							c-1.296,2.493-16.951,18.822-42.679,27.735C357.142,471.259,375.435,443.23,377.118,429.044z"/>
						<path fill="#13A0C2" d="M397.587,415.448c0,0-7.221,21.919-10.656,29.073c-3.435,7.157-8.257,9.472-8.257,9.472l13.201-34.684
							L397.587,415.448z"/>
					</g>
					<g>
						<path fill="#49C5DE" d="M405.738,444.521l12.244-26.117c0,0,11.836,6.992,16.572,17.163
							c4.773,10.17-16.225,46.065-16.225,46.065L405.738,444.521z"/>
						<path fill="#13A0C2" d="M417.982,418.404c0,0,6.762,15.398,7.054,22.465c0.165,7.114,0,14.27,0,14.27l-9.319-31.802
							L417.982,418.404z"/>
					</g>
					<g>
						<path fill="#49C5DE" d="M437.466,432.988l1.862-24.167l8.815,1.318c0,0,22.5,21.182,19.685,48.798L437.466,432.988z"/>
						<path fill="#13A0C2" d="M439.328,408.821c0,0,8.737,4.907,11.554,9.583c2.793,4.674,7.974,14.504,7.974,14.504l-19.696-21.603
							L439.328,408.821z"/>
					</g>
				</g>
				<g>
					<path fill="#6C2469" d="M432.222,396.584c0,10.569-8.559,19.101-19.059,19.101c-10.563,0-19.086-8.531-19.086-19.101
						c0-10.497,8.523-19.103,19.086-19.103C423.663,377.481,432.222,386.087,432.222,396.584z"/>
					<path fill="#FFFFFF" d="M432.222,395.596c0,9.904-8.559,17.981-19.059,17.981c-10.563,0-19.086-8.077-19.086-17.981
						c0-10.037,8.523-18.114,19.086-18.114C423.663,377.481,432.222,385.559,432.222,395.596z"/>
					<path fill="#D5EFF9" d="M425.899,382.115c1.872,2.874,3.051,6.256,3.051,9.815c0,10.035-8.525,18.112-19.085,18.112
						c-4.871,0-9.354-1.731-12.738-4.634c3.401,4.98,9.307,8.168,16.036,8.168c10.5,0,19.059-8.077,19.059-17.981
						C432.222,390.204,429.769,385.448,425.899,382.115z"/>
					<path fill="#3E3E3E" d="M417.036,399.264c0,1.992-1.73,3.658-3.873,3.658c-2.146,0-3.92-1.666-3.92-3.658
						c0-2.003,1.774-3.668,3.92-3.668C415.306,395.596,417.036,397.261,417.036,399.264z"/>
				</g>
				<path fill="#7E2676" d="M382.734,379.822c0,0,5.366-3.729,11.343-4.605l-11.813-2.05L382.734,379.822z"/>
				<path fill="#7E2676" d="M353.257,253.681c0,0,5.054,7.128,8.967,18.181c0,0-1.879-18.934-4.55-24.487
					c-2.598-5.554-8.664-10.45-8.664-10.45L353.257,253.681z"/>
			</g>
			<g>
				<path fill="#AD3293" d="M59.613,386.327c-1.164-10.59-1.536-37.81,15.677-79.968c22.601-55.399,80.058-90.123,80.058-90.123
					c23.619-8.567-2.498,30.416-2.498,30.416c-26.136,31.126-33.215,111.742-34.64,133.17c7.983,6.801,13.049,16.609,13.049,27.591
					c0,20.492-17.598,37.108-39.283,37.108c-21.684,0-39.279-16.616-39.279-37.108C52.697,399.531,55.257,392.299,59.613,386.327z"
					/>
				<path fill="#7E2676" d="M75.29,306.359c2.021-4.992,4.332-9.732,6.829-14.359c-0.168,0.723-11.824,44.56-13.318,56.918
					c-1.507,12.426-3.107,43.684-3.107,43.684s-3.87,9.454,0,22.847c1.977,6.818,6.232,12.099,6.232,12.099l11.056-9.143
					l17.888,16.328l2.507-19.284l26.104,2.956c-4.972,15.108-19.874,26.117-37.505,26.117c-21.684,0-39.279-16.616-39.279-37.108
					c0-7.882,2.56-15.114,6.916-21.086C58.449,375.737,58.077,348.518,75.29,306.359z"/>
				<g>
					<g>
						<path fill="#49C5DE" d="M123.865,429.044l-20.488-13.596c0,0-3.528,25.577-2.244,28.075
							c1.284,2.493,16.983,18.822,42.707,27.735C143.84,471.259,125.547,443.23,123.865,429.044z"/>
						<path fill="#13A0C2" d="M103.377,415.448c0,0,7.205,21.919,10.673,29.073c3.437,7.157,8.306,9.472,8.306,9.472l-13.187-34.684
							L103.377,415.448z"/>
					</g>
					<g>
						<path fill="#49C5DE" d="M95.201,444.521l-12.219-26.117c0,0-11.817,6.992-16.574,17.163
							c-4.774,10.17,16.244,46.065,16.244,46.065L95.201,444.521z"/>
						<path fill="#13A0C2" d="M82.982,418.404c0,0-6.744,15.398-6.98,22.465c-0.239,7.114,0,14.27,0,14.27l9.298-31.802
							L82.982,418.404z"/>
					</g>
					<g>
						<path fill="#49C5DE" d="M63.518,432.988l-1.884-24.167l-8.814,1.318c0,0-22.49,21.182-19.668,48.798L63.518,432.988z"/>
						<path fill="#13A0C2" d="M61.634,408.821c0,0-8.708,4.907-11.523,9.583c-2.824,4.674-8.01,14.504-8.01,14.504l19.723-21.603
							L61.634,408.821z"/>
					</g>
				</g>
				<g>
					<path fill="#6C2469" d="M68.8,396.584c0,10.569,8.526,19.101,19.066,19.101c10.514,0,19.051-8.531,19.051-19.101
						c0-10.497-8.537-19.103-19.051-19.103C77.327,377.481,68.8,386.087,68.8,396.584z"/>
					<path fill="#FFFFFF" d="M68.8,395.596c0,9.904,8.526,17.981,19.066,17.981c10.514,0,19.051-8.077,19.051-17.981
						c0-10.037-8.537-18.114-19.051-18.114C77.327,377.481,68.8,385.559,68.8,395.596z"/>
					<path fill="#D5EFF9" d="M75.129,382.115c-1.954,2.874-3.096,6.256-3.096,9.815c0,10.035,8.544,18.112,19.083,18.112
						c4.894,0,9.355-1.731,12.739-4.634c-3.402,4.98-9.307,8.168-15.989,8.168c-10.54,0-19.066-8.077-19.066-17.981
						C68.8,390.204,71.24,385.448,75.129,382.115z"/>
					<path fill="#3E3E3E" d="M83.956,399.264c0,1.992,1.751,3.658,3.911,3.658c2.154,0,3.894-1.666,3.894-3.658
						c0-2.003-1.74-3.668-3.894-3.668C85.707,395.596,83.956,397.261,83.956,399.264z"/>
				</g>
				<path fill="#7E2676" d="M118.21,379.822c0,0-5.294-3.729-11.292-4.605l11.801-2.05L118.21,379.822z"/>
				<path fill="#7E2676" d="M147.757,253.681c0,0-5.019,7.128-8.999,18.181c0,0,1.885-18.934,4.489-24.487
					c2.658-5.554,8.753-10.45,8.753-10.45L147.757,253.681z"/>
			</g>
			<g>
				<path fill="#AD3293" d="M355.533,275.061c0.052-7.775-0.824-15.418-2.469-22.777c-3.142-24.056-11.974-76.989-13.004-85.872
					C330.289,88.599,298.613,1.537,247.67,1.537c-51.045,0-87.002,86.669-92.391,164.875c-0.561,7.654-5.217,59.032-7.498,88.988
					c-0.775,4.792-1.205,9.796-1.233,14.868c-0.006,0.918,0.022,1.828,0.036,2.876c-0.069,1.739-0.108,2.981-0.039,3.5
					c-3.582,7.969,13.023,119.98,50.012,187.158c20.509,37.188,41.875,8.453,41.42-15.818c0,0-1.282-27.34,27.074-23.531
					c28.345,3.777,28.063,32.787,30.045,43.836c1.195,6.702,13.079,19.143,30.718-2.65c19.116-23.59,29.502-141.724,29.312-182.691
					C355.41,280.378,355.519,277.798,355.533,275.061z"/>
				<path fill="#AD5AA3" d="M265.822,5.354c-5.904-2.481-11.945-3.817-18.152-3.817c-42.179,0-76.593,61.313-87.681,127.899
					c45.274-90.399,50.792-96.763,73.995-115.533C243.496,6.224,254.865,4.379,265.822,5.354z"/>
				<path fill="#7E2676" d="M294.143,460.878c0.281,2.835,0.587,5.389,0.954,7.41c1.195,6.702,13.079,19.143,30.718-2.65
					c19.116-23.59,29.502-141.724,29.312-182.691c0.284-2.568,0.393-5.148,0.407-7.886c0.052-7.775-0.824-15.418-2.469-22.777
					c-3.142-24.056-11.974-76.989-13.004-85.872c0,0-3.368,148.88-4.271,194.053C334.598,416.685,313.056,446.727,294.143,460.878z"
					/>
				<path fill="#7E2676" d="M228.749,447.521c-2.065,10.566-11.017,22.942-29.643,20.53c19.688,30.483,39.313,3.23,38.872-20.068
					c0,0-0.483-11.089,6.492-18.201C244.468,429.782,231.337,434.053,228.749,447.521z"/>
			</g>
		</g>
		<g>
			<g>
				<path fill="#49C5DE" d="M176.914,251.997l3.634,37.806c0,4.727,2.42,8.596,5.425,8.596h136.188c3.004,0,5.356-3.869,5.356-8.596
					l3.7-37.806H176.914z"/>
				<path fill="#591D5A" d="M176.914,253.681l3.634,33.529c0,4.225,2.42,7.656,5.425,7.656h136.188c3.004,0,5.356-3.432,5.356-7.656
					l3.7-33.529H176.914z"/>
				<path opacity="0.42" fill="#010101" d="M287.053,280.478c0,3.862-14.353,6.955-31.936,6.955c-17.647,0-32-3.093-32-6.955
					c0-3.861,14.353-7.084,32-7.084C272.7,273.394,287.053,276.616,287.053,280.478z"/>
				<polygon fill="#FFFFFF" points="184.807,253.681 195.249,280.478 199.315,268.643 311.585,268.643 314.313,277.573 
					321.181,253.681 				"/>
				<polygon fill="#D5EFF9" points="184.807,253.681 321.181,253.681 320.505,256.33 186.338,257.609 				"/>
				<polygon fill="#D5EFF9" points="195.249,280.478 199.015,263.112 204.782,268.643 199.315,268.643 				"/>
				<polygon fill="#D5EFF9" points="292.52,268.643 312.436,267.013 314.313,277.573 311.585,268.643 				"/>
				<polygon fill="#FFFFFF" points="302.427,294.671 295.234,276.293 292.513,284.387 215.462,284.387 213.542,278.312 
					208.832,294.671 				"/>
				<polygon fill="#D5EFF9" points="302.427,294.671 208.832,294.671 209.33,292.85 301.428,291.979 				"/>
				<polygon fill="#D5EFF9" points="295.234,276.293 292.674,288.193 288.751,284.387 292.513,284.387 				"/>
				<polygon fill="#D5EFF9" points="228.564,284.387 214.862,285.539 213.542,278.312 215.462,284.387 				"/>
			</g>
			<g>
				<path fill="#6C2469" d="M293.898,186.198c0,22.066-17.853,39.932-39.898,39.932c-21.98,0-39.832-17.866-39.832-39.932
					c0-22.015,17.851-39.906,39.832-39.906C276.046,146.292,293.898,164.184,293.898,186.198z"/>
				<path fill="#FFFFFF" d="M293.898,184.024c0,20.832-17.853,37.757-39.898,37.757c-21.98,0-39.832-16.925-39.832-37.757
					c0-20.833,17.851-37.732,39.832-37.732C276.046,146.292,293.898,163.191,293.898,184.024z"/>
				<path fill="#D5EFF9" d="M280.674,155.956c4.129,5.925,6.426,12.97,6.426,20.575c0,20.834-17.852,37.694-39.832,37.694
					c-10.226,0-19.563-3.641-26.674-9.625c7.148,10.292,19.462,17.182,33.406,17.182c22.046,0,39.898-16.925,39.898-37.757
					C293.898,172.867,288.787,162.83,280.674,155.956z"/>
				<path fill="#3E3E3E" d="M262.258,191.714c0,4.254-3.702,7.752-8.258,7.752c-4.421,0-8.125-3.498-8.125-7.752
					c0-4.255,3.703-7.69,8.125-7.69C258.556,184.024,262.258,187.459,262.258,191.714z"/>
			</g>
		</g>
		<polygon fill="#17A2BE" points="237.687,453.993 237.687,453.993 237.687,453.993 		"/>
	</g>
</g>
</svg>
