<?xml version="1.0" encoding="utf-8"?>
<!-- Generator: Adobe Illustrator 16.0.0, SVG Export Plug-In . SVG Version: 6.00 Build 0)  -->
<!DOCTYPE svg PUBLIC "-//W3C//DTD SVG 1.1//EN" "http://www.w3.org/Graphics/SVG/1.1/DTD/svg11.dtd">
<svg version="1.1" id="Layer_1" xmlns="http://www.w3.org/2000/svg" xmlns:xlink="http://www.w3.org/1999/xlink" x="0px" y="0px"
	 width="500px" height="500px" viewBox="0 0 500 500" enable-background="new 0 0 500 500" xml:space="preserve">
<g>
	<path opacity="0.32" fill="#3E3E3E" d="M422.328,422.662c0,13.378-75.604,24.192-168.934,24.192
		c-93.294,0-168.924-10.814-168.924-24.192c0-13.367,75.629-24.184,168.924-24.184C346.724,398.479,422.328,409.295,422.328,422.662
		z"/>
	<g>
		<g>
			<path fill="#A6CE38" d="M154.444,135.46c0,0,35.298,53.607,32.636,92.858c0,0,5.376,7.426,13.26,2.026
				c7.879-5.401-1.623-85.938-6.573-99.593C188.819,117.099,149.24,126.956,154.444,135.46z"/>
			<path fill="#A6CE38" d="M210.108,102.944c0,27.046-21.94,49.01-49.009,49.01c-27.048,0-48.984-21.964-48.984-49.01
				c0-27.073,21.936-49.008,48.984-49.008C188.168,53.936,210.108,75.871,210.108,102.944z"/>
			<g>
				<path fill="#6F973E" d="M198.048,102.944c0,21.394-16.391,38.737-36.61,38.737c-20.213,0-36.603-17.344-36.603-38.737
					c0-21.419,16.39-38.763,36.603-38.763C181.657,64.181,198.048,81.525,198.048,102.944z"/>
				<path fill="#FFFFFF" d="M198.048,100.816c0,20.218-16.391,36.603-36.61,36.603c-20.213,0-36.603-16.384-36.603-36.603
					c0-20.244,16.39-36.635,36.603-36.635C181.657,64.181,198.048,80.572,198.048,100.816z"/>
				<path fill="#D5EFF9" d="M185.89,73.555c3.752,5.744,5.926,12.582,5.926,19.962c0,20.22-16.389,36.607-36.608,36.607
					c-9.399,0-17.983-3.536-24.473-9.373c6.534,10.047,17.842,16.667,30.703,16.667c20.22,0,36.61-16.384,36.61-36.603
					C198.048,89.975,193.362,80.263,185.89,73.555z"/>
				<path fill="#3E3E3E" d="M168.924,108.301c0,4.114-3.338,7.453-7.486,7.453c-4.114,0-7.48-3.339-7.48-7.453
					c0-4.148,3.366-7.485,7.48-7.485C165.585,100.816,168.924,104.153,168.924,108.301z"/>
			</g>
			<path fill="#7DB141" d="M166.792,157.029l4.99-6.269l-7.786,1.011l0,0C164.902,153.413,165.838,155.17,166.792,157.029z"/>
			<path fill="#7DB141" d="M188.708,143.425h7.976c-0.397-2.196-0.787-4.227-1.167-6.007L188.708,143.425z"/>
			<path fill="#7DB141" d="M202.438,190.662l-10.285,3.728h10.563C202.716,194.39,202.46,190.998,202.438,190.662z"/>
		</g>
		<g>
			<path fill="#A6CE38" d="M326.802,134.515c0,0-35.332,53.608-32.666,92.858c0,0-5.379,7.428-13.235,2.024
				c-7.903-5.399,1.623-85.937,6.567-99.564C292.366,116.179,331.971,126.012,326.802,134.515z"/>
			<path fill="#A6CE38" d="M271.102,101.999c0,27.07,21.943,49.01,49.034,49.01c27.05,0,48.985-21.94,48.985-49.01
				c0-27.073-21.936-49.01-48.985-49.01C293.045,52.989,271.102,74.926,271.102,101.999z"/>
			<g>
				<path fill="#6F973E" d="M283.137,101.999c0,21.394,16.413,38.735,36.66,38.735c20.193,0,36.608-17.341,36.608-38.735
					c0-21.392-16.415-38.763-36.608-38.763C299.55,63.236,283.137,80.607,283.137,101.999z"/>
				<path fill="#FFFFFF" d="M283.137,99.872c0,20.215,16.413,36.602,36.66,36.602c20.193,0,36.608-16.387,36.608-36.602
					c0-20.22-16.415-36.635-36.608-36.635C299.55,63.236,283.137,79.652,283.137,99.872z"/>
				<path fill="#D5EFF9" d="M295.322,72.61c-3.754,5.745-5.901,12.606-5.901,19.961c0,20.22,16.36,36.608,36.606,36.608
					c9.38,0,17.988-3.537,24.474-9.349c-6.531,10.023-17.869,16.643-30.704,16.643c-20.247,0-36.66-16.387-36.66-36.602
					C283.137,89.028,287.884,79.317,295.322,72.61z"/>
				<path fill="#3E3E3E" d="M312.29,107.351c0,4.118,3.366,7.484,7.507,7.484c4.097,0,7.461-3.366,7.461-7.484
					c0-4.141-3.364-7.479-7.461-7.479C315.656,99.872,312.29,103.21,312.29,107.351z"/>
			</g>
			<path fill="#7DB141" d="M314.443,156.083l-4.985-6.242l7.763,0.981l0,0C316.334,152.468,315.368,154.224,314.443,156.083z"/>
			<path fill="#7DB141" d="M292.532,142.48h-7.998c0.393-2.196,0.78-4.226,1.163-6.006L292.532,142.48z"/>
			<path fill="#7DB141" d="M278.777,189.717l10.312,3.729h-10.594C278.495,193.446,278.758,190.053,278.777,189.717z"/>
		</g>
		<path fill="#A6CE38" d="M315.656,428.235h-133.57c-27.899,0-50.708-22.867-50.708-50.741l10.037-132.369
			c0-27.9,22.837-50.735,50.737-50.735l113.556-1.195c27.927,0,50.739,22.837,50.739,50.737l9.939,133.563
			C366.387,405.368,343.579,428.235,315.656,428.235z"/>
		<path fill="#7DB141" d="M356.447,243.932c0-12.665-4.695-24.262-12.43-33.192c1.394,4.699,2.167,9.637,2.167,14.777l9.946,133.57
			c0,27.873-22.81,50.729-50.737,50.729H171.85c-15.231,0-28.939-6.835-38.277-17.564c6.363,20.759,25.751,35.984,48.513,35.984
			h133.57c27.923,0,50.73-22.867,50.73-50.741L356.447,243.932z"/>
		<g>
			<path fill="#7DB141" d="M265.914,202.75c0,10.624-8.362,19.245-18.681,19.245c-10.286,0-18.652-8.622-18.652-19.245
				c0-10.646,8.366-19.246,18.652-19.246C257.552,183.504,265.914,192.104,265.914,202.75z"/>
			<path fill="#EF472F" d="M265.717,199.881c0.09-2.572,0.197-5.166,0.197-7.823c0-31.75-8.362-66.787-18.681-66.787
				c-10.286,0-18.652,35.036-18.652,66.787c0,2.657,0.079,5.251,0.174,7.823C230.659,224.388,264.928,224.488,265.717,199.881z"/>
			<path fill="#C12026" d="M262.181,154.269c-5.618,2.368-11.845,3.973-18.469,4.618c-4.204,0.395-8.302,0.376-12.274-0.041
				c-0.333,1.861-0.613,3.759-0.903,5.683c2.976,0.15,6.017,0.075,9.097-0.205c8.554-0.801,16.438-3.272,23.186-6.901
				C262.591,156.344,262.369,155.295,262.181,154.269z"/>
			<path fill="#C12026" d="M228.819,200.465c0.314,3.026,1.106,5.645,2.277,7.908c10.027,2.688,21.945,2.063,33.64-2.353
				c0.558-1.853,0.916-3.877,0.98-6.139c0-0.005,0-0.008,0-0.012C252.662,204.558,239.365,204.542,228.819,200.465z"/>
			<path fill="#C12026" d="M256.929,136.22c-6.108,2.371-12.966,3.84-20.241,4.082c-0.231,0.007-0.459,0.003-0.688,0.007
				c-0.521,1.502-0.996,3.077-1.478,4.746c2.276,0.168,4.585,0.214,6.927,0.117c6.257-0.212,12.195-1.324,17.624-3.131
				C258.39,139.938,257.669,137.988,256.929,136.22z"/>
			<path fill="#C12026" d="M235.851,186.026c10.635,2.148,21.01,1.502,29.882-1.365c-0.081-2.325-0.193-4.674-0.397-6.986
				c-9.524,3.79-21.057,4.909-32.977,2.486c-1.134-0.223-2.248-0.48-3.357-0.774c-0.087,1.602-0.187,3.179-0.247,4.761
				C231.049,184.894,233.402,185.52,235.851,186.026z"/>
			<path opacity="0.32" fill="#3E3E3E" d="M259.073,192.419c-3.782,18.025-16.811,18.35-26.919,17.706
				c9.067,13.596,32.889,10.223,33.563-10.244c0.09-2.572,0.197-5.166,0.197-7.823c0-19.856-3.295-41.008-8.27-54.068
				C259.509,154.325,261.707,179.856,259.073,192.419z"/>
		</g>
		<g>
			<path fill="#6F973E" d="M291.275,279.891c0,24.701-18.979,44.738-42.328,44.738s-42.298-20.037-42.298-44.738
				c0-24.706,18.95-44.766,42.298-44.766S291.275,255.185,291.275,279.891z"/>
			<path fill="#FFFFFF" d="M291.275,277.447c0,23.319-18.979,42.246-42.328,42.246s-42.298-18.927-42.298-42.246
				c0-23.375,18.95-42.323,42.298-42.323S291.275,254.072,291.275,277.447z"/>
			<path fill="#D5EFF9" d="M277.199,245.937c4.308,6.64,6.854,14.526,6.854,23.076c0,23.324-18.927,42.296-42.303,42.296
				c-10.873,0-20.755-4.106-28.246-10.859c7.536,11.629,20.597,19.244,35.444,19.244c23.348,0,42.328-18.927,42.328-42.246
				C291.275,264.922,285.799,253.696,277.199,245.937z"/>
			<path fill="#3E3E3E" d="M257.595,286.066c0,4.749-3.866,8.614-8.647,8.614c-4.777,0-8.644-3.865-8.644-8.614
				c0-4.752,3.867-8.619,8.644-8.619C253.729,277.447,257.595,281.314,257.595,286.066z"/>
		</g>
		<g>
			<path fill="#6F973E" d="M314.075,323.347c0,0-12.587,12.471-20.588,13.406c-7.955,0.879-89.707,2.392-89.707,2.392l89.342,12.282
				l9.467-7.199L314.075,323.347z"/>
			<path fill="#9C2028" d="M180.512,326.962c0,0,8.605,8.764,14.687,11.141c6.052,2.428,92.823,3.225,101.528,0
				c8.646-3.165,17.349-14.756,17.349-14.756s-7.582,44.627-12.559,54.187c-4.97,9.559-100.403,15.899-101.671,3.803
				C199.56,378.801,179.548,337.708,180.512,326.962z"/>
			<g>
				<polygon fill="#FFFFFF" points="201.302,338.88 208.235,356.699 210.961,348.833 285.357,348.833 287.227,354.791 
					291.796,338.88 				"/>
				<polygon fill="#D5EFF9" points="201.302,338.88 291.796,338.88 291.301,340.685 202.345,341.521 				"/>
				<polygon fill="#D5EFF9" points="208.235,356.699 210.713,345.197 214.548,348.833 210.961,348.833 				"/>
				<polygon fill="#D5EFF9" points="272.719,348.833 285.953,347.76 287.227,354.791 285.357,348.833 				"/>
			</g>
			<path fill="#3E3E3E" d="M259.762,364.225c0,6.373-5.174,11.491-11.491,11.491c-6.344,0-11.491-5.118-11.491-11.491
				c0-6.316,5.147-11.49,11.491-11.49C254.588,352.734,259.762,357.908,259.762,364.225z"/>
			<path fill="#B72D30" d="M249.968,363.455c-23.196,0-43.169,5.255-52.141,12.738c1.211,2.811,1.948,4.637,2.018,5.143
				c1.268,12.097,96.702,5.756,101.671-3.803c0.227-0.376,0.396-0.812,0.629-1.333C293.201,368.715,273.226,363.455,249.968,363.455
				z"/>
			<path fill="#7DB141" d="M311.2,326.782c-2.605,14.601-7.42,38.982-10.926,45.905c-4.542,8.902-81.852,15.22-100.719,7.707
				c0.166,0.444,0.274,0.762,0.29,0.941c1.268,12.097,96.702,5.756,101.671-3.803c4.977-9.56,12.559-54.187,12.559-54.187
				S312.985,324.792,311.2,326.782z"/>
		</g>
		<g>
			<path fill="#A6CE38" d="M332.819,272.27c0,0,49.345-0.889,65.808-40.884c16.417-39.997,16.417-47.882,16.417-47.882
				l48.408,21.414c0,0-25.081,68.873-58.655,81.149c-33.627,12.268-75.26,12.969-75.26,12.969L332.819,272.27z"/>
			<g>
				<path fill="#A6CE38" d="M496.674,194.39c0,28.978-23.529,52.456-52.482,52.456c-28.949,0-52.428-23.478-52.428-52.456
					c0-28.948,23.479-52.429,52.428-52.429C473.145,141.961,496.674,165.442,496.674,194.39z"/>
				<g>
					<path fill="#6F973E" d="M465.025,209.084c0,11.996-9.718,21.741-21.712,21.741c-11.999,0-21.771-9.746-21.771-21.741
						c0-12.022,9.771-21.74,21.771-21.74C455.308,187.344,465.025,197.062,465.025,209.084z"/>
					<path fill="#6F973E" d="M426.214,179.777c0,4.932-3.971,8.934-8.908,8.934c-4.936,0-8.9-4.001-8.9-8.934
						c0-4.908,3.965-8.904,8.9-8.904C422.243,170.873,426.214,174.87,426.214,179.777z"/>
					<path fill="#6F973E" d="M459.268,168.351c0,4.906-3.973,8.9-8.909,8.9c-4.928,0-8.899-3.994-8.899-8.9
						c0-4.938,3.972-8.931,8.899-8.931C455.295,159.42,459.268,163.414,459.268,168.351z"/>
					<path fill="#6F973E" d="M488.617,189.717c0,4.932-4.025,8.905-8.962,8.905c-4.875,0-8.901-3.973-8.901-8.905
						c0-4.936,4.026-8.905,8.901-8.905C484.592,180.813,488.617,184.781,488.617,189.717z"/>
					<path fill="#6F973E" d="M481.761,220.691c0,3.609-2.939,6.524-6.518,6.524c-3.639,0-6.526-2.915-6.526-6.524
						c0-3.608,2.888-6.524,6.526-6.524C478.821,214.167,481.761,217.083,481.761,220.691z"/>
				</g>
			</g>
		</g>
		<g>
			<path fill="#A6CE38" d="M168.525,272.27c0,0-49.371-0.889-65.81-40.884c-16.466-39.997-16.466-47.882-16.466-47.882
				l-48.407,21.414c0,0,25.102,68.873,58.708,81.149c33.575,12.268,75.232,12.969,75.232,12.969L168.525,272.27z"/>
			<g>
				<path fill="#A6CE38" d="M4.674,194.39c0,28.978,23.476,52.456,52.454,52.456c28.947,0,52.426-23.478,52.426-52.456
					c0-28.948-23.479-52.429-52.426-52.429C28.15,141.961,4.674,165.442,4.674,194.39z"/>
				<g>
					<path fill="#6F973E" d="M36.269,209.084c0,11.996,9.743,21.741,21.74,21.741c12.021,0,21.737-9.746,21.737-21.741
						c0-12.022-9.716-21.74-21.737-21.74C46.012,187.344,36.269,197.062,36.269,209.084z"/>
					<path fill="#6F973E" d="M75.082,179.777c0,4.932,3.995,8.934,8.906,8.934c4.93,0,8.931-4.001,8.931-8.934
						c0-4.908-4-8.904-8.931-8.904C79.077,170.873,75.082,174.87,75.082,179.777z"/>
					<path fill="#6F973E" d="M42.028,168.351c0,4.906,3.996,8.9,8.928,8.9c4.911,0,8.904-3.994,8.904-8.9
						c0-4.938-3.993-8.931-8.904-8.931C46.024,159.42,42.028,163.414,42.028,168.351z"/>
					<path fill="#6F973E" d="M12.727,189.717c0,4.932,4,8.905,8.906,8.905c4.936,0,8.905-3.973,8.905-8.905
						c0-4.936-3.969-8.905-8.905-8.905C16.727,180.813,12.727,184.781,12.727,189.717z"/>
					<path fill="#6F973E" d="M19.557,220.691c0,3.609,2.943,6.524,6.525,6.524c3.609,0,6.523-2.915,6.523-6.524
						c0-3.608-2.914-6.524-6.523-6.524C22.5,214.167,19.557,217.083,19.557,220.691z"/>
				</g>
			</g>
		</g>
		<path fill="#D1E06B" d="M141.415,245.125l-0.956,12.572c3.087-1.213,7.273-3.771,10.022-8.999
			c4.83-9.225,1.499-25.812,13.515-38.734c12.038-12.914,16.485-14.203,16.487-14.203
			C158.156,201.076,141.415,221.238,141.415,245.125z"/>
	</g>
</g>
</svg>
