<?xml version="1.0" encoding="utf-8"?>
<!-- Generator: Adobe Illustrator 16.0.0, SVG Export Plug-In . SVG Version: 6.00 Build 0)  -->
<!DOCTYPE svg PUBLIC "-//W3C//DTD SVG 1.1//EN" "http://www.w3.org/Graphics/SVG/1.1/DTD/svg11.dtd">
<svg version="1.1" id="Layer_1" xmlns="http://www.w3.org/2000/svg" xmlns:xlink="http://www.w3.org/1999/xlink" x="0px" y="0px"
	 width="500px" height="500px" viewBox="0 0 500 500" enable-background="new 0 0 500 500" xml:space="preserve">
<path fill="#74CDDD" d="M170.643,62.796c48.604-47.333,126.323-46.28,173.701,2.35c47.273,48.636,46.181,126.399-2.371,173.751
	c-48.646,47.353-126.333,46.274-173.646-2.324C121.033,187.934,122.079,110.141,170.643,62.796z"/>
<path fill="#FFFFFF" d="M189.99,82.692c37.621-36.66,97.802-35.849,134.404,1.813c36.693,37.646,35.858,97.867-1.812,134.534
	c-37.572,36.647-97.763,35.827-134.398-1.813C151.57,179.576,152.4,119.317,189.99,82.692z"/>
<path fill="#18A399" d="M210.708,103.985c25.877-25.205,67.272-24.633,92.491,1.254c25.116,25.893,24.541,67.267-1.333,92.487
	c-25.785,25.178-67.225,24.61-92.392-1.236C184.309,170.605,184.873,129.188,210.708,103.985z"/>
<path fill="#0E241D" d="M225.912,119.603c17.241-16.788,44.822-16.437,61.598,0.839c16.776,17.259,16.42,44.854-0.762,61.644
	c-17.278,16.792-44.859,16.433-61.641-0.807C208.28,164.008,208.679,136.391,225.912,119.603z"/>
<path fill="#FFFFFF" d="M188.991,124.254c11.76-11.468,30.54-11.209,41.98,0.548c11.437,11.769,11.209,30.6-0.53,42.044
	c-11.756,11.445-30.587,11.222-42.024-0.574C176.98,154.512,177.197,135.717,188.991,124.254z"/>
<path fill="#46A5B2" d="M174.213,319.883c24.141,4.787,49.435,16.023,66.913,20.553c46.934,12.152,121.164-37.09,160.589-7.223
	c29.549,22.355,15.736,76.086-3.922,99.65c-52.713,63.438-178.42,52.625-240.544,10.369c-28.845-19.574-63.496-64.01-45.521-100.82
	C124.125,317.104,148.519,314.891,174.213,319.883z"/>
<path fill="#ED95B0" d="M398.955,432.9c7.936-9.52,14.896-23.93,18.496-39.314c-11.466-6.053-22.657-5.646-31.846-8.012
	c-58.753-14.918-194.452-19.395-257.821,31.43c8.716,10.697,18.896,19.873,28.449,26.428
	C218.901,485.982,345.722,496.936,398.955,432.9z"/>
<g>
	<defs>
		<path id="SVGID_1_" d="M174.213,319.883c24.141,4.787,49.435,16.023,66.913,20.553c46.934,12.152,121.164-37.09,160.589-7.223
			c29.549,22.355,15.736,76.086-3.922,99.65c-52.713,63.438-178.42,52.625-240.544,10.369
			c-28.845-19.574-63.496-64.01-45.521-100.82C124.125,317.104,148.519,314.891,174.213,319.883z"/>
	</defs>
	<clipPath id="SVGID_2_">
		<use xlink:href="#SVGID_1_"  overflow="visible"/>
	</clipPath>
	<path clip-path="url(#SVGID_2_)" fill="#FFFFFF" d="M117.205,295.895c-0.209,14.725-10.083,65.092,14.826,72.92
		c38.191,11.939,38.248-41.373,44.977-59.473L117.205,295.895z"/>
	<g clip-path="url(#SVGID_2_)">
		<path fill="#FFFFFF" d="M327.011,304.273c0.59,1.141,1,2.174,1.554,3.289C328.268,306.584,327.747,305.492,327.011,304.273z"/>
		<path fill="#FFFFFF" d="M328.564,307.563c0.865,2.848-0.004,5.125,0.286,8.563l-49.104,5.855
			C280.736,391.695,360.907,374.979,328.564,307.563z"/>
	</g>
	<path clip-path="url(#SVGID_2_)" fill="#FFFFFF" d="M264.942,301.463c-5.314-2.814-3.522,2.082-5.796,2.662l-50.451-3.85
		c-8.544,19.203-7.906,63.678,17.978,72.197C268.157,386.129,267.027,327.703,264.942,301.463z"/>
	<path clip-path="url(#SVGID_2_)" fill="#FFFFFF" d="M412.003,286.047c-5.365-2.814-3.58,2.082-5.826,2.666l-50.475-3.855
		c-8.54,19.201-7.902,63.656,17.973,72.174C415.112,370.686,413.986,312.266,412.003,286.047z"/>
</g>
</svg>
