<?xml version="1.0" encoding="utf-8"?>
<!-- Generator: Adobe Illustrator 16.0.0, SVG Export Plug-In . SVG Version: 6.00 Build 0)  -->
<!DOCTYPE svg PUBLIC "-//W3C//DTD SVG 1.1//EN" "http://www.w3.org/Graphics/SVG/1.1/DTD/svg11.dtd">
<svg version="1.1" id="Layer_1" xmlns="http://www.w3.org/2000/svg" xmlns:xlink="http://www.w3.org/1999/xlink" x="0px" y="0px"
	 width="1000px" height="1000px" viewBox="0 0 1000 1000" enable-background="new 0 0 1000 1000" xml:space="preserve">
<path fill-rule="evenodd" clip-rule="evenodd" fill="#EFF0F2" d="M761.118,433.506c-9.597,8.294-390.93,469.457-390.93,469.457
	l-39.43-57.068l417.665-425.448L761.118,433.506z"/>
<polygon fill-rule="evenodd" clip-rule="evenodd" fill="#EFF0F2" points="715.444,393.059 732.835,404.403 280.917,795.379 
	214.986,767.186 "/>
<g>
	<path fill-rule="evenodd" clip-rule="evenodd" fill="#F3F9FD" d="M750.635,208.535c1.908-2.557,13.472-10.142,13.472-10.142
		l33.661,38.076l42.066,24.223l-4.864,9.158l-40.592-19.988L750.635,208.535z"/>
	<g>
		<path fill-rule="evenodd" clip-rule="evenodd" fill="#ED7625" d="M739.027,477.876c13.178,29.327,11.27,64.094-4.524,93.145
			c11.566-4.367,22.713-10.934,32.75-19.77c36.426-31.92,47.058-82.926,28.894-123.469L739.027,477.876z"/>
		<path fill-rule="evenodd" clip-rule="evenodd" fill="#F9A91A" d="M688.838,460.48l17.212,20.444
			c-7.067,18.673-32.469,58.169-123.222,73.984c28.234-90.127,69.864-110.399,88.799-114.875L688.838,460.48z"/>
		<path fill-rule="evenodd" clip-rule="evenodd" fill="#F48220" d="M609.554,531.078c10.534-22.586,23.92-45.015,40.944-62.283
			c7.838-8.056,17.5-15.835,27.826-20.804l21.028,24.973c-6.304,9.791-15.193,18.516-24.011,25.389
			C656.305,513.158,632.798,523.645,609.554,531.078z"/>
		<polygon fill-rule="evenodd" clip-rule="evenodd" fill="#44535B" points="694.254,419.051 662.646,437.061 685.891,464.699 
			709.135,492.349 731.048,462.784 		"/>
		<polygon fill-rule="evenodd" clip-rule="evenodd" fill="#595A5C" points="742.275,461.644 696.874,407.768 673.897,428.25 
			719.187,482.128 		"/>
		<path fill-rule="evenodd" clip-rule="evenodd" fill="#ED7625" d="M677.702,404.895c-26.3-17.571-59.964-20.634-90.23-8.664
			c5.865-11.212,13.804-21.648,23.691-30.636c35.913-32.472,86.536-36.01,122.842-11.679L677.702,404.895z"/>
		<path fill-rule="evenodd" clip-rule="evenodd" fill="#E7E7E7" d="M731.734,484.432c38.79-13.356,79.307-36.865,116.867-69.729
			c34.583-30.389,61.996-64.738,80.946-99.231l-24.818-49.057l-44.104-32.156c-35.677,14.342-72.451,37.312-106.453,68.135
			c-36.993,33.485-65.427,71.453-83.872,109.026L731.734,484.432z"/>
		<path fill-rule="evenodd" clip-rule="evenodd" fill="#F48220" d="M929.548,315.472c18.522-33.742,28.945-67.614,30.076-97.983
			c-29.52-3.275-63.726,2.581-98.999,16.77C885.606,259.138,908.796,285.976,929.548,315.472z"/>
		<path fill-rule="evenodd" clip-rule="evenodd" fill="#ED7625" d="M660.931,483.644c11.603-5.869,31.54-20.52,52.839-39.378
			c21.762-19.312,39.23-37.854,46.411-48.713c-0.3,0.143-0.604,0.298-0.806,0.403c0.088-0.239,0.278-0.495,0.458-0.762
			c-11.482,5.744-31.753,20.844-53.479,40.301C685.2,454.529,668.286,472.687,660.931,483.644z"/>
		<path fill-rule="evenodd" clip-rule="evenodd" fill="#C26228" d="M734.791,570.365c14.975-27.84,17.129-60.773,5.742-89.141
			c10.581-4.029,21.399-8.853,32.113-14.396C776.299,503.1,763.201,541.787,734.791,570.365z"/>
		<path fill-rule="evenodd" clip-rule="evenodd" fill="#C26228" d="M674.621,402.949c-25.601-15.726-57.516-18.192-86.488-7.019
			c31.537-24.825,70.647-32.603,105.021-23.667C686.274,382.419,680.088,392.682,674.621,402.949z"/>
		<path fill-rule="evenodd" clip-rule="evenodd" fill="#13113A" d="M690.842,463.322c2.521-1.877,5.013-3.916,7.562-5.994
			l19.484,23.207l-8.753,11.814l-6.202-7.342l-15.738-18.794C688.351,465.283,689.636,464.314,690.842,463.322z"/>
		<path fill-rule="evenodd" clip-rule="evenodd" fill="#13113A" d="M717.888,480.535l-19.484-23.207
			c1.977-1.669,4.097-3.391,6.159-5.173l18.242,21.724l2.424,2.893l-6.042,5.357L717.888,480.535z"/>
		<polygon fill-rule="evenodd" clip-rule="evenodd" fill="#39444A" points="684.317,462.792 685.891,464.699 709.135,492.349 
			731.048,462.784 711.025,439.036 		"/>
		<polygon fill-rule="evenodd" clip-rule="evenodd" fill="#4F4F4F" points="742.275,461.644 718.007,432.798 695.03,453.336 
			719.187,482.128 		"/>
		<path fill-rule="evenodd" clip-rule="evenodd" fill="#DCDDDE" d="M731.734,484.432c38.79-13.356,79.307-36.865,116.867-69.729
			c34.583-30.389,61.996-64.738,80.946-99.231l-24.818-49.057L701.072,447.923L731.734,484.432z"/>
		<path fill-rule="evenodd" clip-rule="evenodd" fill="#E87C24" d="M929.548,315.472c18.522-33.742,28.945-67.614,30.076-97.983
			l-62.734,55.86C908.358,286.806,919.242,300.794,929.548,315.472z"/>
		<path fill-rule="evenodd" clip-rule="evenodd" fill="#ED7625" d="M660.933,483.638c11.604-5.863,31.538-20.517,52.837-39.372
			c21.762-19.312,39.23-37.854,46.411-48.713c-0.3,0.143-0.604,0.298-0.806,0.4L660.933,483.638z"/>
	</g>
	<path fill-rule="evenodd" clip-rule="evenodd" fill="#E8F2FB" d="M705.379,193.539c-1.596,1.499-5.046,0.213-15.291,2.452
		c-10.243,2.238-12.854,3.541-13.861,5.265c-0.818,1.535,16.941,90.092,20.778,123.54l53.658-13.844
		c-4.506-27.253,16.229-111.023,13.443-112.558c-3.854-1.86-20.801-2.699-25.632-3.393
		C736.939,194.169,709.373,193.283,705.379,193.539z"/>
	<path fill-rule="evenodd" clip-rule="evenodd" fill="#FACBB9" d="M707.04,165.695c0.894,3.459,4.157,8.44,2.353,17.769
		c-1.797,9.332-6.992,11.655-6.992,11.655s10.352,13.41,25.492,14.787c15.211,1.43,14.202-8.351,14.202-8.351
		c-0.003-0.083-1.82-3.099-4.136-5.216c-1.869-1.75-3.99-2.01-6.894-6.994c-6.654-11.15-7.383-22.252-7.383-22.252L707.04,165.695z"
		/>
	<path fill-rule="evenodd" clip-rule="evenodd" fill="#A25742" d="M682.366,161.711c0.011,0.321,0.616,3.964,9.145,12.377
		c8.525,8.402,16.957,6.624,16.679,6.171c-0.201-0.459-5.698-21.559-5.698-21.559L682.366,161.711z"/>
	<path fill-rule="evenodd" clip-rule="evenodd" fill="#FACBB9" d="M728.309,98.397c4.69,3.572,12.696,15.325,13.743,18.792
		c1.046,3.458,0.631,9.943,3.128,13.262c12.659,16.58,20.578,37.807,0.035,47.672c-8.444,4.081-34.986,11.829-43.193,4.279
		c-6.521-6.061-12.078-14.574-12.078-14.574s-7.54,1.493-12.554-2.655c-5.011-4.194-9.329-13.206-6.338-16.619
		c2.881-3.39,5.404-2.918,5.404-2.918s-11.124-18.542-9.515-26.306c1.613-7.78,7.56-15.063,26.987-24.028
		C713.354,86.337,724.938,93.856,728.309,98.397z"/>
	<path fill-rule="evenodd" clip-rule="evenodd" fill="#FACBB9" d="M726.79,164.382c-0.288-0.021-2.479-0.948-2.479-0.948
		s-0.983,2.413,4.076,8.151c5.057,5.686,8.021-1.656,12.995-3.521c4.54-2.165,8.569,2.1,9.146-5.529
		c0.571-7.629-1.144-8.178-0.868-8.249c0.279-0.07-6.542,4.854-12.519,7.319C731.091,164.071,726.79,164.382,726.79,164.382z"/>
	<path fill-rule="evenodd" clip-rule="evenodd" fill="#F2B9AC" d="M728.309,98.397c1.436,1.132,3.225,2.994,5.022,5.173
		c-2.994,2.92-7.137,5.399-12.842,5.867c-36.169,2.9-35.799,2.559-41.311,12.722c-0.048,0.095-7.614,9.181-7.198,11.799
		c0,0-4.011-9.94-2.495-21.06c3.393-5.537,10.365-11.125,24.443-17.597C713.354,86.337,724.938,93.856,728.309,98.397z"/>
	<path fill-rule="evenodd" clip-rule="evenodd" fill="#A25742" d="M691.18,136.746c-1.154-4.525-11.181-9.943-11.981-14.971
		c-0.8-5.028,2.175-10.339,7.816-12.233c8.435-2.824,34.821,2.332,46.284-8.576c7.743-7.339,9.805-21.319-3.151-29.59
		c-3.554,6.354-11.109,10.274-17.507,11.896c1.314-1.11,1.789-2.782,1.51-5.396c-2.053,4.392-34.399,7.769-43.175,16.736
		c-8.886,8.967-7.909,20.852-7.909,20.852s-3.706,10.374-4.79,15.487c-0.975,5.101,11.885,19.693,11.885,19.693
		s1.061-3.38,4.778-4.33c7.677-2.065,13.571-1.08,17.727,5.113c3.197,4.607,4.715,5.95,5.674,5.488
		C700.902,155.682,692.557,142.102,691.18,136.746z"/>
	<path fill-rule="evenodd" clip-rule="evenodd" fill="#BE6D5A" d="M714.15,77.879v-0.001v-0.001
		c-2.053,4.392-34.399,7.769-43.175,16.736c-8.886,8.967-7.909,20.852-7.909,20.852s-3.706,10.374-4.79,15.487
		c-0.975,5.101,11.885,19.693,11.885,19.693s0.921-2.816,3.878-4.041c-3.565-2.216-14.941-5.136-14.012-14.763
		c0.932-9.571,5.883-17.276,5.883-17.276s-0.694-4.078,2.515-10.038c3.103-5.962,8.809-13.646,19.652-15.59
		c10.734-1.959,21.597-6.428,23.872-8.294C714.133,78.817,714.15,77.938,714.15,77.879z"/>
	<path fill-rule="evenodd" clip-rule="evenodd" fill="#9B553D" d="M699.632,132.722c-3.436,2.152,0.393,4.852,0.817,4.673
		c8.6-3.131,14.135-6.008,19.196-5.859c3.407,0.119,4.618-4.393-0.55-4.727C713.971,126.484,703.064,130.57,699.632,132.722z"/>
	<path fill-rule="evenodd" clip-rule="evenodd" fill="#9B553D" d="M730.769,122.258c-1.84,2.336,0.331,4.147,1.832,3.315
		c3.507-1.938,7.122-4.821,9.378-4.866c0.595-0.014,0.199-3.032-2.266-3.343C737.429,117.08,731.998,120.639,730.769,122.258z"/>
	<path fill-rule="evenodd" clip-rule="evenodd" fill="#363738" d="M716.626,142.546c1.77-0.423,2.85-2.335,2.431-4.296
		c-0.53-1.95-2.362-3.192-4.13-2.771c-1.769,0.423-2.739,2.346-2.32,4.315C713.131,141.724,714.861,142.974,716.626,142.546z"/>
	<path fill-rule="evenodd" clip-rule="evenodd" fill="#363738" d="M740.608,135.075c1.769-0.423,2.849-2.387,2.43-4.317
		c-0.527-1.948-2.361-3.217-4.13-2.791c-1.76,0.426-2.735,2.378-2.32,4.305C737.117,134.255,738.859,135.499,740.608,135.075z"/>
	<path fill-rule="evenodd" clip-rule="evenodd" fill="#FFFFFF" d="M717.439,138.818c0.728-0.145,1.05-0.863,0.857-1.559
		c-0.084-0.724-0.833-1.17-1.452-1.036c-0.615,0.176-1.05,0.865-0.857,1.592C716.182,138.535,716.823,138.995,717.439,138.818z"/>
	<path fill-rule="evenodd" clip-rule="evenodd" fill="#FFFFFF" d="M741.389,131.402c0.652-0.124,0.978-0.86,0.893-1.562
		c-0.192-0.698-0.893-1.156-1.559-1.019c-0.619,0.157-1.049,0.859-0.86,1.597C740.056,131.113,740.696,131.573,741.389,131.402z"/>
	<path fill-rule="evenodd" clip-rule="evenodd" fill="#EDAEA5" d="M728.853,134.088c2.072-1.825,3.275,4.182,8.284,6.646
		c4.896,2.411,9.893,0.793,7.172,5.103C735.945,159.21,722.397,142.097,728.853,134.088z"/>
	<path fill-rule="evenodd" clip-rule="evenodd" fill="#7E2325" d="M747.212,154.615c1.377,3.974-1.753,8.854-7.19,10.952
		c-5.435,2.095-11.002,0.627-12.625-3.252c3.048-0.305,6.666-1.185,10.389-2.626C741.402,158.275,744.728,156.485,747.212,154.615z"
		/>
	<path fill-rule="evenodd" clip-rule="evenodd" fill="#FFFFFF" d="M729.85,161.97c2.458-0.453,5.164-1.198,7.936-2.281
		c2.787-1.085,5.318-2.385,7.515-3.775c0.211,0.398,0.022,0.148,0.419,1.176c0.384,0.987-2.188,4.106-6.614,5.823
		c-4.425,1.715-8.395,1.168-8.821,0.183C729.932,162.079,730.003,162.379,729.85,161.97z"/>
	<path fill-rule="evenodd" clip-rule="evenodd" fill="#EDAEA5" d="M674.84,152.248c-2.601,5.713,6.626,14.043,14.012,11.083
		c2.49-1.032,1.06-5.322-0.262-5.808c-1.211-0.519-2.302,0.174-2.427-1.432c-0.131-1.605,1.642-2.286,1.247-3.81
		c-0.438-1.579-3.085-2.252-4.322-2.884C680.024,147.777,676.701,148.169,674.84,152.248z"/>
	<path fill-rule="evenodd" clip-rule="evenodd" fill="#9B553D" d="M679.198,121.775c-0.362-2.514,3.105-10.019,8.879-11.49
		c12.343-3.296,37.673,3.514,47.91-12.421c5.37-7.727,5.401-19.25-5.84-26.488c0,0,2.346,11.826-4.229,17.082
		c-1.678,1.263-2.996,2.242-4.179,3.063c-3.497,2.546-5.07,3.012-5.235,3.008c-0.226-0.003,1.079-1.987,2.19-3.582
		c0.639-1,1.272-1.842,1.3-2.003c0-0.149-0.871,0.689-2.345,1.859c-2.699,2.118-7.466,5.371-13.097,5.904
		c-8.872,0.893-19.613,3.613-25.349,11.199C673.474,115.523,679.652,124.289,679.198,121.775z"/>
	<path fill-rule="evenodd" clip-rule="evenodd" fill="#414142" d="M804.206,302.381c1.569,0.514,8.623,93.079,14.741,97.718
		c1.1,0.807-5.687,18.655-10.198,17.624c-18.672-4.431-20.273-88.281-20.857-88.337c-18.253-2.437-65.69,22.185-80.798,11.207
		c-6.127-4.451-11.852-15.567-8.362-23.567C707.227,297.599,789.905,297.34,804.206,302.381z"/>
	<path fill-rule="evenodd" clip-rule="evenodd" fill="#E8F2FB" d="M743.474,287.206l5.988,13.313c0,0-25.261,3.288-32.048,10.098
		c-6.673,6.827-11.279,19.267-17.184,18.472c-5.957-0.782-5.52-12.88-5.695-17.916c-0.179-5.037,19.652-17.919,28.01-21.108
		C731.008,286.932,743.474,287.206,743.474,287.206z"/>
	<path fill-rule="evenodd" clip-rule="evenodd" fill="#BBBDBF" d="M719.15,203.783c0.426-0.175,12.231-0.149,12.231-0.149
		s4.934,9.327,4.644,9.199c-0.402-0.151-16.406-3.001-16.406-3.001L719.15,203.783z"/>
	<polygon fill-rule="evenodd" clip-rule="evenodd" fill="#FFFFFF" points="745.438,200.395 749.963,207.351 741.779,203.976 
		742.337,201.436 	"/>
	<polygon fill-rule="evenodd" clip-rule="evenodd" fill="#BBBDBF" points="745.438,200.395 742.285,208.125 734.379,194.453 
		732.587,191.655 735.256,190.696 	"/>
	<path fill-rule="evenodd" clip-rule="evenodd" fill="#414142" d="M744.818,201.927c-0.547,0.167-17.795,0.912-17.519,1.709
		c0.279,0.797,4.156,9.628,4.646,9.899c0.385,0.254,8.209,0.607,8.455,0.148C740.572,213.178,744.818,201.927,744.818,201.927z"/>
	<path fill-rule="evenodd" clip-rule="evenodd" fill="#FFFFFF" d="M731.382,203.634c-0.806,1.141-8.124,15.161-8.224,14.73
		c-0.103-0.433-25.019-22.866-25.019-22.866l5.727-6.464L731.382,203.634z"/>
	<path fill-rule="evenodd" clip-rule="evenodd" fill="#414142" d="M738.221,206.86l-6.275,6.676c0,0,0.172,1.891-7.366,29.107
		c-7.535,27.212-44.065,55.212-44.065,55.212l-4.826,18.88l22.998-5.375c0,0,20.875-23.601,28.984-43.657
		c8.07-20.103,14.627-53.581,12.73-54.02L738.221,206.86z"/>
	<path fill-rule="evenodd" clip-rule="evenodd" fill="#FACBB9" d="M802.448,279.545c0-2.54,7.616-2.54,7.616-2.54
		s12.803-7.615,12.803-5.078c0,2.54-7.125,6.436-7.125,6.436s11.221,0.691,14.002,1.182c1.799,0.302,5.041,1.064,3.778,2.315
		c-1.245,1.221-3.608,0.529-3.608,0.529s-11.799-0.47-11.536-0.211c0.179,0.205,15.324,5.847,14.8,7.274
		c-0.427,1.409-16.031-3.392-16.031-3.392s8.913,5.927,8.271,7.287c-0.574,1.361-10.171-4.966-10.171-4.966s4.212,7.858,3.131,8.993
		c-1.191,1.187-5.721-8.225-5.94-8.225c-0.333,0-3.54-0.979-6.748-2.062c-3.318-1.027-3.404-7.564-3.404-7.564L802.448,279.545z"/>
	<path fill-rule="evenodd" clip-rule="evenodd" fill="#F3F9FD" d="M677.438,199.979c-5.369,2.18-12.884,17.983-6.257,23.569
		c6.738,5.58,51.677,35.631,60.055,37.247c8.438,1.561,72.108,24.276,72.108,24.276l4.946-8.162l-74.069-29.9
		C727.645,240.573,682.808,197.795,677.438,199.979z"/>
	<path fill-rule="evenodd" clip-rule="evenodd" fill="#414142" d="M818.947,400.099c0,0,7.024,0.145,18.244-1.826
		c11.224-1.972,18.952-7.902,19.65-6.006c1.376,3.69-21.336,33.968-28.871,27.983l-0.15,5.221l-11.896,6.538l-11.435-19.044
		l3.892-8.676L818.947,400.099z"/>
</g>
<g id="g82" transform="translate(68.913385,305.91166)">
	<path id="path84" fill="#2DABE2" d="M149.099-60.264c18.465,7.994,27.908,27.449,20.973,43.44
		c-4.156,9.588-13.231,15.699-23.893,17.393l-0.364,14.014l-7.885-13.64c-4.647-0.34-9.289-1.401-13.896-3.357
		c-18.525-8.025-27.912-27.472-21.006-43.469C109.926-61.829,130.567-68.259,149.099-60.264L149.099-60.264z"/>
	<path id="path86" fill="#FBB042" d="M127.08-83.249c-18.525-8.039-39.112-1.568-46.016,14.335
		c-4.188,9.589-2.414,20.503,3.615,29.324l-9.855,9.895l15.287-3.63c3.326,3.185,7.355,5.871,11.957,7.907
		c18.467,7.944,39.109,1.56,46.015-14.438C154.99-55.844,145.593-75.301,127.08-83.249L127.08-83.249z"/>
	<path id="path88" fill="#FFFFFF" d="M97.668-55.598c2.551,1.099,5.458-0.055,6.543-2.537c1.062-2.575-0.076-5.464-2.6-6.589
		c-2.479-1.014-5.4,0.115-6.473,2.649C94.026-59.583,95.184-56.723,97.668-55.598L97.668-55.598z"/>
	<path id="path90" fill="#FFFFFF" d="M112.349-49.231c2.488,1.012,5.461-0.061,6.482-2.649c1.127-2.484-0.051-5.357-2.536-6.479
		c-2.478-1.043-5.458,0.056-6.466,2.581C108.683-53.226,109.868-50.362,112.349-49.231L112.349-49.231z"/>
	<path id="path92" fill="#FFFFFF" d="M126.977-42.864c2.48,1.012,5.461-0.161,6.576-2.654c1.028-2.485-0.156-5.412-2.634-6.478
		c-2.488-1.131-5.441,0.055-6.48,2.542C123.318-46.968,124.491-43.995,126.977-42.864L126.977-42.864z"/>
</g>
<g id="g94" transform="translate(68.913385,305.91166)">
	<polygon id="polygon96" fill="#D79628" points="812.973,305.416 763.299,287.006 796.481,245.641 846.157,264.161 	"/>
	<polygon id="rect98" fill="#D4D5D2" points="848.342,316.135 788.11,332.793 767.796,259.19 828.004,242.575 	"/>
	<polygon id="rect100" fill="#A99565" points="824.395,265.331 782.669,276.915 781.698,273.444 823.479,261.86 	"/>
	<polygon id="rect102" fill="#A99565" points="826.192,271.852 784.467,283.327 783.498,279.854 825.241,268.379 	"/>
	<polygon id="rect104" fill="#A99565" points="827.948,278.239 786.222,289.825 785.257,286.354 826.977,274.768 	"/>
	<polygon id="rect106" fill="#A99565" points="829.729,284.776 787.954,296.293 787.038,292.821 828.758,281.346 	"/>
	<polygon id="rect108" fill="#A99565" points="831.519,291.264 789.739,302.823 788.799,299.374 830.544,287.79 	"/>
	<polygon id="rect110" fill="#FFDD94" points="833.368,297.678 791.581,309.194 790.61,305.719 832.398,294.247 	"/>
	<polygon id="polygon112" fill="#F8AC1E" points="812.973,305.416 763.299,287.006 776.799,335.905 859.637,313.053 
		846.155,264.155 	"/>
	<polygon id="polygon114" fill="#FFCC67" points="803.906,302.057 803.906,302.053 776.799,335.905 859.637,313.053 
		819.028,297.897 	"/>
</g>
<g id="g122" transform="translate(68.913385,305.91166)">
	<path id="circle124" fill="#4E88BA" d="M672.147,343.898c28.91,0,52.31,23.455,52.31,52.311c0,28.859-23.399,52.313-52.31,52.313
		c-28.863,0-52.318-23.453-52.318-52.313C619.829,367.353,643.284,343.898,672.147,343.898z"/>
	<path id="path126" fill="#FFFFFF" d="M658.123,399.56c1.246,2.807,2.746,4.998,4.38,6.688c1.634,1.672,3.521,2.857,5.567,3.418
		c1.674,0.559,3.169,0.469,4.575-0.146c1.406-0.727,2.32-1.695,2.732-3.221c0.467-1.564,0.368-2.873-0.326-4.029
		c-0.672-1.164-2.55-2.633-5.56-4.508c-4.626-2.777-7.634-5.549-9.018-8.211c-1.426-2.652-1.631-5.727-0.559-9.334
		c1.308-4.434,3.715-7.559,7.313-9.51c3.538-1.971,7.885-2.41,13.038-1.443l1.373-4.684l4.32,1.311l-1.3,4.514
		c1.894,0.758,3.679,1.785,5.334,3.088c1.654,1.188,3.203,2.703,4.688,4.43l-7.053,8.348c-1.104-1.695-2.357-3.182-3.763-4.221
		c-1.393-1.137-2.854-1.906-4.467-2.424c-1.606-0.428-3.014-0.428-4.194,0c-1.193,0.498-1.955,1.318-2.302,2.531
		c-0.409,1.195-0.231,2.332,0.425,3.332c0.638,0.996,2.164,2.145,4.49,3.529l0.395,0.283c5.035,3.141,8.148,5.758,9.35,8.084
		c0.792,1.521,1.26,3.223,1.398,5.082c0.139,1.879-0.133,3.729-0.688,5.803c-1.368,4.668-3.882,8.104-7.611,10.283
		c-3.683,2.229-7.951,2.941-12.816,2.057l-2.343,8.053l-4.321-1.205l2.312-8.01c-3.112-0.98-5.856-2.393-8.171-4.33
		s-4.357-4.438-6.116-7.498L658.123,399.56L658.123,399.56z"/>
</g>
<g id="g166" transform="translate(68.913385,305.91166)">
	<polygon id="rect168" fill="#EF4338" points="550.49,546.316 454.216,557.578 453.621,553.123 549.948,541.796 	"/>
	<polygon id="rect170" fill="#8EC641" points="475.116,550.642 453.562,553.169 449.102,514.562 470.654,512.033 	"/>
	<polygon id="rect172" fill="#F8AC1E" points="500.145,547.552 478.596,550.076 471.728,491.595 493.276,488.984 	"/>
	<polygon id="rect174" fill="#EC665A" points="525.031,544.755 503.467,547.289 494.309,468.957 515.867,466.433 	"/>
	<polygon id="rect176" fill="#5C97CA" points="549.939,541.783 528.386,544.31 518.051,456.371 539.604,453.843 	"/>
</g>
<g id="g178_1_" transform="translate(68.913385,305.91166)">
	<path id="path180_1_" fill="#4E88BA" d="M124.653,59.982c-0.012-0.039-0.059-0.223-0.079-0.381
		c-7.909-41.977-48.24-69.807-90.332-62.172c-0.821,0.178-1.636,0.355-2.438,0.561v0.02C-8.961,6.789-35.798,46.553-28.31,87.855
		c7.544,41.305,46.669,69.045,87.92,62.977v0.006c0.812-0.119,1.633-0.27,2.457-0.447C104.335,142.74,132.356,102.25,124.653,59.982
		L124.653,59.982L124.653,59.982z"/>
	<path id="path182_1_" fill="#98D7E8" d="M127.574,50.898C101.256-40.266-37.025-18.406-34.441,76.234
		C-31.251,197.057,160.917,166.398,127.574,50.898C127.198,49.617,128.348,53.602,127.574,50.898z M46.973,95.963
		c-0.939-0.232-1.455-1.445-2.443-1.717c-0.803-0.285-1.388,0-1.963-0.592c-0.248-0.318-0.239-1.121-0.415-1.729
		c-1.068-0.326-2.237-2.291-3.446-2.615c-0.793-0.207-1.928,0.039-2.902-0.109c-0.465-0.094-0.822-0.125-1.306-0.143
		c-0.614-0.02-1.153,0.045-1.616-0.068c-1.908-0.613-3.363-3.225-5.5-2.715c-0.896,0.205-1.607,1.137-2.438,1.291
		c-0.823,0.18-2.318-0.178-3.447-0.508c-1.148-0.34-2.389-0.4-3.367-0.615c-0.764-0.264-1.405-0.803-2.051-0.988
		c-0.523-0.129-1.228-0.043-1.644-0.168c-0.632-0.178-1.288-0.576-2.099-0.988c-0.751-0.34-1.584-0.904-1.715-1.459
		c-0.138-0.643,0.424-1.414,0.377-2.076c-0.167-2.072-1.988-3.326-3.168-4.395c-0.89-0.781-1.869-1.371-2.76-2.066
		C5.05,73.68,5.045,73.67,4.889,73.041c-0.67-0.369-1.236-1.086-1.982-1.832c-0.631-0.574-1.77-1.113-2.064-1.877
		c-0.338-0.959,0.028-1.939-0.51-2.82c-0.881-1.43-2.994-0.404-2.293,1.686c0.16,0.518,1.119,1.211,1.467,1.701
		c0.396,0.496,0.444,1.238,0.826,1.961c0.358,0.592,1.12,1.016,1.488,1.811c0.611,1.055,0.813,2.396,1.297,3.063
		c0.418,0.576,1.645,1.057,1.15,1.969C3.464,78.963,3,78.209,2.432,77.877c-0.379-0.244-1.492-0.607-1.741-1.156
		c-0.257-0.441,0.083-1.311-0.167-1.879c-0.554-1.172-3.029-0.744-3.25-1.99c-0.166-0.848,0.881-1.072,0.735-1.836
		c-0.169-0.83-1.465-1.402-1.822-2.047c-0.348-0.588-0.569-1.635-0.813-2.541c-0.217-0.855-0.307-1.902-0.625-2.512
		c-0.303-0.535-1.324-1.26-1.998-1.406c-0.851-0.305-1.42,0-1.881-0.631c-0.418-0.426-0.845-1.543-1.041-2.092
		c-0.316-1.057-0.434-2.262-0.683-3.287c-0.306-1.145-0.585-2.221-0.653-3.408c0.28-0.91,1.009-1.549,1.287-2.469
		c0.217-0.615,0.129-1.318,0.349-1.986c0.415-1.301,1.632-2.563,2.384-3.904c0.792-1.352,1.497-2.738,1.82-4.203
		c0.133-0.482,0.517-1.711,0.328-2.266c-0.303-0.824-1.998-1.266-2.043-2.313c-0.005-0.607,0.855-0.773,0.994-1.42
		c0.109-0.303,0.051-1.182-0.02-1.605c-0.12-0.83-0.723-1.633-0.723-2.574c0.009-0.781,1.082-1.268,0.346-2.084
		c-0.723-0.715-1.517,0.816-2.305,0.369c-0.656-0.371-0.031-1.145-0.151-2.074c-0.059-0.299-0.347-0.725-0.356-0.92
		c-0.051-0.449,0.578-1.232,0.356-1.488c-0.375-0.291-0.88-1.033-1.515-1.635c8.358-9.582,19.022-17.17,31.36-21.758
		c0.236,0.174,0.397,0.506,0.794,0.535c0.719-0.477,1.553-0.273,2.393-0.469c0.803-0.096,1.448-0.666,2.379-0.695
		c1.623-0.049,4.168,1.146,5.248,0.049c0.258-0.25,0.167-0.594,0.316-1.184c0.168-0.541,0.396-1.045,0.533-1.602
		c0.643-0.15,1.27-0.295,1.93-0.424c1.674-0.344,3.378-0.506,5.041-0.727c0.496-0.068,0.967-0.107,1.43-0.164
		c1.116-0.129,2.167-0.217,3.264-0.277c0.466-0.029,0.932-0.068,1.396-0.088c1.478-0.033,3.013-0.033,4.487-0.033
		c-0.04,0.145-0.118,0.262-0.177,0.338c-0.297,0.266-0.811,0.273-1.209,0.492c-0.485,0.389-0.557,0.898-1.129,1.135
		c-1.532,0.568-2.981,0.156-4.35,0.49l0,0l0,0c0.032,0.182,0.219,0.371,0.379,0.537c0.195,0.109,0.318,0.205,0.514,0.266
		c0.148,0.057,0.221,0.088,0.358,0.137c0.705,0.123,1.276,0.162,1.929,0.105c0.316-0.039,0.615-0.07,0.992-0.07
		c0.361-0.074,0.787-0.164,1.211-0.271c0.008,0,0.008,0,0.018,0c0.882-0.176,1.959-0.098,2.613-0.732
		c0.426-0.473,0.305-1.188,0.613-1.627c0.176-0.225,0.367-0.48,0.633-0.715c0.884,0.061,1.775,0.137,2.666,0.205
		c0,0.354-0.24,0.529-0.495,0.637c-0.229,0.203-0.444,0.432-0.367,0.789c0.7,0.258,2.019-0.545,2.454-1.248
		c0.189,0.02,0.434,0.047,0.635,0.068c1.317,0.176,2.613,0.287,3.901,0.518c1.86,0.346,3.636,0.662,5.458,1.145
		c-0.289,0.277-0.566,0.518-0.883,0.576c-0.104,0.023-0.23-0.016-0.368-0.059c-0.532-0.145-0.968-0.613-1.556-0.182
		c0.03,0.195,0.119,0.4,0.23,0.588c0.385,0.408,1.188,0.592,1.723,0.859c0.813,0.268,1.674,0.625,2.071,1.389
		c-0.142,0.594-0.474,0.795-0.844,0.795c-0.081,0-0.239-0.021-0.384-0.049c-0.529-0.127-1.191-0.346-1.764-0.234l0,0l0,0
		c-0.587,0.082-1.276,0.82-1.934,1.271C62.43,3.1,62.061,3.305,61.7,3.324c-0.327,0.01-0.666-0.168-1.014-0.654
		c0.096-1.023,1.172-1.383,1.259-2.469l0,0l0,0c-0.245,0.1-0.444,0.227-0.672,0.395c-0.386,0.232-0.753,0.508-1.12,0.828
		c-0.514,0.344-1.066,0.793-1.673,1.117c-0.485,0.109-0.97,0.227-1.444,0.422C56.938,3,56.884,3.023,56.766,3.072
		c-0.348,0.213-0.691,0.367-0.969,0.676c-0.533,0.488-1.006,0.939-1.645,1.328c-0.386,0.193-0.93,0.242-1.346,0.531
		c-0.596,0.363-1.229,0.752-1.893,1.193c-0.416,0.342-0.857,0.695-1.245,0.93c-0.094,0.117-0.241,0.252-0.396,0.361
		c-0.902,0.697-1.79,1.398-2.301,2.115c-0.346,0.322-1.098,1.715-0.99,1.994v0.012l0,0c0.099,0.293,0.357,0.43,0.648,0.59
		c0.313,0.039,0.561,0.164,0.64,0.467c0,0.1-0.019,0.244-0.059,0.381c-0.108,0.365-0.171,0.896,0.167,1.098
		c0.104,0.1,0.189,0.148,0.357,0.168c0.247,0,0.598-0.117,0.97-0.225c0.122-0.053,0.346-0.104,0.507-0.104
		c0.362-0.02,0.661,0.02,0.94,0.111c0.95,0.266,1.762,0.85,2.633,1.176c0.327,0.119,0.755,0.234,1.16,0.361
		c0.661,0.039,1.259,0.156,1.831,0.115c0.287,0,0.612-0.076,0.9-0.09c0.008,0,0.019,0,0.047,0c0.883-0.172,1.627-0.426,1.892,0.246
		c0.042,0.24,0.022,0.484,0,0.574c-0.235,0.631-0.911,1.012-0.911,1.512l0.01,0.012l0,0c0.059,0.088,0.143,0.189,0.19,0.191
		c0.337,0.688-0.424,1.189-0.278,1.834c0.109,0.512,0.636,1.037,1.209,1.264c0.186,0.08,0.308,0.109,0.465,0.1c0,0,0,0,0.01,0l0,0
		c0.068,0,0.147-0.049,0.178-0.078c0.857-0.219,1.844-1.305,2.061-2.193c0.096-0.432,0.094-0.928,0.088-1.5
		c0.004-0.33,0-0.764,0.014-1.143c0.066-0.215,0.188-0.512,0.362-0.777c0.048,0,0.102-0.027,0.171-0.041
		c1.998-0.277,3.723-1.041,4.822-2.277c1.139-1.182,1.673-2.867,1.129-4.973C68.061,8.559,67.7,8.121,67.71,7.687
		c0.01-0.34,0.246-0.693,0.406-0.965c0.314-0.492,0.543-0.871,0.389-1.404c0.106-0.068,0.195-0.191,0.313-0.242
		c0.17-0.213,0.328-0.488,0.445-0.818c0.2-0.627,0.348-1.363,0.955-1.715c0.002,0,0.004,0,0.01,0c0.018,0,0.037,0,0.066,0
		c0.197-0.061,0.35-0.109,0.543-0.119c0.219-0.029,0.387,0,0.633,0.021c0.539,0.057,1.18,0.107,1.795,0.098
		c0.219,0,0.385,0,0.544-0.008l0,0l0,0c0.271-0.082,0.593-0.318,0.862-0.482c0.186-0.098,0.328-0.186,0.494-0.197
		c0.203-0.008,0.437,0.041,0.615,0.158c0.612,0.303,1.156,0.881,1.705,1.195c0.632,0.25,1.234,0.088,1.443,0.596
		c0.01,0.275-0.031,0.453-0.109,0.574c-0.025,0.26-0.119,0.465-0.218,0.68c-0.128,0.145-0.207,0.418-0.11,0.834V5.92
		c0.1,0.264,0.319,0.527,0.596,0.764c0.345,0.213,0.742,0.398,0.98,0.418c0.178,0,0.375-0.039,0.535-0.096
		c0.346-0.109,0.764-0.225,1.107-0.471c0.141-0.119,0.325-0.244,0.484-0.361c0.356-0.201,0.664-0.596,0.953-1.041
		c0.235-0.221,0.436-0.545,0.672-0.842c0.977,0.564,1.941,1.027,2.892,1.648c0.196,0.311,0.278,0.695,0.356,0.852
		c0.303,0.918,0.217,1.715,0.367,2.611c0.377,1.439,2.218,0.891,3.307,1.588c0.091,0.08,0.227,0.162,0.346,0.359
		c0.127,0.236,0.287,0.504,0.454,0.586c0.417,0.402,0.823,0.443,1.063,0.736c0.076,0.102,0.156,0.16,0.215,0.285
		c0.436,1.564-1.096,1.91-0.641,3.563c-0.107,0.482-0.445,0.615-0.628,0.949c-0.146,0.217-0.233,0.443-0.137,0.703
		c0.258,1.119,1.494,0.473,2.335,0.623c0.181,0.002,0.416,0.096,0.529,0.32c0.404,0.576,0.155,1.037,0.088,1.9
		c0.435,0.391,0.715,0.9,0.689,1.299c-0.02,0.439-0.293,0.807-0.828,0.852c-0.527,0.096-0.859-0.232-1.305-0.49
		c-0.183-0.098-0.359-0.145-0.529-0.164c-0.275-0.012-0.574,0.02-0.861,0.047c-0.236,0.02-0.438,0.068-0.69,0.061
		c-0.456,0-0.964-0.041-1.398-0.02c-0.307,0.02-0.574,0.068-0.823,0.135c-0.836,0.18-1.611,0.387-2.149-0.039
		c0.784-1.543,1.914-3.121,3.026-4.641c0.254-0.238,0.777-0.596,0.859-0.975c0.02-0.139,0.01-0.313-0.023-0.504
		c-0.345-0.205-0.611-0.193-0.87-0.088c-0.534,0.186-1.019,0.592-1.425,0.941c-0.668,0.547-1.456,1.365-2.258,1.557
		c-1.021,0.414-2.436,0.334-3.557,0.705c-0.344,0.049-0.652,0.246-0.891,0.529c-0.05,0.658,1.389,0.168,1.35,1.186
		c-0.104,0-0.25,0.027-0.416,0.084c-0.397,0.121-0.794,0.148-1.188-0.084c-0.099,0-0.14-0.088-0.158-0.146
		c-0.249-0.334-0.237-0.75-0.46-0.863c-0.523-0.334-2.227-0.096-2.965,0.113c-0.133,0.033-0.279,0.131-0.412,0.197
		c-0.049,0.049-0.137,0.084-0.195,0.121c-0.308,0.227-0.592,0.549-0.732,0.76c-0.139,0.258-0.238,0.531-0.227,0.727l0,0l0,0
		c0.732,0.236,1.673-0.184,2.422-0.271c0.443-0.039,0.843,0.076,1.053,0.477c-0.068,0.215-0.176,0.424-0.239,0.602
		c-0.325,0.494-0.711,0.908-0.91,1.486c0,0,0,0,0,0.02c-0.021,0.037-0.021,0.064-0.04,0.084c-0.175,0.346-0.236,0.824-0.068,1.287
		c0.03,0.137,0.118,0.252,0.207,0.393c0.148,0.16,0.396,0.355,0.605,0.535c0.247,0.168,0.465,0.285,0.682,0.275l0,0l0,0
		c0.365-0.01,0.547-0.336,0.852-0.523c0.052-0.068,0.17-0.115,0.308-0.123c0.17-0.004,0.298,0.074,0.416,0.184
		c0.153,0.17,0.278,0.336,0.605,0.219c0.814-0.471,1.038-1.791,2.038-1.91c1.371,1.217-0.691,2.322-1.823,2.988
		c-0.667,0.309-1.451,0.711-2.177,1.049c-0.694,0.27-1.426,0.609-1.899,0.896c-0.462,0.303-1.804,2.225-2.575,1.713
		c-0.081-0.1-0.18-0.236-0.258-0.461c-0.416-1.125,0.9-0.988,1.019-2.008c-0.364,0-0.721,0.07-1.028,0.195
		c-0.971,0.363-1.802,1.078-2.643,1.561c-0.348,0.225-0.773,0.477-1.21,0.715c-1.565,0.818-3.327,1.715-3.397,3.348
		c-0.018,0.24,0.197,0.771,0.201,1.035c0.01,0.137,0,0.256-0.015,0.334c-0.087,0.148-0.435,0.293-0.847,0.428
		c-0.414,0.051-0.857,0.197-1.102,0.348c-0.783,0.471-1.443,1.26-1.887,1.406c-0.408,0.215-0.955,0.293-1.231,0.459
		c-0.604,0.326-0.714,1.332-1.368,2.096c-0.177,0.207-0.456,0.393-0.74,0.59c-0.172,0.156-0.377,0.246-0.494,0.352
		c-0.038,0.096-0.053,0.244-0.104,0.381c-0.156,0.352-0.226,0.932-0.434,1.234c-0.11,0.172-0.267,0.322-0.416,0.41
		c-0.119,0.029-0.229,0.021-0.352,0.021c-0.251-0.021-0.481-0.082-0.746-0.021c-0.115,0.021-0.21,0.078-0.338,0.178
		c0.088,0.535,0.269,1.152,0.465,1.881c0.171,0.625,0.248,1.25,0.147,1.816c-0.382,0.482-0.77,0.854-1.175,1.186
		c-0.558,0.51-1.229,1.137-1.924,1.664c-0.689,0.537-1.299,0.756-2.078,1.434c-0.595,0.389-1.029,1.24-1.663,1.746
		c-0.646,0.607-1.271,1.156-1.833,1.795c-0.06,0.076-0.108,0.145-0.158,0.203c-0.2,0.324-0.406,0.541-0.576,0.912l0,0
		c-0.109,0.344-0.216,0.615-0.304,1.008c-0.01,0.098-0.02,0.205-0.03,0.297c-0.037,0.311-0.048,0.732,0.03,1.102
		c0.116,0.6,0.504,1.098,0.71,1.684c0.073,0.404,0.063,0.725,0.18,1.174c0.271,0.893,1.129,1.949,0.496,2.713
		c-1.26-0.303-2.797-0.176-3.754-0.84c-0.316-0.686-0.03-1.373-0.021-1.949c0.011-0.197,0-0.381-0.05-0.453
		c-0.232-0.705-1.307-1.662-1.84-1.662c-0.309,0-0.563,0.275-0.853,0.492c-0.077,0.047-0.128,0.1-0.19,0.137
		c-0.039,0.039-0.107,0.068-0.146,0.096c-0.128,0.041-0.216,0.088-0.269,0.088c-0.703,0.033-1.465-0.813-2.297-0.754
		c-1.277,0.096-2.09,0.754-3.505,0.787c-1.169,0.877-1.346,2.258-2.98,2.455c-0.583,0.068-1.149-0.314-1.87-0.326
		c-0.725-0.02-1.844-0.088-2.594,0.129c-1.457,0.314-2.329,1.625-3.469,2.518c-1.038,0.793-2.533,1.84-2.594,3.051
		c-0.08,0.748,0.229,1.568,0.092,2.295c-0.036,0.365-0.357,0.852-0.462,1.209c-0.667,1.988-1.056,4.488,0.153,6.902
		c0.207,0.41,1.563,2.346,2.011,2.723c0.544,0.441,2.028,0.881,2.761,0.74c0.65-0.127,1.357-0.543,1.936-0.807
		c0.709-0.289,1.641-0.375,2.205-0.748c1.783-0.957,0.951-3.414,2.692-4.672c0.764-0.482,1.702-0.76,3.157-1.033
		c0.516,0.223,0.872,0.939,0.91,1.518c0.041,0.4-0.353,0.941-0.416,1.594c-0.098,0.557-0.02,1.314-0.156,1.742
		c-0.166,0.619-0.678,1.217-0.754,1.764c-0.068,0.344,0.074,0.803,0.041,1.195c-0.101,0.576-0.822,1.084-0.373,1.664
		c2.046,0.35,4.117-0.969,5.818-0.949c0.695-0.01,2.293,0.518,2.438,1.594c0.157,0.783-0.357,1.391-0.287,2.281
		c0.107,1.137-0.148,2.525-0.021,3.416c0.174,1.342,2.229,3.098,3.756,3.238l0,0l0,0c0.194,0.02,0.336,0.02,0.522,0
		c0.03,0,0.09,0,0.128,0l0,0l0,0c1.248-0.174,1.893-1.258,3.083-1.623c0.206-0.053,0.401-0.09,0.642-0.107
		c0.22,0.008,0.494,0.035,0.734,0.107c0.68,0.168,1.463,0.908,2.129,0.908c0.059,0,0.158,0.049,0.236,0.029l0,0l0,0
		c0.102-0.059,0.258-0.166,0.434-0.225c0.041-0.035,0.088-0.074,0.098-0.131c0.064-0.08,0.143-0.16,0.212-0.236
		c0.028-0.053,0.047-0.1,0.077-0.15c0.122-0.18,0.19-0.354,0.289-0.449c0.049-0.076,0.098-0.156,0.146-0.244
		c0.129-0.246,0.181-0.471,0.261-0.568c0.019-0.051,0.028-0.1,0.047-0.146c0.1-0.266,0.167-0.539,0.217-0.688
		c0.121-0.734,0.221-1.225,0.833-1.713c0.18-0.105,0.416-0.232,0.605-0.34c0.631-0.307,1.277-0.402,2.109-0.852
		c0.523-0.326,0.92-0.697,1.348-1.174c0.277-0.217,0.572-0.863,0.969-0.863c0.128,0,0.189,0.01,0.316,0.1
		c0.235,0.156,0.287,0.332,0.285,0.488c-0.029,0.322-0.523,0.793-0.402,1.123c0.02,0.09,0.098,0.199,0.195,0.277
		c0.197,0.049,0.309,0.08,0.465,0.068c0.95-0.098,1.268-1.588,2.012-1.785c0.197-0.037,0.663,0.109,1.127,0.285
		c0.289,0.109,0.567,0.139,0.813,0.246c0.143,0.08,0.287,0.164,0.465,0.266c0.471,0.352,0.813,0.643,1.38,0.643
		c0.514,0.02,1.224-0.35,1.938-0.371c0.911-0.039,1.566,0.6,2.266,0.443c0.805-0.199,1.014-1.09,1.725-1.342
		c0.366-0.178,0.674-0.256,0.943-0.305c0.852-0.098,1.385,0.295,2.061,0.883l0,0l0,0c0.768,0,0.611-1.029,1.355-0.785
		c-0.047,0.197-0.047,0.322-0.039,0.459c0.019,0.49,0.436,0.783,0.818,1.217c0.248,0.422,0.277,0.633,0.479,0.799
		c0.494,0.367,1.287,0.199,2.008,0.502c0.693,0.225,1.199,0.914,2.089,1.695c0.942,0.713,2.339,1.34,3.386,1.203l0,0l0,0
		c0.99-0.109,1.685-0.541,2.497-0.598c1.86-0.117,3.149,0.559,4.567,1.277c0.621,0.357,1.175,0.602,1.561,0.893
		c0.137,0.127,0.201,0.287,0.318,0.443c0.254,0.381,0.273,1.09,0.544,1.496c0.181,0.404,0.571,0.596,0.911,0.9
		c0.604,0.465,1.286,1.088,1.119,2.311c0.137,0.217,0.328,0.324,0.533,0.434c0.338,0.203,0.715,0.252,1.141,0.447
		c0.226,0.076,0.367,0.195,0.593,0.328c0.132,0.105,0.239,0.184,0.396,0.271c0.201,0.1,0.477,0.174,0.695,0.162l0,0l0,0
		c0.256,0,0.446-0.063,0.701-0.086c0.091-0.047,0.221-0.115,0.348-0.123c1.01-0.119,1.762,0.146,2.691,0.27
		c0.547,0.105,1.268,0.068,1.684,0.254c0.049,0.02,0.063,0.088,0.103,0.129c0.058,0.057,0.146,0.107,0.206,0.186
		c0.107,0.129,0.172,0.215,0.269,0.371c0,0.01,0.021,0.01,0.021,0.01c0.194,0.334,0.394,0.643,0.728,0.648
		c0.063,0.018,0.171,0.029,0.358,0c0.15-0.006,0.456-0.008,0.705-0.096c0.078-0.023,0.137-0.063,0.207-0.082
		c0.139-0.037,0.325-0.078,0.457-0.098c0.76-0.049,1.715,0.18,2.512,0.207c0.251,0.012,0.5,0,0.666-0.027l0,0l0,0
		c0.525-0.1,0.9-0.434,1.375-0.494c1.051-0.117,2.012,0.463,2.971,1.029c-5.613,14.252-15.367,26.762-28.069,35.57
		c-4.062,2.889-8.429,5.355-13.054,7.451c-0.108-0.422-0.254-0.723-0.367-1.146c-0.156-0.344-0.322-0.711-0.354-1.145
		c-0.09-0.313-0.158-0.684-0.208-0.947c-0.158-0.805-0.189-1.633-0.404-2.389c-0.072-0.264-0.179-0.627-0.262-1.008
		c-0.136-0.215-0.244-0.572-0.375-0.832c-0.146-0.48-0.324-0.883-0.466-1.324c-0.255-0.498-0.466-1.047-0.739-1.273
		c-0.587-0.801-2.677-1.748-3.705-2.152c-0.676-0.246-1.443-0.227-2.159-0.383c-0.909-0.25-2.315-0.754-3.474-1.277
		c-0.863-0.438-1.597-0.902-1.973-1.41c-0.09-0.15-0.148-0.307-0.227-0.473c-0.113-0.27-0.189-0.596-0.406-0.91
		c-0.199-0.303-0.563-0.666-0.89-1.01c-0.021-0.021-0.04-0.055-0.06-0.063c-0.416-0.326-0.871-0.738-1.248-1.09
		c-0.713-0.754-1.388-1.646-2.119-2.566c-0.596-0.779-1.25-1.564-1.874-2.359c-0.475-0.438-0.921-0.891-1.354-1.449
		c-0.285-0.289-0.506-0.498-0.756-0.73c-0.117-0.08-0.294-0.16-0.428-0.227c-0.408-0.154-0.858-0.256-1.23-0.529
		c-0.094-0.107-0.221-0.217-0.3-0.373c-0.2-0.49-0.646-1.094-0.95-1.73c-0.092-0.166-0.148-0.439-0.159-0.648
		c-0.05-0.732,1.089-1.566,1.308-2.25c0.019-0.109,0.037-0.225,0.019-0.326c-0.138-0.613-1.089-0.879-1.347-1.326
		c-0.33-0.717-0.348-1.217-0.304-1.705c0.108-0.607,0.362-1.096,0.493-1.664c0.119-0.451,0.179-1.037,0.324-1.383
		c0.112-0.24,0.416-0.518,0.675-0.791c0.196-0.195,0.367-0.326,0.514-0.535c0.163-0.369,0.212-0.98,0.466-1.498
		c0.084-0.189,0.27-0.436,0.467-0.66c0.467-0.574,1.059-1.063,1.169-1.703c0.089-0.469-0.187-2.467-0.466-3.816
		c-0.139-0.518-0.238-0.859-0.347-1.145c-0.306-0.578-0.95-1.049-1.289-1.559c-0.317-0.52-0.572-1.117-0.88-1.455
		c-0.291-0.354-0.612-0.59-1.118-0.451l0,0l0,0c-0.644,0.145-0.962,0.957-1.331,1.467c0,0.719,0.193,1.35-0.416,1.635
		c-0.135,0.037-0.283,0.07-0.409,0.07c-0.032,0-0.033,0-0.073,0c-0.107-0.012-0.205-0.021-0.305-0.059
		c-0.039-0.008-0.07-0.01-0.092-0.012c-0.089,0-0.186-0.027-0.283-0.088c-0.04-0.027-0.09-0.049-0.137-0.068
		c-0.045-0.068-0.143-0.129-0.231-0.195c-0.368-0.273-0.753-0.535-1.269-0.543C47.976,95.91,47.26,95.977,46.973,95.963
		L46.973,95.963z"/>
</g>
<g>
	<path fill-rule="evenodd" clip-rule="evenodd" fill="#E7E7E7" d="M786.461,791.069c17.519,5.613,35.07,11.336,52.629,16.953
		c17.558,5.734,35.1,11.34,52.66,16.936c-6.051,19.816-12.084,39.625-18.107,59.418c-6.018,19.773-12.055,39.564-18.061,59.367
		c-9.087,4.195-18.141,8.395-27.193,12.59c-13.991-4.52-28.009-8.986-42.043-13.545c-13.981-4.553-27.977-9.01-42.004-13.578
		c7.012-22.98,14.031-46.002,21.027-69.098C772.426,837.091,779.451,814.077,786.461,791.069z"/>
	<path fill-rule="evenodd" clip-rule="evenodd" fill="#BBBDBF" d="M855.582,943.743c-9.087,4.195-18.141,8.395-27.193,12.59
		c5.564-8.271,11.145-16.541,16.729-24.924C848.594,935.556,852.081,939.661,855.582,943.743z"/>
	<path fill-rule="evenodd" clip-rule="evenodd" fill="#D1D2D3" d="M808.964,821.626c9.966,3.287,15.546,14.227,12.397,24.49
		s-13.765,15.939-23.754,12.746c-9.961-3.195-15.545-14.189-12.399-24.477C788.358,824.112,798.975,818.435,808.964,821.626z"/>
	<path fill-rule="evenodd" clip-rule="evenodd" fill="#FFCB0A" d="M803.496,820.729c-0.051,6.568-0.139,13.012-0.211,19.568
		c5.832-2.486,11.721-4.941,17.562-7.371c-2.044-5.219-8.188-10.059-11.883-11.301C805.217,820.497,805.292,820.749,803.496,820.729
		z"/>
	<path fill-rule="evenodd" clip-rule="evenodd" fill="#F38480" d="M820.847,832.927c-5.841,2.43-11.729,4.885-17.562,7.371
		c3.375,5.42,6.762,10.938,10.159,16.379c3.661-2.395,6.528-6.041,7.917-10.561C822.751,841.558,822.426,836.94,820.847,832.927z"/>
	<path fill-rule="evenodd" clip-rule="evenodd" fill="#57C4CF" d="M803.285,840.298c0.072-6.557,0.16-13,0.211-19.568
		c-8.133-0.066-15.434,4.316-18.288,13.656c-2.827,9.391,4.634,21.971,12.399,24.477c7.765,2.496,11.326,0.811,15.837-2.186
		C810.047,851.235,806.66,845.718,803.285,840.298z"/>
	<path fill-rule="evenodd" clip-rule="evenodd" fill="#57C4CF" d="M831.277,834.794c1.827,0.572,3.71,1.26,5.6,1.824
		c-0.607,1.949-1.213,3.793-1.76,5.723c-1.895-0.555-3.744-1.137-5.603-1.822C830.076,838.632,830.667,836.745,831.277,834.794z"/>
	<path fill-rule="evenodd" clip-rule="evenodd" fill="#FFCB0A" d="M827.945,845.599c1.864,0.686,3.758,1.246,5.594,1.805
		c-0.555,1.949-1.164,3.902-1.748,5.84c-1.852-0.672-3.744-1.232-5.564-1.807C826.764,849.495,827.373,847.54,827.945,845.599z"/>
	<path fill-rule="evenodd" clip-rule="evenodd" fill="#F38480" d="M824.776,856.108c1.865,0.574,3.706,1.244,5.597,1.809
		c-0.607,1.943-1.164,3.896-1.761,5.721c-1.894-0.559-3.721-1.137-5.589-1.813C823.621,859.995,824.166,858.063,824.776,856.108z"/>
	<path fill-rule="evenodd" clip-rule="evenodd" fill="#BBBDBF" d="M839.252,837.39c5.566,1.828,11.137,3.619,16.727,5.432
		c5.561,1.805,11.138,3.564,16.725,5.314c-0.174,0.723-0.386,1.318-0.589,1.92c-5.585-1.82-11.155-3.609-16.731-5.383
		c-5.586-1.721-11.143-3.557-16.723-5.365C838.865,838.632,839.08,838.003,839.252,837.39z"/>
	<path fill-rule="evenodd" clip-rule="evenodd" fill="#BBBDBF" d="M838.253,840.616c5.575,1.805,11.136,3.617,16.717,5.443
		c5.572,1.818,11.14,3.609,16.735,5.408c-0.17,0.613-0.396,1.227-0.557,1.814c-5.59-1.752-11.149-3.512-16.717-5.332
		c-5.586-1.822-11.15-3.621-16.726-5.426C837.865,841.929,838.082,841.243,838.253,840.616z"/>
	<path fill-rule="evenodd" clip-rule="evenodd" fill="#BBBDBF" d="M837.297,843.829c6.899,2.289,13.799,4.488,20.668,6.777
		c-0.171,0.611-0.374,1.217-0.521,1.818c-6.922-2.172-13.846-4.371-20.756-6.645C836.9,845.155,837.072,844.55,837.297,843.829z"/>
	<path fill-rule="evenodd" clip-rule="evenodd" fill="#BBBDBF" d="M835.967,848.175c5.563,1.805,11.131,3.621,16.713,5.418
		c5.59,1.813,11.15,3.621,16.739,5.441c-0.224,0.613-0.386,1.205-0.589,1.889c-5.577-1.781-11.164-3.563-16.75-5.393
		c-5.555-1.814-11.141-3.635-16.704-5.432C835.58,849.495,835.742,848.899,835.967,848.175z"/>
	<path fill-rule="evenodd" clip-rule="evenodd" fill="#BBBDBF" d="M834.967,851.507c5.563,1.738,11.149,3.518,16.704,5.328
		c5.588,1.824,11.163,3.629,16.739,5.438c-0.172,0.609-0.394,1.262-0.6,1.934c-5.566-1.811-11.154-3.615-16.713-5.453
		c-5.564-1.826-11.148-3.615-16.719-5.439C834.581,852.716,834.799,852.122,834.967,851.507z"/>
	<path fill-rule="evenodd" clip-rule="evenodd" fill="#BBBDBF" d="M833.961,854.751c6.899,2.178,13.825,4.457,20.744,6.662
		c-0.18,0.611-0.385,1.227-0.602,1.912c-6.881-2.285-13.792-4.482-20.691-6.668C833.564,855.97,833.789,855.358,833.961,854.751z"/>
	<path fill-rule="evenodd" clip-rule="evenodd" fill="#BBBDBF" d="M832.746,858.685c5.562,1.799,11.139,3.646,16.718,5.445
		c5.569,1.795,11.16,3.604,16.735,5.369c-0.17,0.652-0.388,1.246-0.537,1.852c-5.585-1.795-11.174-3.566-16.735-5.303
		c-5.567-1.818-11.153-3.643-16.714-5.441C832.359,859.999,832.577,859.294,832.746,858.685z"/>
	<path fill-rule="evenodd" clip-rule="evenodd" fill="#BBBDBF" d="M788.413,917.987c5.564,1.828,11.149,3.619,16.715,5.443
		c5.567,1.826,11.152,3.553,16.728,5.322c-0.227,0.719-0.388,1.314-0.59,1.914c-5.589-1.816-11.165-3.623-16.741-5.396
		c-5.575-1.736-11.149-3.545-16.726-5.354C788.016,919.231,788.188,918.601,788.413,917.987z"/>
	<path fill-rule="evenodd" clip-rule="evenodd" fill="#BBBDBF" d="M830.797,865.251c6.912,2.191,13.81,4.377,20.715,6.668
		c-0.195,0.611-0.414,1.201-0.587,1.902c-6.922-2.281-13.829-4.453-20.742-6.748C830.396,866.476,830.569,865.868,830.797,865.251z"
		/>
	<path fill-rule="evenodd" clip-rule="evenodd" fill="#57C4CF" d="M851.955,885.147c-1.407-0.416-2.845-0.949-4.287-1.354
		c-2.242,7.422-4.537,14.859-6.827,22.367c-2.239,7.418-4.515,14.846-6.796,22.381c1.447,0.41,2.887,0.924,4.301,1.336
		c2.281-7.424,4.558-14.898,6.795-22.381C847.434,900.077,849.726,892.655,851.955,885.147z"/>
	<path fill-rule="evenodd" clip-rule="evenodd" fill="#FFCB0A" d="M839.837,897.103c-1.461-0.414-2.901-0.926-4.292-1.348
		c-3.085,10.064-6.168,20.123-9.252,30.301c1.449,0.402,2.91,0.924,4.314,1.342C833.668,917.339,836.753,907.228,839.837,897.103z"
		/>
	<path fill-rule="evenodd" clip-rule="evenodd" fill="#F38480" d="M834.357,887.276c-1.455-0.521-2.916-0.936-4.296-1.447
		c-3.837,12.602-7.702,25.117-11.52,37.723c1.447,0.414,2.91,0.828,4.313,1.352C826.666,912.368,830.518,899.786,834.357,887.276z"
		/>
	<path fill-rule="evenodd" clip-rule="evenodd" fill="#57C4CF" d="M825.155,889.452c-1.46-0.418-2.866-0.936-4.313-1.346
		c-3.33,10.959-6.662,21.918-10.037,32.859c1.445,0.514,2.894,0.92,4.3,1.441C818.48,911.464,821.811,900.405,825.155,889.452z"/>
	<path fill-rule="evenodd" clip-rule="evenodd" fill="#FFCB0A" d="M814.213,897.542c-1.46-0.527-2.906-0.932-4.299-1.424
		c-2.292,7.508-4.585,14.926-6.834,22.348c1.418,0.521,2.865,0.924,4.287,1.451C809.629,912.378,811.922,904.962,814.213,897.542z"
		/>
	<path fill-rule="evenodd" clip-rule="evenodd" fill="#F38480" d="M808.501,888.36c-1.46-0.508-2.868-0.918-4.313-1.441
		c-2.938,9.717-5.887,19.441-8.834,29.055c1.393,0.516,2.854,0.936,4.295,1.459C802.615,907.704,805.564,897.974,808.501,888.36z"/>
	<path fill-rule="evenodd" clip-rule="evenodd" fill="#57C4CF" d="M803.356,877.255c-1.46-0.477-2.866-0.9-4.302-1.4
		c-3.844,12.514-7.655,25.119-11.463,37.646c1.393,0.516,2.862,0.914,4.322,1.436C795.725,902.327,799.536,889.821,803.356,877.255z
		"/>
	<path fill-rule="evenodd" clip-rule="evenodd" fill="#FFCB0A" d="M794.064,879.788c-1.424-0.473-2.871-0.879-4.289-1.4
		c-3.328,10.871-6.621,21.783-9.926,32.605c1.392,0.518,2.84,0.918,4.301,1.379C787.433,901.515,790.744,890.679,794.064,879.788z"
		/>
	<path fill-rule="evenodd" clip-rule="evenodd" fill="#F38480" d="M783.646,886.132c-1.461-0.412-2.865-0.939-4.312-1.344
		c-2.421,7.898-4.852,15.766-7.239,23.715c1.395,0.439,2.869,0.934,4.328,1.35C778.809,902.013,781.201,894.06,783.646,886.132z"/>
	<path fill-rule="evenodd" clip-rule="evenodd" fill="#BBBDBF" d="M793.3,923.155c7.208,2.293,14.444,4.646,21.647,6.988
		c-0.227,0.609-0.387,1.205-0.59,1.92c-7.205-2.41-14.398-4.697-21.594-6.988C792.914,924.378,793.131,923.771,793.3,923.155z"/>
</g>
<g>
	<g>
		<path fill="#75CEDD" d="M503.488,583.336c-0.707,2.162-1.446,4.36-2.24,6.505l-0.395-0.153c0,0-6.354-42.777-53.892-42.577
			c1.822-12.337-0.741-19.038-0.741-19.038s-12.819-19.079-4.755-24.332c7.113-4.625,16.929,9.752,16.929,9.752
			s-2.155-30.111,7.688-31.193c6.949-0.772,7.5,26.124,7.5,26.124s2.973-30.096,11.59-26.776c7.525,2.91,6.981,30.903,6.981,30.903
			s4.435-19.316,9.32-18.586C509.395,495.189,521.459,526.986,503.488,583.336z"/>
		<path fill="#75CEDD" d="M471.765,640.571l0.687,0.599c-12.392,15.923-26.789,29.6-41.592,40.221c0,0-5.155-40.495-32.035-56.623
			c2.207-2.118,4.438-4.383,6.743-6.767c11.22-11.647,19.518-22.337,25.585-31.985C470.266,607.739,471.765,640.571,471.765,640.571
			z"/>
		<path fill="#F9CB15" d="M500.854,589.688l0.395,0.153c-6.84,18.772-16.894,36.064-28.796,51.329l-0.687-0.599
			c0,0-1.499-32.833-40.612-54.556c10.253-16.068,14.395-29.214,15.809-38.905C494.5,546.909,500.854,589.688,500.854,589.688z"/>
		<path fill="#F9CB15" d="M430.857,681.391c-22.196,16.06-45.323,25.32-63.997,25.395c-15.271,0.059-14.557-37.592-9.051-45.207
			c6.99-9.667,21.861-18.311,41.015-36.811C425.704,640.896,430.857,681.391,430.857,681.391z"/>
	</g>
	<g>
		<path fill="#75CEDD" d="M129.998,560.833l-0.036,0.47c0,0-34.916,17.894-47.108,80.265l-0.023,0.087
			c-17.972-8.741-34.95-23.354-40.488-47.776c-1.268-5.615-1.979-11.15-2.238-16.61c26.26-41.917,50.432-35.259,50.432-35.259
			C94.002,554.969,112.486,559.511,129.998,560.833z"/>
		<path fill="#46A5B2" d="M162.147,560.406c-0.446,0.576-0.859,1.154-1.284,1.726c-14.93,20.69-22.631,54.245-25.518,92.615
			l-0.25-0.016c0,0-27.077-0.776-52.264-13.077l0.023-0.087c12.194-62.371,47.108-80.265,47.108-80.265l0.037-0.47
			C144.254,561.905,157.899,560.813,162.147,560.406z"/>
		<path fill="#9AD8E0" d="M87.349,487.332c11.669,2.042-2.065,34.98,3.187,54.677c0,0-24.171-6.659-50.431,35.258
			C37.709,526.214,76.824,485.471,87.349,487.332z"/>
		<path fill="#9AD8E0" d="M427.135,504.919c-38.545-29.598-58.993-14.447-58.993-14.447c-1.605-20.399-25.454-46.15-15.236-52.383
			C362.174,432.455,412.376,456.191,427.135,504.919z"/>
		<path fill="#75CEDD" d="M430.581,521.323c2.928,24.854-8.129,44.805-22.007,59.641l-0.059-0.045
			c-32.189-53.949-70.874-57.849-70.874-57.849l-0.128-0.428c15.928-7.67,31.721-18.749,30.626-32.171
			c0,0,20.449-15.15,58.995,14.447C428.71,510.095,429.894,515.579,430.581,521.323z"/>
		<path fill="#46A5B2" d="M408.515,580.919l0.061,0.045c-10.069,10.745-21.606,18.823-30.437,24.054l-1.037,0.488
			c-13.727-33.034-31.342-60.651-53.652-76.858c4.417-1.667,9.194-3.669,14.065-6.005l0.128,0.428
			C337.644,523.071,376.328,526.97,408.515,580.919z"/>
		<path fill="#61BFAF" d="M323.45,528.647c22.31,16.207,39.926,43.823,53.652,76.858c44.972,108.008,49.169,273.749,43.839,287.69
			c-7.291,19.182-81.77,46.832-101.561,28.641c-12.955-11.924-0.196-26.971,1.986-31.123c1.477-2.992-1.362-31.578-8.419-41.684
			c-7.059-10.102-49.235-2.67-59.427,1.965c-7.827,3.574-6.891,39.494-5.647,42.055c1.221,2.543,22.823,19.213,12.192,34.213
			c-12.553,17.746-75.557,5.063-92.396-14.723c-13.4-15.811-40.227-154.342-32.326-257.792c2.888-38.37,10.588-71.924,25.519-92.615
			c0.423-0.571,0.839-1.149,1.284-1.726c55.159-74.111,139.497-43.287,139.497-43.287
			C309.41,519.787,316.641,523.669,323.45,528.647z"/>
	</g>
	<g>
		<path fill="#75CEDD" d="M140.998,814.877l0.831,0.121c-2.414,17.29-4.211,33.798-5.226,43.353l-0.223-0.029
			c-24.297,5.078-53.235-9.182-63.09-14.59c1.173-18.591,4.427-38.357,9.34-57.587C85.572,790.154,104.279,813.598,140.998,814.877z
			"/>
		<path fill="#75CEDD" d="M157.916,731.494l0.968,0.242c-2.882,11.927-6.333,26.065-9.699,40.59
			c-0.196,0.874-0.395,1.746-0.594,2.648l-0.245-0.064c-27.279-3.122-45.199-28.63-49.812-35.967
			c5.994-13.949,12.838-26.583,20.308-37.003C121.338,706.382,134.711,728.252,157.916,731.494z"/>
		<path fill="#F9CB15" d="M90.291,892.495c-0.083-0.344-0.164-0.666-0.219-0.871C90.126,891.858,90.208,892.151,90.291,892.495z
			 M107.074,889.942c0.488,2.188,4.549,21.207-4.013,22.525c-6.177,0.959-10.703-12.615-12.392-18.594
			c1.087,4.488,2.87,13.209,1.247,16.381c-3.411,6.617-19.831-13.984-19.128-54.885c0.074-3.816,0.234-7.717,0.502-11.643
			c9.854,5.41,38.793,19.668,63.09,14.592l0.223,0.029c-0.525,5.238-0.82,8.383-0.82,8.383s6.514,14.514,1.793,23.18
			c-4.163,7.662-11.756-12.223-11.756-12.223s2.597,28.686-6.76,29.219C112.524,907.278,107.649,891.843,107.074,889.942z"/>
		<path fill="#F9CB15" d="M148.346,774.911l0.245,0.063c-2.548,11.667-4.862,26.104-6.762,40.023l-0.831-0.121
			c-36.72-1.279-55.426-24.723-58.368-28.733c4.179-16.467,9.575-32.551,15.902-47.2
			C103.147,746.282,121.067,771.788,148.346,774.911z"/>
		<path fill="#F9CB15" d="M143.877,677.515c13.408-7.703,21.549,13.598,21.363,23.171c-0.078,4.281-2.71,15.891-6.357,31.051
			l-0.968-0.242c-23.204-3.242-36.577-25.112-39.073-29.554C126.621,691.093,135.048,682.597,143.877,677.515z"/>
	</g>
	<path fill="#61BFAF" d="M222.441,552.239c0,0,13.492,15.026,26.919,10.03c10.337-3.852-4.102-17.213-4.102-17.213
		s21.24,19.297,35.083,16.605c10.316-2.016-7.912-20.509-7.912-20.509s28.886,18.232,37.621,10.386
		c7.195-6.432-10.574-15.158-10.574-15.158s29.39,1.639,29.824-17.525c0.446-19.167-9.236-3.477-19.132-3.004
		c-9.931,0.473-20.325-1.64-20.325-1.64"/>
	<path fill="#18A399" d="M223.079,551.596c1.463,1.474,3.146,2.848,4.821,4.074c1.682,1.213,3.494,2.347,5.332,3.287
		c0.928,0.43,1.848,0.903,2.785,1.236c0.925,0.361,1.863,0.684,2.837,0.889c0.99,0.301,1.979,0.342,2.951,0.497
		c0.972,0.02,1.978,0.087,2.934-0.038c0.95-0.147,1.884-0.227,2.805-0.583l1.169-0.377l1.419-0.752
		c0.264-0.268,0.374-0.468,0.663-0.626c0.021-0.304,0.309-0.49,0.368-0.807c0.035-0.308,0.097-0.581,0.065-0.979
		c0.007-0.352-0.118-0.757-0.26-1.178c-0.199-0.827-0.652-1.703-1.136-2.547c-0.499-0.848-1.116-1.684-1.775-2.488
		c-1.218-1.607-2.679-3.181-4.161-4.527c-0.823-0.787-0.935-2.152-0.125-3.049c0.7-0.875,1.935-0.978,2.835-0.251l0.018,0.044
		c1.986,1.702,4.166,3.375,6.295,4.932c2.157,1.574,4.354,3.05,6.637,4.404c2.298,1.388,4.615,2.568,6.944,3.673
		c1.17,0.542,2.332,0.996,3.551,1.446c1.198,0.342,2.423,0.817,3.591,0.99c1.178,0.309,2.38,0.377,3.518,0.437
		c0.633,0.098,1.164-0.085,1.768-0.103l0.803-0.079l0.136-0.009l0.007-0.002c-0.373,0.076-0.06,0.019-0.163,0.035l0.016-0.005
		l0.095-0.018l0.208-0.067l0.489-0.129c0.227-0.129,0.373-0.204,0.407-0.273c0.014-0.044,0.06-0.039,0.072-0.329
		c0.006-0.601-0.333-1.74-0.854-2.799c-1.055-2.179-2.586-4.366-4.254-6.445c-1.615-2.063-3.428-4.119-5.253-5.976
		c-1.016-1.044-1.061-2.762-0.039-3.834c0.811-0.908,2.111-1.063,3.108-0.451l0.018,0.01c2.084,1.292,4.339,2.558,6.626,3.741
		c2.249,1.192,4.529,2.299,6.784,3.363c4.556,2.096,9.315,3.939,13.962,4.689c2.291,0.354,4.609,0.348,6.224-0.361
		c0.387-0.185,0.741-0.398,1.061-0.649l0.089-0.043l0.007-0.007c0.022-0.021-0.248,0.214-0.136,0.107l0.02-0.021l0.072-0.043
		l0.116-0.175l0.406-0.352c0.028-0.127,0.058-0.141,0.124-0.274c0.297-0.476,0.346-0.721,0.026-1.51
		c-0.294-0.742-0.979-1.636-1.739-2.44c-0.755-0.821-1.667-1.604-2.628-2.337c-1.954-1.454-4.108-2.803-6.256-3.901l-0.055-0.017
		c-1.132-0.604-1.61-2.086-1.011-3.314c0.426-0.905,1.314-1.415,2.188-1.372c1.589,0.076,3.382,0.043,5.143-0.065
		c1.695-0.102,3.386-0.288,5.137-0.557c0.852-0.104,1.663-0.268,2.495-0.459c0.813-0.157,1.673-0.358,2.484-0.617
		c1.6-0.44,3.198-1.056,4.696-1.805c1.436-0.732,2.807-1.663,3.978-2.747c1.152-1.095,2.073-2.405,2.774-3.828
		c0.225-0.763,0.61-1.495,0.761-2.273l0.381-2.458c0.079-1.784,0.05-3.623-0.098-5.274c-0.134-0.807-0.335-1.618-0.566-2.107
		c-0.266-0.53-0.313-0.516-0.727-0.598c-0.925-0.075-2.71,0.797-4.16,1.608c-3.193,1.662-6.452,3.773-10.428,4.34
		c-0.51,0.06-0.965,0.104-1.558,0.099l-1.351-0.047l-2.663-0.093c-1.792-0.045-3.589-0.105-5.414-0.376
		c-1.813-0.229-3.629-0.377-5.396-0.724c-1.808-0.33-3.623-0.618-5.375-1.032c-0.355-0.084-0.602-0.457-0.53-0.837
		c0.102-0.357,0.415-0.59,0.813-0.534c1.723,0.278,3.507,0.438,5.277,0.636c1.747,0.215,3.548,0.215,5.328,0.363
		c1.715,0.167,3.506,0.137,5.307,0.08l2.665-0.05l1.346-0.025c0.384-0.014,0.826-0.073,1.174-0.142
		c3.193-0.605,6.183-2.638,9.289-4.547c1.617-0.895,3.114-2.115,5.816-2.232c0.72,0.021,1.492,0.229,2.171,0.7
		c0.631,0.46,1.081,1.066,1.386,1.643c0.642,1.171,0.875,2.238,1.008,3.286c0.373,2.091,0.391,4.05,0.374,6.033l-0.395,3.165
		c-0.196,1.039-0.57,2.057-0.956,3.077c-0.847,1.967-2.03,3.779-3.506,5.247c-1.471,1.459-3.117,2.663-4.845,3.592
		c-1.771,0.955-3.542,1.712-5.364,2.278c-0.906,0.318-1.821,0.57-2.74,0.777c-0.917,0.244-1.839,0.455-2.762,0.604
		c-1.847,0.37-3.708,0.563-5.566,0.7c-1.876,0.136-3.679,0.206-5.679,0.133l1.147-4.704c2.492,1.263,4.783,2.623,7.039,4.276
		c1.062,0.838,2.187,1.743,3.262,2.809c0.986,1.065,2.041,2.273,2.818,4.006c0.79,1.629,0.911,4.397-0.273,6.231
		c-0.209,0.463-0.642,0.931-0.965,1.342l-0.339,0.355l-0.202,0.174l-0.156,0.202l-0.161,0.106c-0.675,0.596-1.451,1.057-2.229,1.421
		c-3.12,1.344-6.142,1.17-8.887,0.824c-5.507-0.829-10.482-2.766-15.352-4.896c-2.384-1.072-4.712-2.272-7.032-3.525
		c-2.33-1.267-4.593-2.554-6.889-3.991l3.077-4.274c1.996,2.095,3.842,4.206,5.65,6.479c1.722,2.287,3.418,4.634,4.791,7.501
		c0.645,1.462,1.293,3.03,1.309,5.27c-0.007,1.12-0.378,2.536-1.229,3.572c-0.827,1.066-1.92,1.565-2.981,1.93l-0.45,0.128
		l-0.259,0.062l-0.062,0.018l-0.166,0.048l-0.035,0.003l-0.175,0.017l-1.149,0.118c-0.783,0.03-1.583,0.218-2.324,0.111
		c-1.51-0.081-3.009-0.208-4.422-0.579c-1.492-0.237-2.792-0.77-4.172-1.192c-1.33-0.51-2.657-1.035-3.904-1.638
		c-2.593-1.2-5.049-2.61-7.347-4.128c-2.349-1.513-4.625-3.124-6.891-4.836c-2.186-1.708-4.276-3.462-6.456-5.394l2.715-3.254
		c1.693,1.649,3.174,3.328,4.561,5.212c0.654,0.933,1.307,1.916,1.898,2.981c0.542,1.067,1.115,2.192,1.424,3.509
		c0.219,0.646,0.391,1.322,0.391,2.098c0.04,0.72-0.113,1.53-0.334,2.309c-0.125,0.774-0.682,1.448-1.059,2.123
		c-0.59,0.534-1.306,1.126-1.813,1.482l-1.457,0.682l-0.118,0.04l-0.244,0.099l-0.007,0.014l-0.239,0.057l-0.423,0.108l-0.823,0.219
		c-1.148,0.362-2.28,0.416-3.462,0.52c-1.117,0.084-2.3-0.043-3.402-0.139c-1.145-0.227-2.283-0.356-3.344-0.741
		c-1.093-0.296-2.154-0.707-3.129-1.159c-1.063-0.427-2.032-0.986-3.014-1.509c-1.947-1.12-3.745-2.397-5.439-3.813
		c-1.688-1.425-3.295-2.95-4.794-4.646c-0.323-0.376-0.301-0.962,0.056-1.312c0.334-0.333,0.854-0.327,1.21,0.006L223.079,551.596z"
		/>
	<path fill="#211611" d="M201.031,612.506c0,0-0.043-0.263-0.13-0.697c-0.076-0.433-0.208-1.037-0.274-1.802
		c-0.14-1.645-0.347-3.904-0.022-6.722c0.152-1.408,0.417-2.923,0.905-4.513c0.485-1.602,1.134-3.262,2.163-4.801l0.765-1.218
		l0.936-1.101c0.596-0.798,1.355-1.395,2.131-1.988c0.747-0.712,1.624-1.118,2.484-1.585c0.849-0.567,1.768-0.804,2.683-1.119
		l0.686-0.199l0.342-0.093l0.085-0.053l0.3-0.09l0.152-0.02l1.225-0.153c0.7-0.141,1.891-0.11,2.937-0.085
		c2.076,0.131,3.838,0.747,5.525,1.583c1.581,0.866,2.992,1.918,4.183,3.018c1.154,1.153,2.114,2.299,2.88,3.398
		c0.864,1.15,1.49,2.219,2.014,3.193c0.538,0.969,0.94,1.867,1.235,2.563c0.38,0.747,0.559,1.322,0.712,1.753
		c0.146,0.399,0.191,0.623,0.191,0.623c0.32,0.782-0.056,1.577-0.804,1.866c-0.636,0.21-1.298-0.016-1.607-0.556l-0.094-0.166
		c0,0-0.102-0.136-0.31-0.475c-0.187-0.28-0.479-0.756-0.911-1.331c-0.743-1.223-1.941-2.847-3.567-4.598
		c-0.785-0.903-1.712-1.701-2.714-2.526c-0.992-0.848-2.125-1.462-3.297-2.035c-0.598-0.265-1.206-0.461-1.827-0.662
		c-0.61-0.064-1.309-0.276-1.847-0.23c-0.574,0.016-1.026-0.103-1.946,0.086l-1.22,0.228l-0.807,0.261
		c-1.337,0.403-2.58,0.994-3.639,1.812c-0.54,0.427-1.064,0.811-1.5,1.347l-0.697,0.688l-0.582,0.84
		c-0.788,1.055-1.382,2.253-1.883,3.489c-0.481,1.191-0.839,2.451-1.123,3.583c-0.524,2.364-0.797,4.399-0.873,5.839
		c-0.042,0.746-0.08,1.309-0.095,1.695c-0.007,0.409-0.011,0.583-0.011,0.583l-0.002,0.081c-0.021,0.81-0.658,1.452-1.423,1.434
		C201.708,613.633,201.167,613.139,201.031,612.506z"/>
	<path fill="#211611" d="M297.899,591.206c0,0-0.001-0.245-0.004-0.643c-0.006-0.45-0.046-1.133,0.001-1.889
		c0.042-1.644,0.2-3.901,0.927-6.644c0.389-1.377,0.875-2.84,1.561-4.316c0.73-1.48,1.622-3.036,2.837-4.411l0.932-1.056
		l1.111-0.932c0.676-0.668,1.49-1.155,2.346-1.627c0.888-0.546,1.813-0.83,2.737-1.168c0.917-0.384,1.852-0.5,2.778-0.649
		l0.717-0.108l0.351-0.054l0.09-0.014l0.278-0.011l0.183,0.002l1.206,0.021c0.77-0.054,1.896,0.176,2.948,0.383
		c2.061,0.476,3.684,1.4,5.239,2.465c1.459,1.12,2.666,2.377,3.654,3.686c1.025,1.292,1.777,2.576,2.424,3.83
		c0.639,1.207,1.094,2.404,1.441,3.454c0.417,1.037,0.692,1.973,0.878,2.765c0.254,0.727,0.385,1.383,0.458,1.762
		c0.044,0.448,0.098,0.712,0.098,0.712c0.165,0.758-0.329,1.552-1.053,1.682c-0.677,0.182-1.335-0.211-1.561-0.793l-0.047-0.169
		c0,0-0.081-0.154-0.207-0.511c-0.165-0.302-0.431-0.838-0.695-1.498c-0.617-1.313-1.591-3.11-2.913-5.074
		c-0.595-0.99-1.441-1.987-2.313-2.94c-0.831-0.983-1.899-1.811-2.904-2.589c-0.583-0.304-1.157-0.627-1.769-0.905
		c-0.537-0.156-1.221-0.513-1.785-0.556c-0.55-0.071-1-0.282-1.939-0.223l-1.206,0.002l-0.837,0.149
		c-1.381,0.193-2.667,0.559-3.895,1.218c-0.541,0.281-1.139,0.609-1.644,1.048l-0.762,0.592l-0.727,0.729
		c-0.935,0.914-1.7,2.046-2.399,3.153c-0.6,1.098-1.158,2.295-1.607,3.387c-0.833,2.254-1.433,4.237-1.712,5.657
		c-0.148,0.672-0.264,1.219-0.37,1.598c-0.063,0.395-0.074,0.579-0.074,0.579l-0.002,0.058c-0.145,0.82-0.895,1.351-1.621,1.221
		C298.372,592.435,297.911,591.842,297.899,591.206z"/>
	<g>
		<path fill="#FFFFFF" d="M234.304,615.917c5.665,0.243,12.318,2.379,21.117,3.179l-0.009,0.648c0,0,0.207,18.245-13.063,16.822
			c-10.249-1.072-8.091-20.483-8.091-20.483L234.304,615.917z"/>
		<path fill="#FFFFFF" d="M315.109,598.888c0,0,5.638,19.488-5.791,24.611c-10.834,4.86-15.63-11.416-15.63-11.416l-0.183-0.313
			c8.979-5.104,15.476-11.357,21.543-13.104L315.109,598.888z"/>
		<path fill="#211611" d="M309.317,623.499c11.43-5.123,5.791-24.611,5.791-24.611l-0.06-0.219
			c4.549-1.247,8.893-0.055,13.799,5.939c6.917,8.374,9.207,36.241-10.418,54.562l-0.468-0.537
			c-41.021-27.404-65.016,13.015-66.697,16.017c-38.316-7.151-40.107-41.01-32.638-50.879c5.024-6.654,9.815-8.195,15.676-7.853
			l-0.046,0.166c0,0-2.159,19.411,8.092,20.483c13.269,1.424,13.063-16.82,13.063-16.82l0.009-0.648
			c5.228,0.514,11.132,0.689,18.077-0.249c7.964-1,14.439-3.809,20.005-7.077l0.186,0.313
			C293.688,612.083,298.484,628.359,309.317,623.499z"/>
		<path fill="#F9CB15" d="M317.964,658.631l0.466,0.537c-8.951,8.358-22.364,14.714-41.892,16.371
			c-9.787,0.825-18.147,0.438-25.272-0.892C252.947,671.647,276.942,631.228,317.964,658.631z"/>
	</g>
	<path fill="#378E7B" d="M234.624,916.599c0,0,1.53-0.1,3.692,0.314c1.096,0.246,2.359,0.514,3.69,1.115
		c0.658,0.264,1.347,0.609,1.952,0.996c0.719,0.342,1.301,0.85,1.96,1.303c0.566,0.568,1.186,1.072,1.644,1.711
		c0.485,0.643,0.995,1.246,1.385,1.955c0.405,0.664,0.646,1.367,0.852,2.059c0.159,0.68,0.358,1.322,0.395,1.936
		c0.171,1.221,0.121,2.225,0.054,2.91c-0.099,0.689-0.144,1.082-0.144,1.082c-0.043,0.396-0.381,0.682-0.729,0.635
		c-0.384-0.037-0.595-0.299-0.637-0.619l-0.017-0.127c0,0-0.046-0.354-0.154-0.975c-0.031-0.305-0.07-0.672-0.093-1.1
		c-0.017-0.412-0.22-0.867-0.317-1.365c-0.107-0.504-0.281-1.01-0.552-1.531c-0.117-0.531-0.493-1.037-0.789-1.559
		c-0.234-0.553-0.673-1.01-1.114-1.506c-0.421-0.498-0.927-0.881-1.372-1.332c-0.549-0.359-1.015-0.838-1.626-1.148
		c-0.554-0.354-1.135-0.682-1.656-0.938c-1.164-0.549-2.257-1.033-3.202-1.361c-1.991-0.682-3.293-1.006-3.293-1.006
		c-0.383-0.09-0.643-0.486-0.554-0.889C234.101,916.837,234.341,916.618,234.624,916.599z"/>
	<path fill="#378E7B" d="M248.41,910.153c-0.003,0,1.364,0.215,3.099,1.176c0.883,0.48,1.898,1.107,2.887,1.957
		c0.933,0.893,1.931,1.875,2.661,3.059c0.411,0.568,0.674,1.219,1.068,1.826c0.303,0.604,0.505,1.27,0.763,1.875
		c0.231,0.607,0.313,1.258,0.497,1.84c0.167,0.586,0.17,1.158,0.229,1.672c0.201,1.033,0.109,1.912,0.106,2.512
		c-0.047,0.602-0.078,0.943-0.078,0.943c-0.022,0.402-0.32,0.707-0.701,0.688c-0.312-0.018-0.571-0.256-0.658-0.568l-0.027-0.088
		c0,0-0.063-0.313-0.122-0.861c-0.056-0.273-0.142-0.602-0.212-0.979c-0.046-0.383-0.216-0.777-0.285-1.24
		c-0.211-0.91-0.619-1.904-1.027-2.955c-0.269-0.506-0.433-1.064-0.75-1.566c-0.3-0.498-0.536-1.035-0.926-1.498
		c-0.639-1.012-1.399-1.904-2.238-2.713c-0.786-0.738-1.496-1.498-2.301-2.01c-1.438-1.117-2.424-1.688-2.426-1.688
		c-0.406-0.191-0.479-0.625-0.364-0.992C247.78,910.251,248.057,910.104,248.41,910.153z"/>
	<path fill="#378E7B" d="M325.168,904.085c-0.002,0-0.179,0.26-0.47,0.676c-0.273,0.381-0.586,1.039-1.067,1.773
		c-0.29,0.357-0.413,0.801-0.671,1.246c-0.165,0.463-0.505,0.896-0.651,1.402c-0.229,0.502-0.408,1.023-0.646,1.551
		c-0.229,0.514-0.323,1.088-0.498,1.645c-0.174,0.557-0.316,1.111-0.481,1.662c-0.166,0.551-0.167,1.121-0.199,1.662
		c-0.052,0.541-0.19,1.063-0.269,1.564c-0.147,0.498-0.062,0.98-0.084,1.426c-0.001,1.775-0.067,3.014-0.067,3.014l-0.002,0.139
		c-0.012,0.4-0.403,0.695-0.754,0.664c-0.283-0.021-0.568-0.254-0.635-0.543c0,0-0.278-1.244-0.558-3.191
		c-0.073-0.486-0.235-1.014-0.171-1.582c0.019-0.553,0.013-1.162,0.069-1.783c0.074-0.609,0.054-1.266,0.202-1.902
		c0.136-0.639,0.29-1.277,0.452-1.924c0.258-1.313,0.925-2.459,1.4-3.594c0.255-0.572,0.637-1.033,0.923-1.508
		c0.37-0.451,0.61-0.904,0.923-1.26c0.63-0.748,1.225-1.303,1.666-1.688c0.431-0.395,0.653-0.525,0.653-0.525l0.121-0.051
		c0.331-0.184,0.776-0.039,0.932,0.32C325.418,903.552,325.372,903.868,325.168,904.085z"/>
	<path fill="#378E7B" d="M334.131,909.063c0,0-0.541,1.018-1.35,2.547c-0.734,1.543-1.743,3.592-2.415,5.723
		c-0.352,1.055-0.615,2.129-0.728,3.143c-0.023,0.506-0.184,0.998-0.163,1.459c0.002,0.463-0.069,0.916-0.006,1.318
		c0.07,0.805,0.104,1.506,0.273,1.971c0.032,0.484,0.082,0.764,0.082,0.764c0.185,0.373,0.002,0.799-0.318,0.965
		c-0.337,0.164-0.731,0.004-0.916-0.365c0.061-0.018-0.724-1.074-1.15-3.023c-0.144-0.486-0.163-1.016-0.242-1.582
		c-0.083-0.566-0.04-1.16-0.018-1.781c0.097-1.225,0.317-2.5,0.717-3.729c0.417-1.211,0.915-2.379,1.409-3.408
		c0.511-1.057,1.203-1.916,1.753-2.672c1.045-1.457,1.99-2.279,1.99-2.279c0.358-0.258,0.801-0.211,1.02,0.105
		c0.214,0.242,0.234,0.57,0.07,0.828L334.131,909.063z"/>
	<path fill="#ED96B1" d="M266.75,679.434c-34.187,0-46.827-16.464-51.32-26.279c-5.687-12.438-3.917-25.527,0.636-31.508
		c4.832-6.431,10.042-9.213,16.886-9.213c3.5,0,7.067,0.652,11.228,1.471c5.385,1.018,11.496,2.153,19.073,2.153
		c3.247,0,6.543-0.19,9.884-0.634c12.249-1.615,20.669-7.559,28.18-12.807c6.021-4.19,11.231-7.865,16.901-7.865
		c4.619,0,8.933,2.463,13.134,7.575c5.949,7.229,8.372,24.285,2.102,40.397c-4.654,12.154-18.31,33.031-56.658,36.264
		C273.375,679.3,269.964,679.434,266.75,679.434z M232.951,619.328c-4.039,0-7.57,1.121-11.745,6.582
		c-2.751,3.65-4.604,13.852,0.144,24.24c3.827,8.361,14.805,22.376,45.4,22.376c3.006,0,6.218-0.141,9.486-0.414
		c33.157-2.814,46.122-18.949,51.186-32.006c5.512-14.249,2.926-28.444-1.02-33.238c-3.843-4.608-6.512-5.147-8.184-5.147
		c-3.695,0-8.125,3.08-13.258,6.651c-7.686,5.388-17.227,12.118-31.053,13.906c-3.543,0.464-7.127,0.672-10.654,0.672
		c-8.166,0-14.828-1.218-20.272-2.234C239.19,619.955,235.833,619.328,232.951,619.328z"/>
	<path fill="#18A399" d="M378.464,710.544c1.88,2.281,3.55,4.715,4.989,7.388c0.701,1.361,1.384,2.734,1.86,4.288
		c0.256,0.785,0.454,1.611,0.588,2.496c0.044,0.458,0.104,0.925,0.121,1.386c-0.027,0.524-0.074,1.031-0.144,1.546
		c-0.13,0.538-0.36,1.108-0.581,1.645c-0.275,0.521-0.709,0.995-1.107,1.455l-0.08,0.087l-0.042,0.041l-0.019,0.022l-0.184,0.136
		l-0.102,0.078l-0.217,0.162l-0.43,0.315c-0.271,0.214-0.888,0.495-1.337,0.712c-0.938,0.387-1.753,0.609-2.619,0.714
		c-0.853,0.126-1.693,0.146-2.494,0.097c-1.627-0.08-3.15-0.369-4.639-0.771c-0.73-0.204-1.469-0.425-2.176-0.689
		c-0.758-0.271-1.384-0.548-2.217-0.926l3.678-2.996c0.264,1.408,0.435,2.667,0.525,4.021c0.123,1.331,0.165,2.688,0.105,4.106
		c-0.053,1.374-0.273,2.836-0.713,4.341c-0.253,0.769-0.565,1.544-1.052,2.329c-0.5,0.743-1.113,1.558-1.985,2.09
		c-0.414,0.288-0.834,0.572-1.307,0.696c-0.543,0.153-0.765,0.295-1.563,0.386l-1.789,0.103c-0.522,0.063-1.428-0.095-2.089-0.155
		c-0.757-0.058-1.449-0.204-2.109-0.393c-0.606-0.162-1.287-0.323-1.881-0.585c-0.619-0.242-1.276-0.446-1.843-0.756
		c-0.581-0.271-1.193-0.559-1.782-0.916c-0.536-0.327-1.042-0.677-1.706-1.136l3.304-1.138c-0.27,0.663-0.484,1.094-0.749,1.611
		c-0.292,0.494-0.568,0.978-0.917,1.431c-0.657,0.919-1.39,1.814-2.316,2.515c-0.933,0.719-2.043,1.26-3.215,1.581
		c-0.534,0.096-1.144,0.245-1.736,0.215c-0.576,0.031-1.106-0.031-1.688-0.134l-0.407-0.078c-0.342-0.079-0.319-0.088-0.454-0.138
		l-0.683-0.214c-0.502-0.227-1.112-0.512-1.564-0.857c-1.012-0.629-1.793-1.604-2.287-2.644c-0.518-1.046-0.826-2.157-0.882-3.229
		c-0.041-1.089,0-2.106,0.216-3.184c0.08-0.377,0.431-0.619,0.763-0.537c0.366,0.074,0.543,0.357,0.547,0.676l0.004,0.072
		c0.02,1.762,0.466,3.65,1.375,4.872c0.249,0.322,0.495,0.572,0.78,0.817c0.25,0.229,0.516,0.424,0.902,0.571
		c0.305,0.166,0.502,0.2,0.933,0.323l0.655,0.126c0.062,0.006,0.323,0.089,0.254,0.03h0.246c1.49,0.098,2.739-0.431,3.765-1.452
		c0.525-0.511,1.005-1.125,1.38-1.807c0.192-0.335,0.382-0.696,0.571-1.054c0.099-0.351,0.3-0.8,0.367-1.043
		c0.288-1.158,1.46-1.84,2.507-1.521c0.187,0.046,0.357,0.121,0.445,0.181l0.378,0.189c0.333,0.211,0.851,0.495,1.329,0.722
		c0.479,0.229,0.984,0.429,1.475,0.627c0.485,0.231,0.962,0.36,1.439,0.518c0.493,0.189,1.011,0.266,1.529,0.363
		c0.517,0.127,1,0.201,1.415,0.196c0.487-0.006,0.747,0.152,1.413,0.052l1.754-0.152c-0.118-0.074,0.352-0.083,0.382-0.236
		c0.197-0.058,0.345-0.306,0.471-0.546c0.186-0.27,0.353-0.634,0.434-1.058c0.247-0.865,0.425-1.874,0.434-2.973
		c0.042-1.084,0.022-2.217-0.022-3.361c-0.085-1.123-0.242-2.334-0.425-3.369l-0.002-0.043c-0.256-1.481,0.679-2.904,2.089-3.173
		c0.563-0.105,1.11-0.014,1.586,0.217c0.462,0.237,1.103,0.518,1.682,0.741c0.603,0.248,1.186,0.467,1.792,0.66
		c1.2,0.391,2.421,0.675,3.584,0.792c0.584,0.066,1.152,0.063,1.69,0.026c0.513,0,1.07-0.134,1.453-0.236
		c0.173-0.096,0.249-0.009,0.552-0.201l0.453-0.275l0.228-0.142l0.123-0.071l0.002-0.007c-0.337,0.254-0.096,0.07-0.171,0.127
		l0.002-0.003l0.005-0.013l0.01-0.016c0.042-0.1,0.153-0.126,0.229-0.218c0.033-0.15,0.122-0.243,0.197-0.402
		c0.02-0.212,0.067-0.424,0.127-0.637l0.014-0.818c-0.023-0.559-0.094-1.188-0.233-1.821c-0.239-1.272-0.703-2.591-1.144-3.908
		c-0.99-2.612-2.19-5.241-3.489-7.789l-0.012-0.02c-0.228-0.454-0.068-1.032,0.362-1.261
		C377.757,710.121,378.201,710.223,378.464,710.544z"/>
	<path fill="#18A399" d="M182.76,685.103c-0.649,2.527-1.263,5.054-1.609,7.53c-0.189,1.232-0.266,2.455-0.263,3.597
		c0.017,0.562,0.042,1.123,0.129,1.616l0.146,0.716l0.233,0.585c0.05,0.228,0.178,0.316,0.252,0.468
		c0.077,0.157,0.164,0.289,0.292,0.356c0.065,0.035,0.292,0.325,0.188,0.188c0.257,0.152,0.58,0.371,0.783,0.464
		c0.063-0.061,0.068-0.067,0.103-0.043c0.101-0.038,0.181-0.014,0.278-0.018c0.189-0.047,0.431-0.098,0.739-0.283
		c0.611-0.36,1.341-1.091,1.981-1.955c0.319-0.428,0.654-0.874,0.95-1.389c0.297-0.44,0.615-0.993,0.819-1.411l0.05-0.092
		c0.663-1.325,2.216-1.835,3.477-1.131c1.124,0.626,1.625,2.007,1.239,3.234c-0.261,0.844-0.516,1.878-0.703,2.812
		c-0.224,0.972-0.37,1.941-0.475,2.908c-0.09,0.958-0.105,1.894-0.042,2.749c0.018,0.433,0.098,0.826,0.174,1.212
		c0.105,0.356,0.193,0.728,0.357,0.991c0.11,0.353,0.354,0.489,0.513,0.784c0.121,0.095,0.24,0.185,0.353,0.295l0.092,0.084
		c-0.034-0.008,0.138,0.079-0.064-0.005l0.086,0.044l0.348,0.163c0.542,0.307,0.805,0.356,1.119,0.497
		c0.354,0.066,0.722,0.163,1.097,0.163c0.741,0.018,1.508-0.21,2.256-0.688c0.726-0.475,1.467-1.187,2.012-1.944l0.05-0.07
		c0.22-0.312,0.636-0.386,0.931-0.141c0.232,0.188,0.318,0.502,0.231,0.77c-0.369,1.202-0.92,2.253-1.758,3.199
		c-0.811,0.96-1.995,1.694-3.305,2.013c-0.66,0.158-1.322,0.195-1.995,0.163c-0.702-0.07-1.46-0.237-1.876-0.385l-0.379-0.109
		l-0.091-0.023l-0.235-0.104L191,712.787l-0.976-0.54c-0.564-0.467-1.189-0.988-1.566-1.62c-0.465-0.611-0.746-1.261-1.028-1.921
		c-0.239-0.646-0.431-1.313-0.557-1.955c-0.271-1.299-0.295-2.547-0.292-3.778c0.037-1.212,0.125-2.417,0.301-3.599
		c0.196-1.174,0.419-2.262,0.761-3.509l4.771,2.013c-0.359,0.78-0.678,1.37-1.069,2.022c-0.37,0.642-0.771,1.273-1.239,1.878
		c-0.94,1.192-2.024,2.388-3.631,3.31c-0.8,0.457-1.779,0.789-2.846,0.884c-0.528,0.026-1.082-0.063-1.607-0.135
		c-0.567-0.153-1.155-0.403-1.688-0.67c-0.347-0.215-0.546-0.387-0.828-0.573l-0.423-0.316L178.822,704l-0.508-0.569
		c-0.364-0.367-0.613-0.79-0.825-1.233c-0.214-0.437-0.475-0.886-0.555-1.322c-0.116-0.438-0.231-0.883-0.316-1.317l-0.105-1.252
		c-0.043-0.827,0.015-1.605,0.086-2.363c0.172-1.51,0.56-2.897,0.978-4.256c0.903-2.67,2.077-5.124,3.59-7.395
		c0.286-0.452,0.841-0.531,1.244-0.236c0.315,0.236,0.442,0.643,0.352,1.011L182.76,685.103z"/>
</g>
<g>
	<g>
		<path fill="#8C4B8F" d="M334.937,139.147c-2.526,2.736-4.998,5.582-7.299,8.568c-20.278-14.15-51.403,26.708-51.403,26.708
			c-7.98-44.57-48.705-30.615-48.705-30.615c3.407-25.037-23.315-33.634-23.315-33.634c6.957-20.119,55.151-53.807,63.103-55.928
			c7.98-2.121,11.332,10.242,24.537,32.543C310.144,117.657,329.625,134.792,334.937,139.147z"/>
		<path fill="#8C4B8F" d="M639.521,74.258c0,0-25.076,12.559-17.777,36.756c0,0-42.4-7.62-43.309,37.651
			c0,0-38.512-36.953-55.92-17.695c-2.982-2.208-6.078-4.3-9.285-6.28l0.455-0.697c0,0,20.049-20.599,35.555-59.588
			c9.568-24.032,10.963-36.757,19.17-35.864C576.617,29.435,629.496,55.446,639.521,74.258z"/>
		<path fill="#CC9AC6" d="M522.516,130.97c49.842,36.643,71.254,99.691,55.92,146.75c-22.807,69.909-124.334,93.496-188.801,78.871
			c-57.765-13.118-100.308-58.247-91.192-133.546c3.636-29.949,13.746-55.486,29.195-75.329c2.301-2.987,4.772-5.832,7.299-8.568
			c23.259-24.729,56.146-38.488,95.735-37.986c32.149,0.39,59.894,9.324,82.559,23.529
			C516.438,126.67,519.533,128.763,522.516,130.97z"/>
	</g>
	<path fill="#CC9AC6" d="M438.49,103.208c0,0-25.243-29.913-31.925-23.347c-6.683,6.568,3.712,12.407,3.712,12.407
		s-17.817-2.191-18.561,4.377c-0.742,6.563,21.531,5.105,21.531,5.105s-13.364,10.946-6.682,19.701
		c6.682,8.757,18.562-8.755,18.562-8.755"/>
	<path fill="#432247" d="M541.375,82.897c0,0,3.67,3.183,8.566,8.528c2.385,2.723,5.25,5.853,7.955,9.488
		c1.393,1.787,2.764,3.685,4.125,5.634c1.408,1.921,2.695,3.971,4.002,6.004c1.275,2.055,2.412,4.195,3.604,6.252
		c1.074,2.126,2.148,4.214,3.117,6.261c0.891,2.091,1.736,4.112,2.443,6.067c0.629,1.981,1.227,3.853,1.779,5.582
		c0.379,1.774,0.73,3.399,1.039,4.838c0.365,1.425,0.34,2.737,0.494,3.777c0.182,2.096,0.287,3.292,0.287,3.292
		c0.016,0.197-0.131,0.365-0.326,0.382c-0.182,0.016-0.346-0.11-0.381-0.278l-0.008-0.044c0,0-0.244-1.161-0.668-3.194
		c-0.248-1.003-0.338-2.259-0.83-3.625c-0.412-1.379-0.883-2.931-1.393-4.623c-0.635-1.651-1.324-3.442-2.053-5.334
		c-0.781-1.872-1.793-3.769-2.666-5.799c-0.994-1.982-2.088-4-3.176-6.054c-1.215-1.995-2.373-4.064-3.664-6.053
		c-1.318-1.976-2.5-4.037-3.867-5.939c-1.309-1.941-2.629-3.833-3.973-5.615c-2.652-3.592-5.168-6.926-7.418-9.716
		c-2.287-2.756-4.133-5.113-5.521-6.681c-1.365-1.586-2.146-2.496-2.146-2.496c-0.172-0.196-0.148-0.49,0.051-0.66
		C540.932,82.739,541.199,82.745,541.375,82.897z"/>
	<path fill="#432247" d="M549.092,67.542c0,0,5.404,0.9,13.246,3.216c3.891,1.237,8.477,2.611,13.197,4.584
		c2.385,0.927,4.805,1.984,7.246,3.107c2.467,1.061,4.883,2.344,7.313,3.587c2.414,1.281,4.721,2.75,7.045,4.093
		c2.234,1.504,4.449,2.955,6.525,4.448c2.01,1.587,3.969,3.107,5.711,4.675c1.684,1.638,3.309,3.148,4.738,4.603
		c1.307,1.57,2.5,3.009,3.563,4.285c1.104,1.237,1.734,2.573,2.418,3.535c1.25,2.009,1.965,3.154,1.965,3.154
		c0.104,0.163,0.049,0.381-0.117,0.482c-0.158,0.095-0.361,0.057-0.469-0.085l-0.031-0.038c0,0-0.82-1.052-2.26-2.894
		c-0.754-0.889-1.453-2.121-2.643-3.244c-1.119-1.169-2.385-2.486-3.764-3.925c-1.471-1.347-3.135-2.736-4.844-4.239
		c-1.762-1.455-3.797-2.777-5.752-4.319c-2.057-1.417-4.25-2.791-6.455-4.219c-2.305-1.271-4.586-2.666-6.973-3.878
		c-2.4-1.186-4.723-2.526-7.145-3.59c-2.381-1.139-4.75-2.213-7.086-3.159c-4.643-1.954-9.027-3.68-12.834-5.045
		c-3.826-1.303-7.002-2.458-9.264-3.129c-2.258-0.698-3.547-1.096-3.547-1.096c-0.254-0.076-0.396-0.338-0.32-0.586
		C548.627,67.64,548.863,67.503,549.092,67.542z"/>
	<path fill="#432247" d="M302.762,105.048c0,0-0.614,1.009-1.688,2.771c-1.102,1.75-2.52,4.34-4.309,7.387
		c-1.748,3.075-3.662,6.721-5.677,10.635c-1.026,1.951-2.014,3.998-2.981,6.094c-1.031,2.072-1.861,4.263-2.83,6.395
		c-0.953,2.143-1.749,4.338-2.619,6.471c-0.734,2.18-1.455,4.322-2.153,6.396c-0.536,2.116-1.218,4.124-1.697,6.07
		c-0.417,1.958-0.811,3.811-1.175,5.52c-0.234,1.73-0.449,3.317-0.639,4.724c-0.268,1.411-0.166,2.648-0.247,3.667
		c-0.1,2.05-0.157,3.222-0.157,3.222l-0.002,0.042c-0.009,0.193-0.176,0.342-0.374,0.335c-0.183-0.012-0.328-0.152-0.34-0.328
		c0,0-0.085-1.185-0.235-3.259c-0.018-1.042-0.24-2.317-0.108-3.764c0.078-1.457,0.164-3.097,0.258-4.888
		c0.267-1.771,0.557-3.69,0.863-5.721c0.393-2.015,0.889-4.124,1.433-6.299c0.634-2.143,1.339-4.35,2.059-6.584
		c0.837-2.194,1.605-4.459,2.528-6.659c0.949-2.189,1.886-4.386,2.95-6.479c1.02-2.115,2.057-4.176,3.13-6.136
		c2.058-3.968,4.353-7.464,6.244-10.493c3.918-5.977,6.986-9.659,6.986-9.659c0.167-0.199,0.467-0.232,0.672-0.065
		C302.843,104.592,302.882,104.852,302.762,105.048z"/>
	<path fill="#432247" d="M292.233,91.243c0,0-1.179,0.567-3.242,1.557c-2.076,0.961-4.952,2.526-8.431,4.314
		c-3.451,1.848-7.405,4.126-11.572,6.661c-2.104,1.238-4.214,2.608-6.333,4.039c-2.169,1.36-4.192,2.982-6.324,4.459
		c-2.11,1.505-4.093,3.162-6.117,4.712c-1.896,1.688-3.807,3.313-5.561,4.969c-1.648,1.761-3.413,3.315-4.88,4.966
		c-1.418,1.685-2.815,3.249-4.018,4.759c-1.112,1.574-2.131,3.015-3.036,4.296c-0.97,1.249-1.465,2.529-2.057,3.488
		c-1.111,1.971-1.745,3.097-1.745,3.097l-0.023,0.041c-0.096,0.168-0.314,0.231-0.486,0.139c-0.161-0.089-0.225-0.284-0.157-0.444
		c0,0,0.515-1.202,1.416-3.312c0.512-1.019,0.919-2.39,1.789-3.74c0.828-1.375,1.763-2.93,2.781-4.625
		c1.147-1.611,2.487-3.288,3.857-5.103c1.432-1.763,3.088-3.496,4.782-5.312c1.766-1.739,3.687-3.437,5.599-5.206
		c2.034-1.622,4.036-3.357,6.158-4.938c2.152-1.532,4.278-3.113,6.494-4.481c2.179-1.423,4.346-2.786,6.499-4.013
		c4.244-2.562,8.448-4.518,12.002-6.257c7.194-3.32,12.253-4.934,12.253-4.934c0.251-0.082,0.52,0.055,0.601,0.3
		C292.557,90.9,292.444,91.145,292.233,91.243z"/>
	<path opacity="0.2" fill="#642A7E" d="M404.083,164.261c0-11.426-9.428-20.689-21.051-20.689c-11.625,0-21.053,9.263-21.053,20.689
		c0,11.424,9.428,20.686,21.053,20.686C394.655,184.947,404.083,175.685,404.083,164.261z"/>
	<ellipse opacity="0.2" fill="#642A7E" cx="472.735" cy="157.61" rx="21.053" ry="20.687"/>
	<path fill="#FFFFFF" d="M403.024,163.29c0-10.559-8.715-19.12-19.459-19.12c-10.744,0-19.458,8.561-19.458,19.12
		c0,10.564,8.714,19.123,19.458,19.123C394.309,182.413,403.024,173.854,403.024,163.29z"/>
	<ellipse fill="#FFFFFF" cx="471.729" cy="156.719" rx="19.458" ry="19.12"/>
	<path fill="#1F140F" d="M387.215,163.29c0,2.537-1.498,4.595-3.341,4.595c-1.848,0-3.343-2.059-3.343-4.595
		c0-2.54,1.495-4.601,3.343-4.601C385.717,158.689,387.215,160.75,387.215,163.29z"/>
	<ellipse fill="#1F140F" cx="471.729" cy="157.613" rx="3.342" ry="4.598"/>
	<g>
		<path fill="#FFFFFF" d="M479.037,185.896l0.283,0.697c0,0-6.39,17.332-7.297,17.332c-0.91,0-8.805-13.145-8.805-13.145
			l-0.029-0.168C469.266,189.242,474.522,187.623,479.037,185.896z"/>
		<path fill="#FFFFFF" d="M394.207,204.51c-2.442-0.277-12.155-13.425-12.155-13.425l0.198-0.725
			c4.573,1.118,9.884,2.094,15.933,2.847l-0.028,0.252C398.154,193.459,396.649,204.816,394.207,204.51z"/>
	</g>
	<path fill="#8C4B8F" d="M410.414,352.995c0,0-0.305,18.224,1.215,21.514c5.894,12.727,9.577-7.174,19.153-6.724
		c3.695,0.171,9.422,22.854,5.775,24.646c-3.647,1.795-9.727-13.148-9.727-13.148s-3.101,14.287-17.024,12.548
		c-19.152-2.389-18.24-40.626-18.24-40.626S404.375,348.201,410.414,352.995z"/>
	<path fill="#8C4B8F" d="M504.668,341.628c0,0,2.975,17.993,5.064,20.961c8.09,11.508,8.133-8.721,17.643-9.939
		c3.668-0.475,13.383,20.859,10.117,23.254c-3.273,2.399-11.939-11.251-11.939-11.251s-0.484,14.602-14.5,15.307
		c-19.281,0.979-25.257-36.822-25.257-36.822S496.563,336.863,504.668,341.628z"/>
	<path fill="#6E5271" d="M437.916,103.68c-3.134-3.519-6.412-6.941-9.796-10.224c-3.407-3.259-6.87-6.481-10.628-9.233
		c-1.876-1.357-3.84-2.644-5.873-3.456c-1.002-0.392-2.053-0.648-2.878-0.551c-0.839,0.077-1.222,0.472-1.993,1.416
		c-0.604,0.754-1.001,1.648-1.075,2.508c-0.058,0.87,0.174,1.769,0.678,2.629c0.981,1.714,2.803,3.249,4.607,4.331
		c0.652,0.384,0.862,1.213,0.47,1.857c-0.282,0.458-0.809,0.695-1.32,0.648c-3.535-0.36-7.228-0.474-10.703-0.052
		c-1.725,0.212-3.45,0.608-4.755,1.322c-0.639,0.362-1.13,0.798-1.351,1.281c-0.095,0.218-0.194,0.567-0.181,0.736l-0.003,0.338
		c0.021,0.038,0.038,0.043,0.044,0.065c-0.019,0.017,0.063,0.14,0.096,0.234c0.187,0.398,0.783,0.834,1.467,1.169
		c0.695,0.341,1.51,0.594,2.338,0.81c1.667,0.424,3.451,0.651,5.237,0.817c3.581,0.294,7.264,0.306,10.861,0.125
		c0.733-0.039,1.357,0.515,1.395,1.237c0.034,0.632-0.398,1.183-1,1.33l-0.024,0.005c-3.256,0.81-6.785,2.033-9.071,4.17
		c-1.123,1.079-1.648,2.368-1.318,3.734c0.142,0.687,0.492,1.382,0.941,2.038c0.104,0.147,0.244,0.376,0.316,0.456l0.429,0.518
		c0.295,0.333,0.515,0.532,0.817,0.795c2.405,2.066,6.055,2.208,9.398,1.431c3.375-0.773,6.685-2.265,9.662-4.077l0.036-0.022
		c0.351-0.212,0.813-0.106,1.029,0.24c0.213,0.338,0.114,0.777-0.219,0.998c-3.098,2.041-6.402,3.688-10.052,4.676
		c-1.821,0.475-3.743,0.758-5.719,0.598c-1.967-0.14-3.984-0.859-5.572-2.146c-0.386-0.311-0.825-0.731-1.127-1.063l-0.44-0.507
		c-0.22-0.256-0.31-0.419-0.47-0.632c-0.569-0.807-1.073-1.717-1.327-2.775c-0.268-1.041-0.245-2.229,0.125-3.282
		c0.364-1.06,1.007-1.951,1.723-2.681c1.453-1.458,3.165-2.404,4.887-3.2c1.746-0.786,3.493-1.366,5.385-1.815l0.373,2.572
		c-3.772,0.216-7.489,0.229-11.267-0.06c-1.888-0.164-3.78-0.384-5.691-0.856c-0.956-0.245-1.917-0.525-2.879-0.986
		c-0.938-0.48-1.992-1.074-2.69-2.295c-0.152-0.316-0.319-0.589-0.395-1.03c-0.043-0.197-0.079-0.415-0.1-0.6l0.001-0.341
		c0.005-0.739,0.179-1.278,0.436-1.894c0.551-1.183,1.541-1.979,2.482-2.521c1.931-1.066,3.903-1.409,5.822-1.66
		c3.86-0.431,7.598-0.284,11.394,0.125l-0.849,2.502c-1.17-0.698-2.143-1.436-3.105-2.317c-0.941-0.877-1.825-1.87-2.496-3.069
		c-0.681-1.178-1.104-2.644-0.98-4.126c0.143-1.494,0.785-2.824,1.664-3.909c0.507-0.612,0.724-0.896,1.489-1.509
		c0.691-0.497,1.533-0.761,2.31-0.824c1.577-0.125,2.895,0.317,4.097,0.796c2.391,1.017,4.406,2.426,6.351,3.886
		c3.848,2.963,7.331,6.261,10.633,9.706c3.307,3.448,6.468,6.996,9.505,10.671c0.261,0.315,0.213,0.779-0.105,1.035
		C438.642,104.026,438.176,103.977,437.916,103.68z"/>
	<path fill="#1F140F" d="M357.54,178.58c0,0,0.122,0.095,0.359,0.276c0.235,0.177,0.583,0.465,1.052,0.733
		c0.947,0.562,2.216,1.483,4.166,2.352c0.942,0.461,1.984,0.974,3.12,1.528c1.194,0.446,2.486,0.921,3.866,1.434
		c1.394,0.48,2.825,1.111,4.42,1.555c1.601,0.424,3.286,0.872,5.044,1.341c1.768,0.424,3.557,1.054,5.502,1.361
		c1.941,0.318,3.949,0.647,6.013,0.983c2.065,0.323,4.174,0.72,6.347,1.007c2.194,0.175,4.437,0.349,6.716,0.525
		c4.561,0.332,9.255,0.898,14.081,0.686c4.794-0.028,9.666-0.055,14.535-0.084c4.898-0.363,9.909-0.467,14.594-1.132
		c4.748-0.44,9.388-1.311,13.873-2.115c2.218-0.509,4.396-1.009,6.531-1.499c2.119-0.535,4.152-1.189,6.157-1.751
		c3.958-1.263,7.621-2.676,10.894-4.196c3.262-1.537,6.138-3.148,8.606-4.71c2.413-1.625,4.427-3.167,5.942-4.576
		c1.522-1.404,2.621-2.599,3.277-3.458c0.688-0.856,0.93-1.285,0.93-1.285c0.299-0.537,0.982-0.733,1.525-0.438
		c0.529,0.286,0.729,0.942,0.461,1.472c0-0.004-0.338,0.647-1.037,1.605c-0.686,0.995-1.803,2.332-3.354,3.912
		c-1.548,1.579-3.589,3.313-6.05,5.145c-2.508,1.76-5.434,3.622-8.814,5.292c-3.37,1.683-7.139,3.25-11.208,4.669
		c-2.053,0.641-4.146,1.371-6.321,1.981c-2.191,0.542-4.43,1.097-6.706,1.66c-4.604,0.87-9.353,1.802-14.278,2.305
		c-4.927,0.73-9.801,0.867-14.735,1.272c-4.994,0-9.989-0.002-14.906-0.005c-4.901,0.17-9.713-0.449-14.37-0.833
		c-2.329-0.207-4.617-0.414-6.857-0.616c-2.224-0.36-4.388-0.823-6.496-1.216c-2.108-0.409-4.158-0.804-6.14-1.188
		c-1.982-0.374-3.831-1.074-5.64-1.563c-1.798-0.535-3.521-1.053-5.16-1.537c-1.62-0.545-3.092-1.275-4.507-1.842
		c-1.401-0.605-2.713-1.172-3.927-1.695c-1.161-0.644-2.229-1.234-3.192-1.767c-1.944-0.986-3.375-2.113-4.367-2.785
		c-0.512-0.342-0.827-0.634-1.055-0.823c-0.227-0.191-0.342-0.29-0.342-0.29c-0.47-0.398-0.525-1.095-0.119-1.56
		c0.39-0.446,1.067-0.505,1.537-0.152L357.54,178.58z"/>
	<g id="g184" transform="translate(68.913385,305.91166)">
		<g id="g186">
			<path id="path188" fill="#53727F" d="M368.923,1.883l-32.939-4.977c-1.365-0.176-2.604,0.559-2.801,1.668l-0.181,1.373
				c-0.185,1.104,0.802,2.229,2.178,2.395l32.925,4.979c1.385,0.178,2.624-0.557,2.777-1.672l0.215-1.363
				C371.279,3.158,370.293,2.057,368.923,1.883z"/>
			<path id="path190" fill="#53727F" d="M367.982,8.01l-32.928-4.918c-1.377-0.234-2.615,0.508-2.759,1.674l-0.222,1.369
				c-0.188,1.111,0.798,2.17,2.162,2.395l32.948,4.92c1.373,0.227,2.599-0.506,2.787-1.672l0.187-1.32
				C370.343,9.301,369.353,8.24,367.982,8.01L367.982,8.01z"/>
			<path id="path192" fill="#53727F" d="M367.056,14.205l-32.939-4.979c-1.376-0.166-2.615,0.557-2.745,1.674l-0.229,1.373
				c-0.146,1.162,0.791,2.221,2.164,2.447l32.942,4.917c1.368,0.234,2.609-0.559,2.802-1.656l0.176-1.386
				C369.409,15.482,368.435,14.383,367.056,14.205z"/>
			<path id="path194" fill="#53727F" d="M337.337,16.02l24.693,3.72c-0.585,4.066-7.606,5.813-13.387,4.943
				C342.892,23.808,336.693,20.113,337.337,16.02L337.337,16.02z"/>
		</g>
		<path id="path196" fill="#FBB042" d="M341.169-92.586c0,0,11.502-8.419,25.184-7.477c0,0,23.191,1.033,31.543,26.91
			c0,0-0.152,17.223-3.76,25.198c0,0-13.01,18.429-13.199,20.411l-8.949,17.217c0,0-2.063,8.282-5.584,7.743l-25.162-3.777
			c0,0-4.654-0.644-3.611-7.475c0,0-2.343-18.663-4.707-23.943c0,0-6.626-22.308-5.643-28.819
			C327.277-66.607,325.038-79.364,341.169-92.586L341.169-92.586z"/>
		<g id="g198">
			<g>
				<defs>
					<path id="SVGID_1_" d="M341.169-92.586c0,0,11.502-8.419,25.184-7.477c0,0,23.191,1.033,31.543,26.91
						c0,0-0.152,17.223-3.76,25.198c0,0-13.01,18.429-13.199,20.411l-8.949,17.217c0,0-2.063,8.282-5.584,7.743l-25.162-3.777
						c0,0-4.654-0.644-3.611-7.475c0,0-2.343-18.663-4.707-23.943c0,0-6.626-22.308-5.643-28.819
						C327.277-66.607,325.038-79.364,341.169-92.586L341.169-92.586z"/>
				</defs>
				<clipPath id="SVGID_2_">
					<use xlink:href="#SVGID_1_"  overflow="visible"/>
				</clipPath>
				<g id="g206" clip-path="url(#SVGID_2_)">
					<path id="path208" fill="#063957" d="M342.099-8.303c2.135-2.975,3.823-6.297,5.486-9.539
						c2.479-4.932,4.727-9.945,6.564-15.126c1.639-4.501,3.146-9.329,3.053-14.152c-0.031-1.583-0.254-3.298-1.164-4.599
						c-0.928-1.346-2.896-2.741-4.572-2.18c-2.004,0.619-2.48,3.216-2.461,4.979c0.068,2.434,0.982,5.03,2.789,6.743
						c1.715,1.626,4.586,2.225,6.871,2.441c2.477,0.172,5.262-0.326,7.103-2.054c1.987-1.771,2.789-4.409,2.252-7.017
						c-0.354-1.795-1.878-3.654-3.887-3.344c-1.94,0.248-3.038,2.406-3.314,4.138c-0.534,3.038,0.684,6.775,2.613,9.153
						c1.422,1.715,3.553,2.574,5.73,2.144c2.551-0.556,4.306-3.034,5.466-5.187c0.803-1.564,2.692-5.744,0.951-7.244
						c-1.399-1.205-3.762,1.546-4.418,2.417c-2.023,2.61-2.921,6.122-3.776,9.221c-1.012,3.667-1.644,7.386-2.054,11.118
						c-0.866,7.695-0.872,15.412-1.758,23.1c-0.088,0.654,1.281-0.572,1.307-1.088c1.02-8.315,0.971-16.717,2.066-25.047
						c0.515-4.346,1.496-8.666,2.953-12.861c0.607-1.826,1.355-3.826,2.893-5.072c1.172-0.93,2.029-0.139,2.055,1.177
						c0.044,3.488-2.599,8.425-6.583,7.985c-3.27-0.353-5.098-3.9-5.736-6.668c-0.384-1.697-0.787-3.615-0.093-5.23
						c0.406-0.943,1.955-0.426,2.524-0.057c2.392,1.447,2.577,5.838,0.503,7.545c-2.243,1.84-5.911,1.479-8.489,0.82
						c-2.645-0.611-4.636-1.953-5.782-4.461c-0.512-1.261-0.828-2.668-0.871-4.044c-0.016-0.569,0.051-1.172,0.231-1.765
						c0.168-0.578,0.919-0.428,1.407-0.29c1.775,0.45,3.047,2.013,3.533,3.683c1.266,4.24-0.317,9.31-1.557,13.275
						c-1.656,5.418-3.936,10.619-6.377,15.672c-1.807,3.688-3.698,7.672-6.075,10.953C340.851-7.854,341.398-7.358,342.099-8.303
						L342.099-8.303L342.099-8.303z"/>
				</g>
			</g>
		</g>
		<g id="g210">
			<path id="path212" fill="none" d="M367.034-97.925c-18.425-2.731-35.637,9.999-38.436,28.426
				c-0.869,5.767-0.182,11.605,1.984,17.411c6.412,17.129,7.762,26.955,7.954,37.268c0.013,1.18,0.077,4.684,0.94,5.915
				c0.28,0.419,0.931,0.909,3.377,1.272l10.434,1.548l10.385,1.537c2.479,0.422,3.234,0.121,3.637-0.195
				c1.17-0.932,2.264-4.241,2.623-5.365c3.153-9.8,7.366-18.792,18.516-33.278c3.828-4.9,6.164-10.322,7.021-16.049
				C398.259-77.862,385.476-95.127,367.034-97.925L367.034-97.925z"/>
			<path id="path214" fill="#FFFFFF" d="M367.541-101.217c-20.261-3.045-39.184,10.916-42.235,31.217
				c-1.026,6.715-0.066,13.162,2.139,19.113c6.568,17.611,7.594,27.056,7.747,36.12c0.095,7.63,1.558,9.591,7.157,10.427
				c2.367,0.346,6.252,0.949,10.438,1.545c4.119,0.648,8.025,1.25,10.385,1.605c5.604,0.836,7.594-0.664,9.906-7.872
				c2.839-8.615,6.593-17.364,18.04-32.309c3.845-4.968,6.679-10.893,7.644-17.609C401.813-79.235,387.851-98.157,367.541-101.217
				L367.541-101.217z M388.448-43.387c-11.149,14.486-15.359,23.473-18.516,33.278c-0.354,1.124-1.453,4.433-2.623,5.365
				c-0.4,0.311-1.158,0.617-3.637,0.195l-10.385-1.537l-10.434-1.548c-2.449-0.357-3.1-0.848-3.377-1.272
				c-0.867-1.223-0.93-4.729-0.94-5.915c-0.192-10.313-1.542-20.139-7.954-37.268c-2.162-5.803-2.848-11.643-1.984-17.411
				c2.799-18.427,20.006-31.161,38.436-28.426c18.441,2.798,31.225,20.063,28.436,38.489
				C394.612-53.71,392.279-48.29,388.448-43.387L388.448-43.387z"/>
		</g>
		<path id="path216" fill="#FFFFFF" d="M344.017-77.44c-1.574,0.951-9.223,6.352-3.746,18.674c0.389,0.872-0.003,1.902-0.875,2.305
			c-0.298,0.101-0.67,0.152-0.97,0.096c-0.568-0.054-1.046-0.459-1.339-0.973c-6.658-15.006,3.123-21.82,5.143-23.081
			c0.807-0.452,1.894-0.198,2.402,0.61C345.124-78.977,344.826-77.891,344.017-77.44L344.017-77.44z"/>
		<g id="g218">
			<path id="path220" fill="#EBF7FE" d="M417.294-59.322l-12.012-1.813c-0.713-0.063-1.403,0.428-1.485,1.167
				c-0.132,0.703,0.382,1.391,1.097,1.483l12.012,1.829c0.719,0.111,1.424-0.398,1.545-1.111
				C418.527-58.533,418.04-59.189,417.294-59.322z"/>
			<path id="path222" fill="#EBF7FE" d="M404.032-79.145c0.257,0.035,0.473,0.008,0.704-0.037l11.277-4.514
				c0.72-0.246,1.04-1.019,0.735-1.73c-0.25-0.655-1.019-1.003-1.723-0.734l-11.272,4.458c-0.712,0.309-1.048,1.071-0.735,1.743
				C403.167-79.509,403.571-79.174,404.032-79.145z"/>
			<path id="path224" fill="#EBF7FE" d="M390.282-99.454c0.203,0.163,0.393,0.228,0.646,0.248c0.471,0.08,0.939-0.085,1.243-0.487
				l7.511-9.513c0.461-0.602,0.354-1.43-0.191-1.9c-0.595-0.463-1.437-0.349-1.895,0.227l-7.506,9.531
				C389.626-100.746,389.73-99.918,390.282-99.454z"/>
			<path id="path226" fill="#EBF7FE" d="M324.995-94.704l-9.473-7.604c-0.599-0.451-1.436-0.4-1.896,0.186
				c-0.457,0.598-0.357,1.439,0.223,1.906l9.449,7.584c0.21,0.177,0.427,0.221,0.656,0.261c0.458,0.074,0.943-0.064,1.237-0.498
				C325.657-93.397,325.55-94.235,324.995-94.704z"/>
			<path id="path228" fill="#EBF7FE" d="M408.669-34.861l-9.485-7.595c-0.544-0.474-1.364-0.357-1.834,0.178
				c-0.472,0.595-0.357,1.438,0.166,1.898l9.483,7.588c0.22,0.18,0.416,0.279,0.676,0.311c0.461,0.068,0.932-0.108,1.232-0.487
				C409.376-33.558,409.267-34.399,408.669-34.861L408.669-34.861z"/>
			<path id="path230" fill="#EBF7FE" d="M317.437-53.521l-11.303,4.456c-0.678,0.299-0.994,1.065-0.74,1.73
				c0.205,0.461,0.609,0.762,1.065,0.826c0.198,0.043,0.463,0.011,0.669-0.064l11.322-4.482c0.656-0.25,0.987-1.072,0.734-1.737
				C318.927-53.452,318.136-53.839,317.437-53.521z"/>
			<path id="path232" fill="#EBF7FE" d="M341.32-108.51c0.202,0.467,0.61,0.76,1.069,0.826c0.197,0.045,0.455,0.017,0.655-0.077
				c0.714-0.243,1.057-1.019,0.804-1.732l-4.406-11.313c-0.285-0.723-1.063-1.045-1.722-0.776c-0.72,0.274-1.056,1.034-0.751,1.715
				L341.32-108.51z"/>
			<path id="path234" fill="#EBF7FE" d="M367.952-108.874c0.766,0.133,1.415-0.379,1.549-1.146l1.795-12.006
				c0.086-0.75-0.414-1.403-1.136-1.526c-0.702-0.131-1.414,0.386-1.483,1.111l-1.825,12.028
				C366.719-109.649,367.228-108.991,367.952-108.874z"/>
			<path id="path236" fill="#EBF7FE" d="M320.82-72.432c0.117-0.723-0.389-1.428-1.095-1.552l-12.017-1.764
				c-0.719-0.126-1.418,0.384-1.538,1.099c-0.075,0.707,0.404,1.424,1.149,1.497l12.016,1.819
				C320.032-71.213,320.709-71.72,320.82-72.432z"/>
		</g>
	</g>
	<path fill="#8C4B8F" d="M500.331,229.528c0,0-4.387,19.169-14.927,17.523c-4.511-0.709-7.829-6.148-7.829-6.148
		s2.042-6.428-0.316-8.765c-2.363-2.339-4.318,3.946-4.318,3.946s-6.182-9.965-8.722-8.326c-2.532,1.637,3.489,9.846,3.489,9.846
		s-7.031-9.416-8.64-6.905c-1.605,2.5,4.181,9.691,4.181,9.691s-6.815-7.812-7.652-5.119c-0.838,2.692,15.489,31.944,34.775,25.983
		c23.054-7.123,20.175-30.677,20.175-30.677S505.742,226.551,500.331,229.528z"/>
	<path fill="#8C4B8F" d="M365.201,240.918c0,0,8.588,17.744,18.498,13.845c4.243-1.667,6.252-7.696,6.252-7.696
		s-3.434-5.821-1.659-8.616c1.777-2.793,5.096,2.915,5.096,2.915s3.791-11.065,6.634-10.016c2.841,1.049-1.186,10.362-1.186,10.362
		s4.739-10.711,6.871-8.616c2.131,2.093-1.895,10.364-1.895,10.364s4.889-9.099,6.31-6.654c1.421,2.446-7.928,34.515-28.076,32.893
		c-24.088-1.939-26.571-25.542-26.571-25.542S359.255,239.185,365.201,240.918z"/>
</g>
</svg>
