<?xml version="1.0" encoding="iso-8859-1"?>
<!-- Generator: Adobe Illustrator 19.0.0, SVG Export Plug-In . SVG Version: 6.00 Build 0)  -->
<svg version="1.1" id="Layer_1" xmlns="http://www.w3.org/2000/svg" xmlns:xlink="http://www.w3.org/1999/xlink" x="0px" y="0px"
	 viewBox="0 0 511.997 511.997" style="enable-background:new 0 0 511.997 511.997;" xml:space="preserve">
<circle style="fill:#21D0C3;" cx="255.999" cy="255.999" r="255.999"/>
<path style="fill:#15BDB2;" d="M256,407.271c100.671,0,182.283,6.434,182.283,14.369c0,7.937-81.612,14.372-182.283,14.372
	S73.717,429.577,73.717,421.64C73.717,413.706,155.329,407.271,256,407.271z"/>
<path style="fill:#666666;" d="M65.982,67.222h380.036c12.486,0,22.7,10.217,22.7,22.703V324.03H43.282V89.925
	C43.282,77.439,53.496,67.222,65.982,67.222z"/>
<g>
	<path style="fill:#FFFFFF;" d="M58.695,308.614h394.607V89.922c0-3.979-3.308-7.287-7.287-7.287H65.979
		c-3.976,0-7.287,3.308-7.287,7.287v218.693H58.695z"/>
	<path style="fill:#FFFFFF;" d="M468.718,324.03v24.826c0,12.489-11.261,22.703-25.026,22.703H68.305
		c-13.765,0-25.026-10.214-25.026-22.703V324.03h425.436H468.718z"/>
</g>
<path style="fill:#FAD24D;" d="M260.464,153.112c30.516,0,55.254,24.738,55.254,55.254s-24.738,55.254-55.254,55.254
	s-55.254-24.738-55.254-55.254S229.949,153.112,260.464,153.112z"/>
<path style="fill:#EDB937;" d="M260.464,163.749c24.643,0,44.618,19.974,44.618,44.618s-19.974,44.618-44.618,44.618
	c-24.643,0-44.618-19.974-44.618-44.618S235.821,163.749,260.464,163.749z"/>
<path style="fill:#FFFFFF;" d="M249.214,193.782c0-3.554,0.724-6.418,2.177-8.595c1.45-2.177,3.628-3.588,6.531-4.239v-3.903h6.757
	v3.903c2.951,0.601,5.167,1.988,6.641,4.165c1.477,2.177,2.214,5.065,2.214,8.669v1.65h-7.806v-2.177
	c0-1.901-0.362-3.24-1.089-4.016c-0.727-0.776-1.739-1.165-3.04-1.165c-1.301,0-2.316,0.388-3.04,1.165
	c-0.727,0.776-1.089,2.114-1.089,4.016c0,1.802,0.401,3.352,1.202,4.653c0.802,1.301,1.802,2.515,3.003,3.641
	c1.202,1.125,2.492,2.227,3.866,3.303c1.374,1.076,2.665,2.29,3.866,3.641c1.202,1.351,2.204,2.914,3.003,4.693
	c0.8,1.776,1.199,3.916,1.199,6.415c0,3.604-0.751,6.505-2.251,8.708c-1.503,2.201-3.728,3.601-6.681,4.202v3.83h-6.757v-3.83
	c-3.003-0.601-5.241-2.001-6.718-4.202c-1.477-2.204-2.214-5.104-2.214-8.708V216h7.806v4.129c0,1.901,0.388,3.229,1.165,3.979
	c0.776,0.751,1.815,1.125,3.116,1.125c1.3,0,2.339-0.375,3.116-1.125c0.776-0.751,1.165-2.075,1.165-3.979
	c0-1.802-0.401-3.352-1.202-4.653c-0.802-1.301-1.802-2.515-3.003-3.641c-1.202-1.125-2.489-2.227-3.866-3.303
	c-1.374-1.076-2.665-2.29-3.866-3.641c-1.202-1.35-2.204-2.914-3.003-4.693c-0.8-1.776-1.199-3.916-1.199-6.415h-0.003V193.782z"/>
<path style="fill:#FAD24D;" d="M162.844,121.629c17.668,0,31.99,14.324,31.99,31.99c0,17.668-14.324,31.99-31.99,31.99
	c-17.668,0-31.99-14.324-31.99-31.99C130.854,135.951,145.178,121.629,162.844,121.629z"/>
<path style="fill:#EDB937;" d="M162.844,127.788c14.266,0,25.834,11.564,25.834,25.831c0,14.267-11.564,25.831-25.834,25.831
	c-14.266,0-25.831-11.564-25.831-25.831C137.013,139.352,148.577,127.788,162.844,127.788z"/>
<path style="fill:#FFFFFF;" d="M156.331,145.176c0-2.056,0.42-3.714,1.26-4.976c0.839-1.26,2.101-2.077,3.783-2.455v-2.261h3.911
	v2.261c1.711,0.346,2.993,1.152,3.845,2.41c0.855,1.26,1.283,2.935,1.283,5.02v0.955h-4.519v-1.26c0-1.102-0.21-1.875-0.63-2.326
	c-0.42-0.448-1.007-0.674-1.76-0.674c-0.756,0-1.34,0.226-1.76,0.674c-0.419,0.448-0.63,1.225-0.63,2.326
	c0,1.044,0.231,1.941,0.695,2.694c0.464,0.753,1.044,1.456,1.737,2.109c0.695,0.653,1.442,1.29,2.238,1.912
	c0.797,0.624,1.542,1.327,2.238,2.109c0.696,0.781,1.274,1.687,1.739,2.715c0.464,1.028,0.695,2.267,0.695,3.714
	c0,2.085-0.433,3.767-1.303,5.041c-0.868,1.274-2.159,2.085-3.866,2.434v2.217h-3.911v-2.217c-1.739-0.349-3.035-1.16-3.89-2.434
	c-0.855-1.275-1.283-2.956-1.283-5.041v-2.085h4.519v2.389c0,1.102,0.223,1.867,0.674,2.302c0.448,0.433,1.052,0.653,1.804,0.653
	c0.756,0,1.356-0.218,1.804-0.653c0.448-0.435,0.674-1.202,0.674-2.302c0-1.044-0.231-1.941-0.695-2.694
	c-0.464-0.753-1.044-1.456-1.739-2.109c-0.695-0.653-1.44-1.29-2.238-1.912s-1.542-1.324-2.238-2.109
	c-0.695-0.781-1.274-1.69-1.739-2.715c-0.464-1.028-0.695-2.269-0.695-3.717L156.331,145.176z"/>
<path style="fill:#FAD24D;" d="M335.904,95.899c13.621,0,24.662,11.04,24.662,24.662s-11.04,24.662-24.662,24.662
	c-13.621,0-24.662-11.04-24.662-24.662S322.283,95.899,335.904,95.899z"/>
<path style="fill:#EDB937;" d="M335.904,100.647c10.998,0,19.914,8.916,19.914,19.914s-8.916,19.914-19.914,19.914
	s-19.914-8.916-19.914-19.914S324.907,100.647,335.904,100.647z"/>
<path style="fill:#FFFFFF;" d="M330.884,114.054c0-1.584,0.322-2.864,0.97-3.834c0.648-0.97,1.619-1.603,2.914-1.894v-1.742h3.016
	v1.742c1.316,0.267,2.305,0.886,2.964,1.859c0.659,0.973,0.989,2.261,0.989,3.869v0.738h-3.483v-0.97
	c0-0.85-0.163-1.445-0.485-1.791c-0.325-0.346-0.776-0.519-1.356-0.519c-0.582,0-1.033,0.173-1.358,0.519
	c-0.325,0.346-0.485,0.944-0.485,1.791c0,0.802,0.179,1.498,0.535,2.077c0.356,0.58,0.802,1.123,1.34,1.624
	c0.535,0.501,1.112,0.994,1.726,1.474c0.614,0.48,1.189,1.023,1.724,1.624c0.535,0.603,0.984,1.301,1.34,2.096
	c0.359,0.792,0.535,1.747,0.535,2.864c0,1.608-0.335,2.903-1.005,3.887c-0.669,0.984-1.663,1.608-2.982,1.875v1.708h-3.016v-1.708
	c-1.34-0.267-2.339-0.894-2.998-1.875c-0.659-0.984-0.989-2.28-0.989-3.887v-1.608h3.483v1.844c0,0.85,0.173,1.44,0.519,1.776
	c0.346,0.335,0.81,0.501,1.39,0.501c0.582,0,1.044-0.168,1.39-0.501c0.346-0.335,0.519-0.926,0.519-1.776
	c0-0.802-0.179-1.498-0.535-2.077c-0.356-0.582-0.802-1.123-1.34-1.626c-0.535-0.501-1.112-0.994-1.726-1.474
	c-0.614-0.48-1.189-1.02-1.726-1.624c-0.535-0.603-0.984-1.301-1.34-2.093c-0.356-0.792-0.535-1.747-0.535-2.864L330.884,114.054z"
	/>
<path style="fill:#ECF0F1;" d="M240.327,113.358v38.057h-3.119v-38.057H240.327z M257.933,101.895v32.095h-3.119v-32.095H257.933z
	 M277.33,113.358v38.057h-3.121v-38.057H277.33z"/>
<path style="fill:#B6B6B8;" d="M389.345,275.494l-17.663-13.244l9.414-12.556l-52.285-11.817l25.997,46.876l9.414-12.556
	l17.664,13.244l7.457-9.947H389.345z"/>
<path style="fill:#ECF0F1;" d="M292.375,248.005c-1.337,0.018-2.437-1.049-2.458-2.387c-0.021-1.337,1.049-2.437,2.387-2.458
	l19.274-0.25c1.337-0.018,2.437,1.052,2.458,2.387c0.018,1.337-1.049,2.437-2.387,2.458L292.375,248.005z M320.124,258.221
	c0.821-1.052,2.339-1.241,3.391-0.42c1.052,0.821,1.241,2.339,0.42,3.391l-16.792,21.514c-0.821,1.052-2.339,1.241-3.391,0.42
	c-1.052-0.82-1.241-2.339-0.42-3.391L320.124,258.221z M367.617,200.972c0.821-1.052,2.339-1.241,3.391-0.42
	c1.052,0.821,1.241,2.339,0.42,3.391l-16.792,21.514c-0.821,1.052-2.339,1.241-3.391,0.42c-1.052-0.821-1.241-2.339-0.42-3.391
	L367.617,200.972z M330.396,198.333c-0.328-1.293,0.454-2.61,1.75-2.94c1.293-0.33,2.61,0.454,2.94,1.747l4.737,18.686
	c0.327,1.295-0.454,2.61-1.75,2.94c-1.293,0.328-2.61-0.454-2.94-1.75l-4.737-18.686V198.333z M297.081,210.745
	c-0.984-0.902-1.049-2.434-0.147-3.417c0.902-0.984,2.434-1.049,3.417-0.147l20.462,18.802c0.984,0.902,1.052,2.434,0.15,3.417
	c-0.902,0.986-2.434,1.052-3.417,0.15l-20.462-18.802L297.081,210.745z"/>
<circle style="fill:#B6B6B8;" cx="255.999" cy="346.801" r="7.814"/>
<path style="fill:#C2C2C4;" d="M305.065,407.271l36.095,11.564H170.836l29.123-11.564v-35.712h105.104v35.712H305.065z"/>
<path style="fill:#B6B6B8;" d="M305.065,407.271l-105.104-35.712h105.104V407.271z"/>
<path style="fill:#ECF0F1;" d="M199.959,407.271h105.104l36.095,11.564v4.981h-85.161h-85.163v-4.981l29.123-11.564H199.959z"/>
<g>
</g>
<g>
</g>
<g>
</g>
<g>
</g>
<g>
</g>
<g>
</g>
<g>
</g>
<g>
</g>
<g>
</g>
<g>
</g>
<g>
</g>
<g>
</g>
<g>
</g>
<g>
</g>
<g>
</g>
</svg>
