<?xml version="1.0" encoding="iso-8859-1"?>
<!-- Generator: Adobe Illustrator 19.0.0, SVG Export Plug-In . SVG Version: 6.00 Build 0)  -->
<svg version="1.1" id="Layer_1" xmlns="http://www.w3.org/2000/svg" xmlns:xlink="http://www.w3.org/1999/xlink" x="0px" y="0px"
	 viewBox="0 0 511.997 511.997" style="enable-background:new 0 0 511.997 511.997;" xml:space="preserve">
<circle style="fill:#FAD24D;" cx="255.999" cy="255.999" r="255.999"/>
<g>
	<path style="fill:#FFFFFF;" d="M196.337,231.508H379.99L263.449,123.226c2.339-2.096,4.485-4.401,6.41-6.888l125.32,116.443
		l3.517,3.266l-3.352,3.457L284.215,354.076c-2.109-2.318-4.367-4.506-6.752-6.544l103.388-106.591H196.337
		c0.116-1.558,0.176-3.129,0.176-4.716C196.513,234.638,196.452,233.066,196.337,231.508z"/>
	<circle style="fill:#FFFFFF;" cx="391.972" cy="236.227" r="48.806"/>
	<path style="fill:#FFFFFF;" d="M228.807,329.564c41.362,0,74.889,33.527,74.889,74.889s-33.527,74.889-74.889,74.889
		s-74.889-33.527-74.889-74.889S187.445,329.564,228.807,329.564z"/>
	<path style="fill:#FFFFFF;" d="M133.865,173.577c34.6,0,62.645,28.048,62.645,62.645c0,34.6-28.045,62.645-62.645,62.645
		s-62.645-28.045-62.645-62.645S99.268,173.577,133.865,173.577z"/>
	<path style="fill:#FFFFFF;" d="M228.805,32.654c28.672,0,51.912,23.242,51.912,51.914s-23.242,51.912-51.912,51.912
		c-28.672,0-51.914-23.242-51.914-51.912C176.89,55.896,200.133,32.654,228.805,32.654z"/>
</g>
<g>
	<circle style="fill:#DCE3DB;" cx="228.802" cy="84.574" r="40.231"/>
	<circle style="fill:#DCE3DB;" cx="133.868" cy="236.227" r="51.339"/>
</g>
<path style="fill:#F0BA7D;" d="M126.927,233.922h2.757h8.363h2.76l1.123,11.696l1.999,1.603l4.21,2.678l-14.269,33.713
	L119.6,249.898l4.21-2.678l1.999-1.603l1.123-11.696H126.927z"/>
<path style="fill:#ECF0F1;" d="M122.347,248.084l-11.501,3.675l23.022,31.857l19.586-32.921l-8.126-2.576l-7.161,5.049h-8.582
	l-7.24-5.081L122.347,248.084z"/>
<path style="fill:#FF5B62;" d="M131.297,252.703l0.984,2.421l-2.188,27.647l3.772,2.888l3.772-2.888l-2.188-27.647l0.981-2.421
	l-2.568-0.105l-2.568,0.105L131.297,252.703L131.297,252.703z"/>
<path style="fill:#15BDB2;" d="M122.544,248.023L102.2,254.52c0,0-2.634,1.364-3.428,5.532c-0.693,3.62-1.078,7.305-1.595,12.065
	c9.317,9.524,22.314,15.437,36.69,15.437c14.379,0,27.373-5.914,36.69-15.437c-0.517-4.761-0.902-8.448-1.595-12.065
	c-0.794-4.168-3.431-5.532-3.431-5.532l-20.205-6.408l-11.46,33.608l-11.321-33.698h-0.001V248.023z"/>
<path style="fill:#21D0C3;" d="M122.547,248.023l-4.391,1.403l-0.842,11.132c0,0,0.231,0.918,0.928,0.836l3.96,1.487
	c0,0,0.257,0.259,0.029,0.588l-3.391,2.324l11.484,21.64c1.173,0.079,2.35,0.126,3.544,0.126c1.191,0,2.371-0.047,3.544-0.126
	l11.483-21.64l-3.389-2.324c-0.231-0.328,0.029-0.588,0.029-0.588l3.96-1.487c0.698,0.081,0.928-0.836,0.928-0.836l-0.839-11.098
	l-4.252-1.345l-11.46,33.606l-11.318-33.698H122.547z"/>
<path style="fill:#FED298;" d="M117.702,210.134c0,1.089-0.396,2.154-0.367,3.195c-3.717-0.693-1.925,10.356,0.181,11.875
	c0.171,0.124,0.58-0.147,0.926-0.37c0.73,4.066,6.958,14.92,10.92,19.492c1.102,1.267,7.83,1.246,8.916,0.045
	c4.058-4.464,10.28-15.452,11.014-19.536c0.349,0.221,0.759,0.49,0.926,0.37c2.106-1.519,3.9-12.566,0.181-11.875
	c0.032-1.041-0.367-2.106-0.367-3.195c-0.208-8.574-7.976-12.858-16.163-12.895c-8.186,0.037-15.956,4.321-16.163,12.895
	L117.702,210.134L117.702,210.134z"/>
<path style="fill:#666666;" d="M122.686,199.138c-1.17-0.134-5.408,1.165-5.914,5.647c-0.511,4.482-0.267,8.611-0.267,8.611
	s2.481,0.63,2.797,3.171c0.312,2.544,0.087,2.544,0.087,2.544l0.902-0.202l0.64-4.362c3.714-2.326-0.034-5.776,3.683-6.581
	c10.033,7.15,18.88,5.925,22.872,2.565c0,0-0.934,3.517-0.213,4.769c0.716,1.257,0.288,3.229,0.288,3.229l0.934-0.042
	c0,0-0.171-5.183,1.901-5.16c7.869-12.992-17.045-29.131-27.71-14.193L122.686,199.138L122.686,199.138z"/>
<g>
	<path style="fill:#FFFFFF;" d="M125.708,243.952c0.291,0.016-3.396,4.176-3.396,4.176l3.14,10.752l8.415-6.28
		c-4.627-2.272-7.392-5.217-8.16-8.648L125.708,243.952L125.708,243.952z"/>
	<path style="fill:#FFFFFF;" d="M142.025,243.952c-0.288,0.016,3.396,4.176,3.396,4.176l-3.137,10.752l-8.418-6.28
		c4.63-2.272,7.392-5.217,8.16-8.648L142.025,243.952L142.025,243.952z"/>
</g>
<path style="fill:#666666;" d="M211.338,98.208c2.513-4.229,6.476-9.131,2.452-16.583c-5.92-25.889,21.367-31.135,25.488-20.449
	c6.715,2.526,6.536,16.467,3.087,23.756c-0.158,3.001-3.274,5.618,2.36,13.359l0.406-0.089l0,0
	c-7.313,2.12-26.062,1.146-33.795,0.008L211.338,98.208L211.338,98.208z"/>
<path style="fill:#FED298;" d="M218.512,84.802c2.054,4.321,2.814,6.006,5.369,7.95c-0.404,7.449-4.406,7.449-8.869,9.768
	l28.409,0.627c-4.782-2.726-9.265-2.352-9.695-10.395c2.555-1.943,3.316-3.628,5.374-7.95c0.504,0.262,1.033,0.619,1.445,0.158
	c0.406-0.459,2.355-6.439,2.004-7.245c-0.632-1.458-1.566,1.267-1.771,0.372c-0.472-2.36-1.936-5.133-2.455-11.274
	c-5.87,10.854-22.77,6.392-22.047,10.973c-3.295-2.303,0.709,7.079,0.786,7.174C217.477,85.422,218.006,85.064,218.512,84.802
	C218.513,84.802,218.512,84.802,218.512,84.802z"/>
<path style="fill:#F0BA7D;" d="M223.881,92.749c-0.11,2.049-0.493,3.536-1.083,4.659l6.405,3.825l5.766-3.444
	c-0.677-1.186-1.115-2.783-1.238-5.041c-1.364,1.015-2.379,2.101-4.488,2.106c-2.204,0.005-3.373-1.055-5.359-2.106L223.881,92.749z
	"/>
<path style="fill:#ECF0F1;" d="M222.517,97.893c-0.724,1.136-1.692,1.862-2.817,2.463l0.003,0.003l9.428,17.871l8.75-17.884
	c-1.257-0.674-2.31-1.511-3.051-2.893V97.45l-5.983,2.972l-0.184,0.013l-5.309-2.843l-0.839,0.301H222.517z"/>
<path style="fill:#FF5B62;" d="M227.333,100.492l0.561,1.663l-1.241,18.957l2.138,1.978l2.143-1.978l-1.241-18.957l0.559-1.663
	l-1.458-0.074l-1.458,0.074C227.336,100.492,227.333,100.492,227.333,100.492z"/>
<path style="fill:#15BDB2;" d="M219.703,100.356c-3.135,1.671-8.874-0.349-12.447,5.427c-0.448,0.719-0.711,7.127-1.642,11.664
	c6.552,4.632,14.55,7.355,23.188,7.355c8.648,0,16.661-2.734,23.221-7.374c-0.828-4.535-0.823-10.928-1.265-11.646
	c-3.586-5.789-9.737-3.754-12.874-5.437l-8.75,17.884l-9.428-17.871l-0.003-0.003L219.703,100.356L219.703,100.356z"/>
<path style="fill:#FFFFFF;" d="M223.197,95.773l-1.421,2.959l4.226,7.1l2.76-5.413l-5.566-4.645L223.197,95.773L223.197,95.773z
	 M234.415,95.773l1.448,2.89l-4.252,7.169l-2.76-5.413L234.415,95.773z"/>
<path style="fill:#21D0C3;" d="M220.421,99.934l8.451,16.462l8.323-16.454c0.42,0.264,0.865,0.506,1.335,0.73l-9.658,18.87
	l-9.747-18.891c0.456-0.221,0.886-0.454,1.295-0.714V99.934z"/>
<circle style="fill:#DCE3DB;" cx="228.802" cy="404.448" r="64.903"/>
<path style="fill:#F0BA7D;" d="M220.031,401.542h3.486h10.573h3.488l1.419,14.788l2.526,2.028l5.323,3.389l-18.041,42.624
	l-18.044-42.624l5.322-3.389l2.526-2.028l1.419-14.788H220.031z"/>
<path style="fill:#ECF0F1;" d="M214.241,419.447l-14.545,4.645l29.107,40.276l24.763-41.627l-10.274-3.258l-9.052,6.384h-10.852
	l-9.154-6.423L214.241,419.447z"/>
<path style="fill:#FF5B62;" d="M225.56,425.286l1.246,3.064l-2.765,34.955l4.769,3.651l4.772-3.651l-2.765-34.955l1.241-3.064
	l-3.248-0.129l-3.248,0.129H225.56z"/>
<path style="fill:#15BDB2;" d="M214.491,419.37l-25.724,8.215c0,0-3.331,1.724-4.335,6.995c-0.876,4.574-1.364,9.236-2.017,15.255
	c11.783,12.042,28.213,19.518,46.393,19.518s34.61-7.475,46.39-19.518c-0.653-6.02-1.141-10.681-2.017-15.255
	c-1.005-5.273-4.336-6.995-4.336-6.995l-25.548-8.102l-14.49,42.496l-14.314-42.606L214.491,419.37z"/>
<path style="fill:#21D0C3;" d="M214.496,419.37l-5.553,1.774l-1.065,14.075c0,0,0.291,1.16,1.173,1.057l5.007,1.88
	c0,0,0.325,0.325,0.034,0.743l-4.286,2.938l14.519,27.36c1.482,0.1,2.972,0.158,4.48,0.158c1.506,0,2.995-0.058,4.48-0.158
	l14.519-27.36l-4.286-2.938c-0.291-0.414,0.034-0.743,0.034-0.743l5.007-1.88c0.881,0.102,1.175-1.057,1.175-1.057l-1.062-14.034
	l-5.374-1.7l-14.49,42.49L214.496,419.37z"/>
<path style="fill:#FED298;" d="M208.372,371.464c0,1.377-0.501,2.723-0.464,4.042c-4.703-0.873-2.434,13.091,0.229,15.014
	c0.215,0.155,0.732-0.187,1.17-0.467c0.92,5.141,8.798,18.865,13.805,24.646c1.39,1.603,9.9,1.579,11.271,0.058
	c5.131-5.642,12.997-19.536,13.926-24.701c0.441,0.28,0.955,0.622,1.17,0.467c2.663-1.922,4.934-15.888,0.229-15.014
	c0.037-1.316-0.464-2.665-0.464-4.042c-0.259-10.844-10.085-16.257-20.436-16.305c-10.353,0.045-20.176,5.461-20.436,16.305
	L208.372,371.464z"/>
<path style="fill:#666666;" d="M214.671,357.563c-1.479-0.168-6.839,1.471-7.48,7.14c-0.646,5.668-0.338,10.888-0.338,10.888
	s3.137,0.794,3.536,4.008c0.393,3.219,0.108,3.219,0.108,3.219l1.141-0.257l0.813-5.516c4.693-2.94-0.042-7.303,4.656-8.32
	c12.685,9.039,23.872,7.491,28.921,3.242c0,0-1.181,4.446-0.27,6.03c0.907,1.59,0.364,4.084,0.364,4.084l1.181-0.053
	c0,0-0.215-6.552,2.402-6.521c9.949-16.428-21.551-36.835-35.035-17.944h0.002V357.563z"/>
<g>
	<path style="fill:#FFFFFF;" d="M218.491,414.222c0.37,0.021-4.294,5.28-4.294,5.28l3.971,13.595l10.639-7.942
		c-5.852-2.874-9.346-6.594-10.316-10.936v0.003H218.491z"/>
	<path style="fill:#FFFFFF;" d="M239.121,414.222c-0.364,0.021,4.294,5.28,4.294,5.28l-3.966,13.595l-10.644-7.942
		c5.855-2.874,9.346-6.594,10.316-10.936L239.121,414.222L239.121,414.222z"/>
</g>
<circle style="fill:#21D0C3;" cx="391.972" cy="236.227" r="39.133"/>
<path style="fill:#FFFFFF;" d="M385.253,209.909h13.441v19.594h19.597v13.443h-19.597v19.594h-13.441v-19.594h-19.597v-13.443
	h19.597V209.909z"/>
<g>
</g>
<g>
</g>
<g>
</g>
<g>
</g>
<g>
</g>
<g>
</g>
<g>
</g>
<g>
</g>
<g>
</g>
<g>
</g>
<g>
</g>
<g>
</g>
<g>
</g>
<g>
</g>
<g>
</g>
</svg>
