<?xml version="1.0" encoding="iso-8859-1"?>
<!-- Generator: Adobe Illustrator 19.0.0, SVG Export Plug-In . SVG Version: 6.00 Build 0)  -->
<svg version="1.1" id="Layer_1" xmlns="http://www.w3.org/2000/svg" xmlns:xlink="http://www.w3.org/1999/xlink" x="0px" y="0px"
	 viewBox="0 0 511.998 511.998" style="enable-background:new 0 0 511.998 511.998;" xml:space="preserve">
<circle style="fill:#FAD24D;" cx="255.999" cy="255.999" r="255.999"/>
<path style="fill:#666666;" d="M150.884,73.862h184.169c2.906,0,5.263,2.356,5.263,5.263v353.748c0,2.906-2.356,5.263-5.263,5.263
	H150.884c-2.906,0-5.263-2.356-5.263-5.263V79.125C145.621,76.219,147.977,73.862,150.884,73.862z"/>
<path style="fill:#FFFFFF;" d="M158.956,123.021H326.98c2.258,0,4.088,1.83,4.088,4.088v257.779c0,2.258-1.83,4.088-4.088,4.088
	H158.956c-2.258,0-4.088-1.83-4.088-4.088V127.109C154.868,124.852,156.698,123.021,158.956,123.021z"/>
<g>
	<path style="fill:#C0C1C4;" d="M198.749,96.351h88.432c2.031,0,3.678,1.647,3.678,3.678l0,0c0,2.031-1.647,3.678-3.678,3.678
		h-88.432c-2.031,0-3.678-1.647-3.678-3.678l0,0C195.071,97.998,196.718,96.351,198.749,96.351z"/>
	<circle style="fill:#C0C1C4;" cx="242.246" cy="414.648" r="12.215"/>
	<circle style="fill:#C0C1C4;" cx="169.878" cy="100.344" r="4.174"/>
</g>
<path style="fill:#FF5B62;" d="M174.776,140.519h27.272c3.221,0,5.832,2.611,5.832,5.832v27.272c0,3.221-2.611,5.832-5.832,5.832
	h-27.272c-3.221,0-5.832-2.611-5.832-5.832v-27.272C168.944,143.13,171.555,140.519,174.776,140.519z"/>
<path style="fill:#D1D2D4;" d="M229.33,140.519h27.272c3.221,0,5.832,2.611,5.832,5.832v27.272c0,3.221-2.611,5.832-5.832,5.832
	H229.33c-3.221,0-5.832-2.611-5.832-5.832v-27.272C223.499,143.13,226.109,140.519,229.33,140.519z"/>
<g>
	<path style="fill:#21D0C3;" d="M283.887,140.519h27.272c3.221,0,5.832,2.611,5.832,5.832v27.272c0,3.221-2.611,5.832-5.832,5.832
		h-27.272c-3.221,0-5.832-2.611-5.832-5.832v-27.272C278.055,143.13,280.666,140.519,283.887,140.519z"/>
	<path style="fill:#21D0C3;" d="M174.776,188.86h27.272c3.221,0,5.832,2.611,5.832,5.832v27.272c0,3.221-2.611,5.832-5.832,5.832
		h-27.272c-3.221,0-5.832-2.611-5.832-5.832v-27.272C168.944,191.471,171.555,188.86,174.776,188.86z"/>
</g>
<path style="fill:#FAD24D;" d="M229.33,188.86h27.272c3.221,0,5.832,2.611,5.832,5.832v27.272c0,3.221-2.611,5.832-5.832,5.832
	H229.33c-3.221,0-5.832-2.611-5.832-5.832v-27.272C223.499,191.471,226.109,188.86,229.33,188.86z"/>
<path style="fill:#D1D2D4;" d="M283.887,188.86h27.272c3.221,0,5.832,2.611,5.832,5.832v27.272c0,3.221-2.611,5.832-5.832,5.832
	h-27.272c-3.221,0-5.832-2.611-5.832-5.832v-27.272C278.055,191.471,280.666,188.86,283.887,188.86z"/>
<path style="fill:#FAD24D;" d="M174.776,237.204h27.272c3.221,0,5.832,2.611,5.832,5.832v27.272c0,3.221-2.611,5.832-5.832,5.832
	h-27.272c-3.221,0-5.832-2.611-5.832-5.832v-27.272C168.944,239.815,171.555,237.204,174.776,237.204z"/>
<g>
	<path style="fill:#FF5B62;" d="M229.33,237.204h27.272c3.221,0,5.832,2.611,5.832,5.832v27.272c0,3.221-2.611,5.832-5.832,5.832
		H229.33c-3.221,0-5.832-2.611-5.832-5.832v-27.272C223.499,239.815,226.109,237.204,229.33,237.204z"/>
	<path style="fill:#FF5B62;" d="M89.512,166.263c13.247,0,25.175,5.633,33.529,14.631l56.656-14.376L131.6,194.067
		c2.35,5.507,3.654,11.568,3.654,17.934c0,25.261-20.479,45.741-45.741,45.741c-25.261,0-45.741-20.479-45.741-45.741
		c0-25.261,20.479-45.741,45.741-45.741L89.512,166.263L89.512,166.263z"/>
</g>
<path style="fill:#FFFFFF;" d="M387.484,230.223c28.328-13.293,62.067-1.105,75.36,27.221c13.293,28.328,1.105,62.069-27.221,75.362
	c-28.328,13.293-62.069,1.105-75.362-27.224c-4.276-9.11-5.909-18.778-5.226-28.149l-56.064-55.344l64.324,29.73
	c5.585-9.097,13.8-16.723,24.187-21.597h0.002V230.223z"/>
<path style="fill:#21D0C3;" d="M395.675,86.214c22.106,0,40.025,17.919,40.025,40.025s-17.919,40.025-40.025,40.025
	c-15.348,0-28.676-8.641-35.392-21.321l-0.002,0.004L320.3,158.208l36.591-22.04h0.002c-0.809-3.175-1.242-6.502-1.242-9.931
	c0-22.106,17.919-40.025,40.025-40.025L395.675,86.214L395.675,86.214z"/>
<path style="fill:#C0C1C4;" d="M433.513,293.985h-34.715l-14.596-33.355h-9.059v-4.17h11.787l14.593,33.355h31.988v4.17
	L433.513,293.985L433.513,293.985z M440.182,268.969l1.669-4.17h-45.861l1.667,4.17H440.182z M402.66,281.477l1.667,4.17h29.186
	l1.669-4.17H402.66z M438.517,273.138h-39.191l1.667,4.17h35.855L438.517,273.138z M433.515,304.407
	c0,3.453-2.803,6.255-6.255,6.255c-3.453,0-6.255-2.801-6.255-6.255c0-3.453,2.803-6.253,6.255-6.253
	C430.712,298.155,433.515,300.955,433.515,304.407z M412.667,304.407c0,3.453-2.801,6.255-6.253,6.255s-6.255-2.801-6.255-6.255
	c0-3.453,2.803-6.253,6.255-6.253S412.667,300.955,412.667,304.407z"/>
<g>
	<path style="fill:#FFFFFF;" d="M388.833,107.182v34.471l24.079-17.235L388.833,107.182z"/>
	<path style="fill:#FFFFFF;" d="M78.852,197.83c-0.091-1.142-0.104-2.296,0.06-3.43c6.568,0.573,13.094,1.568,19.65,2.285
		c2.134,0.241,4.289,0.405,6.391,0.846c0.339,3.27,0.348,6.566,0.591,9.847c0.232,4.451,0.653,8.897,0.763,13.353
		c0.097,2.407,0.589,4.89-0.139,7.245c-0.417,1.433-1.189,2.857-2.487,3.662c-2.337,1.371-5.314,1.773-7.885,0.826
		c-1.786-0.551-3.349-1.909-3.991-3.687c-0.992-1.951-0.507-4.48,1.03-6.015c2.723-2.998,8.089-2.617,10.508,0.587
		c-0.252-5.27-0.401-10.541-0.633-15.815c-6.88-0.644-13.765-1.237-20.644-1.865c-0.055,1.105,0.002,2.205,0.095,3.301
		c0.197,3.228,0.35,6.458,0.565,9.681c0.062,2.115,0.412,4.284-0.236,6.344c-0.366,1.451-1.356,2.65-2.48,3.587
		c-1.255,0.963-2.884,1.109-4.403,1.215c-1.827,0.146-3.68-0.361-5.223-1.325c-1.508-1.023-2.617-2.73-2.668-4.575
		c-0.19-2.223,1.078-4.566,3.164-5.443c2.677-1.404,6.486-1.034,8.419,1.453c0.133-0.042,0.266-0.086,0.405-0.117
		c-0.284-7.32-0.538-14.642-0.853-21.96L78.852,197.83z"/>
</g>
<g>
</g>
<g>
</g>
<g>
</g>
<g>
</g>
<g>
</g>
<g>
</g>
<g>
</g>
<g>
</g>
<g>
</g>
<g>
</g>
<g>
</g>
<g>
</g>
<g>
</g>
<g>
</g>
<g>
</g>
</svg>
