<?xml version="1.0" encoding="iso-8859-1"?>
<!-- Generator: Adobe Illustrator 19.0.0, SVG Export Plug-In . SVG Version: 6.00 Build 0)  -->
<svg version="1.1" id="Layer_1" xmlns="http://www.w3.org/2000/svg" xmlns:xlink="http://www.w3.org/1999/xlink" x="0px" y="0px"
	 viewBox="0 0 512 512" style="enable-background:new 0 0 512 512;" xml:space="preserve">
<circle style="fill:#21D0C3;" cx="256" cy="256" r="256"/>
<path style="fill:#666666;" d="M163.916,73.863h184.169c2.906,0,5.263,2.356,5.263,5.263v353.749c0,2.906-2.356,5.263-5.263,5.263
	H163.916c-2.906,0-5.263-2.356-5.263-5.263V79.125C158.652,76.219,161.009,73.863,163.916,73.863z"/>
<path style="fill:#DCE3DB;" d="M171.988,123.022h168.025c2.258,0,4.088,1.83,4.088,4.088v257.779c0,2.258-1.83,4.088-4.088,4.088
	H171.988c-2.258,0-4.088-1.83-4.088-4.088V127.11C167.9,124.852,169.73,123.022,171.988,123.022z"/>
<g>
	<path style="fill:#C0C1C4;" d="M211.78,96.352h88.433c2.031,0,3.678,1.647,3.678,3.678v0.001c0,2.031-1.647,3.678-3.678,3.678
		H211.78c-2.031,0-3.678-1.647-3.678-3.678v-0.001C208.103,97.999,209.749,96.352,211.78,96.352z"/>
	<circle style="fill:#C0C1C4;" cx="255.271" cy="414.65" r="12.214"/>
	<circle style="fill:#C0C1C4;" cx="182.903" cy="100.344" r="4.173"/>
</g>
<g>
	<path style="fill:#FFFFFF;" d="M267.226,170.468c10.076,0,19.202,4.086,25.807,10.69c6.603,6.604,10.69,15.729,10.69,25.807
		c0,10.076-4.086,19.202-10.69,25.807c-6.604,6.604-15.73,10.69-25.807,10.69c-10.077,0-19.203-4.087-25.807-10.69
		c-6.604-6.604-10.69-15.73-10.69-25.807c0-10.077,4.087-19.202,10.69-25.807C248.025,174.555,257.15,170.468,267.226,170.468z
		 M284.699,189.492c-4.47-4.47-10.649-7.237-17.473-7.237c-6.823,0-13.002,2.767-17.473,7.237c-4.47,4.471-7.237,10.65-7.237,17.473
		c0,6.824,2.767,13.003,7.237,17.473c4.471,4.47,10.65,7.237,17.473,7.237c6.824,0,13.003-2.767,17.473-7.237
		s7.237-10.649,7.237-17.473C291.936,200.142,289.169,193.962,284.699,189.492z"/>
	<path style="fill:#FFFFFF;" d="M267.226,157.431c13.678,0,26.062,5.545,35.026,14.509s14.509,21.348,14.509,35.026
		c0,13.678-5.545,26.062-14.509,35.026c-8.963,8.964-21.347,14.509-35.026,14.509c-13.677,0-26.062-5.545-35.026-14.509
		c-8.963-8.963-14.509-21.347-14.509-35.026c0-13.677,5.545-26.062,14.509-35.026C241.164,162.976,253.55,157.431,267.226,157.431z
		 M298.084,176.107c-7.897-7.897-18.807-12.782-30.858-12.782c-12.049,0-22.961,4.886-30.858,12.782
		c-7.897,7.896-12.782,18.808-12.782,30.858c0,12.05,4.885,22.961,12.782,30.858s18.808,12.782,30.858,12.782
		c12.05,0,22.961-4.885,30.858-12.782c7.897-7.897,12.782-18.807,12.782-30.858C310.867,194.915,305.98,184.004,298.084,176.107z"/>
</g>
<path style="fill:#FED198;" d="M372.439,252.29l-0.001,0.001c-7.115-0.702-11.698,4.979-13.972,11.769l-14.106,42.156l-6.602-6.138
	l-13.111-17.179l-22.944-40.714l-23.27-40.971c-3.647-6.417-11.841-8.953-18.051-5.242c-6.209,3.71-8.508,11.706-4.88,18.129
	l39.78,70.32l-2.935,1.9l-8.585-16.802c-3.357-6.569-11.746-8.783-18.048-5.245c-6.302,3.548-8.235,11.563-4.882,18.132l9.334,18.26
	l-3.322,2.151l-5.821-11.888c-3.243-6.62-11.84-8.951-18.045-5.242c-6.212,3.711-8.122,11.508-4.88,18.133l6.538,13.361
	l-3.982,2.578l-3.612-6.668c-3.51-6.482-11.836-8.948-18.045-5.24c-6.211,3.712-8.392,11.646-4.881,18.13l7.481,13.813l1.057,2.476
	l46.225,71.025c6.27,9.639,15.159,15.659,22.324,17.941c2.052,0.653,3.958,1.003,5.627,1.039l43.235,74.625l81.037-45.812
	l-52.239-75.848c12.63-19.032,13.439-93.107,15.471-118.641C384.906,259.426,379.55,252.988,372.439,252.29L372.439,252.29z"/>
<path style="fill:#F0B97D;" d="M414.653,464.732l6.451-3.646l-52.239-75.848c12.631-19.033,13.438-93.107,15.471-118.641
	c0.103-1.284,0.013-2.548-0.243-3.759c-5.229,35.822-5.933,101.934-20.574,122.534L414.653,464.732L414.653,464.732z"/>
<path style="fill:#FAD24D;" d="M403.122,420.145l-91.455,53.189l19.38,38.664l96.254-54.414L403.122,420.145L403.122,420.145z"/>
<g>
	<path style="fill:#FFFFFF;" d="M390.641,405.187L304.508,454.7l9.974,16.882l86.133-49.511L390.641,405.187L390.641,405.187z"/>
	<path style="fill:#FFFFFF;" d="M330.949,476.796c-4.715,2.756-6.316,8.787-3.581,13.475c2.735,4.687,8.777,6.254,13.49,3.501
		c4.713-2.758,6.316-8.79,3.583-13.479C341.702,475.607,335.661,474.042,330.949,476.796L330.949,476.796z"/>
	<path style="fill:#FFFFFF;" d="M258.433,210.243l5.579,10.143l15.383-8.691l-5.574-10.148
		C269.432,193.562,253.328,202.781,258.433,210.243z M364.513,261.011L364.513,261.011l-3.366,13.469l17.254,4.575l3.366-13.47
		C383.955,256.83,366.681,252.329,364.513,261.011z"/>
</g>
<g>
</g>
<g>
</g>
<g>
</g>
<g>
</g>
<g>
</g>
<g>
</g>
<g>
</g>
<g>
</g>
<g>
</g>
<g>
</g>
<g>
</g>
<g>
</g>
<g>
</g>
<g>
</g>
<g>
</g>
</svg>
