<?xml version="1.0" encoding="iso-8859-1"?>
<!-- Generator: Adobe Illustrator 19.0.0, SVG Export Plug-In . SVG Version: 6.00 Build 0)  -->
<svg version="1.1" id="Layer_1" xmlns="http://www.w3.org/2000/svg" xmlns:xlink="http://www.w3.org/1999/xlink" x="0px" y="0px"
	 viewBox="0 0 512 512" style="enable-background:new 0 0 512 512;" xml:space="preserve">
<circle style="fill:#E6F3FF;" cx="256" cy="256" r="256"/>
<path style="fill:#CFDBE6;" d="M281.829,510.709c126.085-12.633,225.183-116.755,229.969-244.998L359.865,113.778l-1.321,1.808
	l-24.252-24.252l-56.458,18.71l-125.7,60.623l173.447,173.447l-163.535,25.664l56.81,56.811l-15.51,5.639L281.829,510.709z"/>
<rect x="152.135" y="113.778" style="fill:#FD8469;" width="28.444" height="56.889"/>
<rect x="331.421" y="113.778" style="fill:#FC6F58;" width="28.444" height="56.889"/>
<rect x="199.111" y="182.734" style="fill:#31BAFD;" width="113.778" height="56.889"/>
<rect x="256" y="182.734" style="fill:#2B9ED8;" width="56.889" height="56.889"/>
<rect x="162.047" y="227.556" style="fill:#31BAFD;" width="31.323" height="142.222"/>
<rect x="318.629" y="227.556" style="fill:#2B9ED8;" width="31.323" height="142.222"/>
<path style="fill:#324A5E;" d="M319.928,199.542H192.071c-11.821,0-21.404-9.583-21.404-21.404V107.17
	c0-11.821,9.583-21.406,21.404-21.406h127.857c11.821,0,21.406,9.583,21.406,21.406v70.968
	C341.333,189.959,331.75,199.542,319.928,199.542z"/>
<g>
	<path style="fill:#2B3B4E;" d="M319.928,85.764H256v113.778h63.928c11.821,0,21.406-9.583,21.406-21.406V107.17
		C341.333,95.347,331.75,85.764,319.928,85.764z"/>
	<path style="fill:#2B3B4E;" d="M256,455.542L256,455.542c-39.274,0-71.111-31.837-71.111-71.111V227.987h142.222v156.444
		C327.111,423.705,295.274,455.542,256,455.542z"/>
</g>
<path style="fill:#1B2A38;" d="M256,227.987v227.556c39.272,0,71.111-31.837,71.111-71.111V227.987H256z"/>
<circle style="fill:#31BAFD;" cx="210.954" cy="142.653" r="26.721"/>
<circle style="fill:#B5F1F4;" cx="210.954" cy="142.653" r="13.765"/>
<circle style="fill:#2B9ED8;" cx="301.028" cy="142.653" r="26.721"/>
<circle style="fill:#84DBFF;" cx="301.028" cy="142.653" r="13.765"/>
<g>
</g>
<g>
</g>
<g>
</g>
<g>
</g>
<g>
</g>
<g>
</g>
<g>
</g>
<g>
</g>
<g>
</g>
<g>
</g>
<g>
</g>
<g>
</g>
<g>
</g>
<g>
</g>
<g>
</g>
</svg>
