<?xml version="1.0" encoding="iso-8859-1"?>
<!-- Generator: Adobe Illustrator 19.0.0, SVG Export Plug-In . SVG Version: 6.00 Build 0)  -->
<svg version="1.1" id="Layer_1" xmlns="http://www.w3.org/2000/svg" xmlns:xlink="http://www.w3.org/1999/xlink" x="0px" y="0px"
	 viewBox="0 0 512 512" style="enable-background:new 0 0 512 512;" xml:space="preserve">
<circle style="fill:#FAD24D;" cx="256" cy="256" r="256"/>
<path style="fill:#666666;" d="M70.739,118.029h370.522c12.173,0,22.132,9.96,22.132,22.132v228.246H48.606V140.161
	C48.606,127.989,58.566,118.029,70.739,118.029L70.739,118.029z"/>
<path style="fill:#FFFFFF;" d="M63.636,353.379h384.73V140.161c0-3.878-3.227-7.103-7.104-7.103H70.739
	c-3.878,0-7.103,3.225-7.103,7.103V353.379z"/>
<path style="fill:#B6B6B8;" d="M17.707,368.407h476.585v12.782c0,7.03-5.751,12.781-12.781,12.781H30.488
	c-7.03,0-12.781-5.751-12.781-12.781V368.407L17.707,368.407z"/>
<path style="fill:#919191;" d="M210.581,372.154h90.841l-9.731,6.462h-71.38L210.581,372.154L210.581,372.154z"/>
<path style="fill:#21D0C3;" d="M352.255,152.415c5.477,0,3.601,1.938,6.379,2.818c2.214,0.705,0.714-0.44,3.301-0.558
	c0.791-0.058,1.578,0.176,2.365,0.089c2.253-0.208,1.089-0.324,1.875-0.705c1.653-0.792,7.506-0.645,8.933-0.149
	c1.424,0.5,1.2,0.795,3.451,1.294c2.889,0.614,6.078-0.617,8.63,0.734c1.615,0.881,0.903,1.147,3.455,1.176
	c2.099,0,4.089-0.5,6.002-0.028c2.252,0.526,0.787-0.089,3.451-0.501c0.863-0.116,1.351,0,2.14,0.264
	c1.876,0.617,1.464,1.028,3.979,0.912c4.426-0.264,7.128,1.82,11.106,2.376c2.74,0.382,5.516-0.206,5.328,3.114
	c-2.852,0.353-5.139-2.175-7.806-0.587c0.115,2.495,1.539,0.909,2.925,2.936c-0.111,0.031-0.26,0.059-0.336,0.089
	c-2.101,0.499-3.041,1.116-4.542,3.082c-2.063,0-3.601-0.469-5.779,0.646c-0.375,3.407,4.052,2.526,3.528,7.608
	c-0.037,0.939-0.037,2.496-0.189,3.817c-1.875-0.176-6.341-4.934-7.203-6.344c-1.576-2.585,3.002-8.31,0.3-8.164
	c-0.976,0.06-0.337,0.618-1.351,1.647c-2.665-0.119-1.426-2.116-4.692-0.911c-0.75,2.878,1.088,2.525-0.337,3.29
	c-1.463,0.763-2.589-0.353-3.678-0.529c-0.227-0.059-7.318,0.321-7.655,0.468c-0.788,0.939-2.214,4.553-2.551,5.464
	c2.324,1.38,3.939,1.055,4.764,1.085c1.127,0.031,1.502,0.708,2.403,0.911c2.664,0.647,0.076-0.853,2.214,0
	c1.613,1.764,3.227,3.495,4.84,5.229c-0.301,0.676-0.562,1.32-0.825,1.966c-1.727-1.29-1.988-4.023-4.127-4.816
	c-0.339,2.818,2.513,1.525,0.937,8.133c-1.351,5.757-2.364,3.583-4.805,4.228c-0.562,0.353-2.062,4.23-2.212,4.876
	c1.799,1.674,4.014,2.557,3.901,6.02c-1.051,0.528-1.727,1.028-3.152,0.646c-1.501-5.932-1.014-2.967-2.814-4.758
	c-1.875-1.88,0.487-3.642-4.728-1.556c-0.789-1.146-0.301-1.028-0.715-2.291c-1.313,0.176-3.114,1.877-3.527,3.201
	c1.127,0.588,2.025,1.352,2.589,1.44c1.089,0.116,1.613-0.676,3.078,0.262c-0.826,1.645-1.425,1.29-2.101,2.967
	c1.2,1.965,3.264,3.377,3.976,5.99c0.038,0.089,0.076,0.204,0.113,0.321c0.414,1.352,0.715,0.324,0.787,2.203
	c0.039,1.38-0.638,2.146-1.126,3.524c-2.437,6.372-6.004,5.493-10.844,7.841c0.076,1.763,1.613,4.609-1.914,3.964
	c-0.261-2.846,1.24-1.38,0.939-4.109c-2.291-0.794-3.604,0.292-4.616,2.701c0.9,4.23,6.003,4.552,4.653,11.013
	c-1.578,1.32-3.152,2.613-4.693,3.906c-1.424-0.912,0.115-0.239-1.236-1.911c-1.427-1.704-3.118-2.909-4.69-4.317
	c-0.115,0.235-0.228,0.469-0.34,0.706c-0.523,1.379-1.199,2.935-0.861,4.317c0.15,0.704,1.35,3.288,1.988,3.846
	c1.127,1.087,2.29,1.321,2.665,3.026c0.149,0.587,0.712,4.962,0.712,5.227c-4.653-1.704-3.266-4.787-4.953-7.782
	c-0.714-1.351-0.899-1.029-1.838-2.35c-0.074-2.407,0.638-4.375,0.077-6.87c-0.376-1.47-1.089-3.615-1.464-5.111
	c-1.689,0.352-3.19,2.703-3.567,0.411c-0.073-0.411-0.149-0.794-0.185-1.145c-0.975-4.23-2.364-3.085-3.791-7.137
	c-2.29,0.734-2.363,0.794-5.066,1.232l-0.037,0.05l0.008,0.15c-1.077,1.496,0.054,0.861-1.834,2.422
	c-2.252,1.849-3.717,4.376-6.229,5.874c-0.301,2.616,0.226,3.202-0.45,6.315c-0.262,1.144-1.576,4.227-3.116,3.995
	c-0.487-0.09-2.551-5.082-3.039-6.463c-0.826-2.348-1.765-4.081-2.362-6.784c-0.338-1.438-0.566-4.199-0.904-5.168
	c-1.613,0.234-1.537,1.236-3.075,0.176c-1.089-0.763-0.6-1.232-1.202-2.378c-1.276-1.174-2.589-2.349-3.9-3.523
	c-1.015-0.321-4.917,0.235-6.568,0.058c-2.964-0.264-3.228-0.089-4.992-2.406c-3.114,0.146-2.852,1.289-5.889-1.266
	c-1.991-1.642-1.615-4.286-4.504-2.788c-0.112,2.408,1.089,2.937,2.176,4.054c0.787,0.851,1.765,1.438,2.176,2.583
	c0.038,0.031,0.227,1.118,0.262,1.263c2.815,0.177,3.491-1.145,5.028-2.261c1.502,1.38,0.037,1.616,2.214,2.702
	c1.727,0.852,1.389,0.352,2.514,1.732c0.564,1.853-3.865,6.874-5.328,7.784c-1.126,0.704-1.728,0.294-2.74,1.115
	c-1.5,1.236,0.189,1.059-2.439,1.998c-2.814,0.998-5.593,3.112-8.555,3.29c-0.638-1.704-1.276-3.436-1.914-5.169
	c-1.875-5.902-1.799-3.613-3.715-6.667c-0.902-1.321-0.527-2.175-1.127-3.347c-0.412-0.88-1.05-1.263-1.614-2.349
	c-0.863-1.674-1.875-4.288-3.864-4.023l-0.966-4.798c0.253-0.005,0.565-0.028,0.966-0.078c0.412-0.821,3.452-8.283-0.489-7.342
	c-1.164,0.292-0.373,0.704-2.025,0.292c-1.727-0.438-0.073-0.764-1.987-0.499c-1.879,0.264-4.129,1.88-5.593-3.67
	c-0.561-1.999-1.577-3.73-3.9-0.708c0.599,1.029,1.011,1.118,1.687,2.116c-0.187,0.291-0.824,1.029-1.05,1.263
	c-1.276,1.233,0.527,0.645-1.538,0.909c-1.125-0.82-0.9-1.88-1.987-3.346c-1.914-2.733-0.677-1.467-1.654-4.082
	c-0.768-0.659-2.038-1.152-3.075-1.799v-0.019l-0.058-0.039c-0.261-0.175-0.525-0.351-0.749-0.559
	c-1.652-1.436-1.991-2.729-3.828-2.406c-0.04,1.35,0.149,1.408,0.825,2.291c2.551,3.112,1.765,2.057,3.751,3.201l0.076,0.041v0.014
	c0.464,0.26,1.007,0.632,1.746,1.157c-2.543,2.188-0.204,2.428-1.746,3.158v0.002l-0.018,0.006l-0.058,0.028
	c-0.151,0.057-0.299,0.118-0.41,0.176c-0.527-1.291,0.637-0.676-0.716-2.554c-0.75-0.969-1.463-1.263-2.625-1.793
	c-2.929-1.35-2.552-2.407-4.354-4.172c-2.027,0.061-1.575,0.678-3.002,1.381c-1.726,0.821-1.463-0.145-3.49,0.03
	c-1.652,2.849,0.714,0.47-2.29,2.821c-3.604,2.729-0.638,5.578-6.414,6.431c-0.414,0.059-0.566,0-0.975,0.146
	c-1.054,0.366-0.495,0.08-1.03,0.616l-0.955,0.038h-0.001c-0.156-1.203-1.499-1.4-2.932-1.447c-0.786-2.613-0.786-1.966-0.187-4.374
	c0.338-1.351,0.037-1.999,0.338-3.35c0.75-3.376,6.64-0.026,8.331-1.408c0.787-1.439,0.9-2.846,0-4.23
	c-0.94-1.38-2.176-1.204-2.814-2.525c1.425-0.938,0.373-0.118,1.614-0.383c1.462-0.321,1.275-0.734,2.999-1.055
	c1.541-0.295,2.518-1.676,4.018-2.613c2.137-1.349,1.122-2.557,3.713-2.966c4.166-0.708,1.463-0.588,1.916-4.377
	c0.633-0.235,1.235-0.5,1.835-0.764c1.314,1.676-0.336,1.001,1.238,2.114c0.414-0.234,0.9-0.468,1.352-0.702
	c-0.226-1.823-1.088-1.471-1.652-3.73c-2.064,0.321-2.814,2.026-4.465,1.408c-1.613-0.587-1.687-2.849-1.613-4.728
	c0.598-1.408,3.6-2.173,4.764-2.526c1.877-0.617,1.614-1.849,3.341-3.524c2.253-2.205,0.598,0.03,1.688-2.817
	c2.476-0.091,1.314-0.18,2.776-0.912l0.058-0.022l0.018-0.006l0.132-0.052c0.863-0.383,1.988-0.471,3.114-0.852
	c4.127-1.349,5.816-0.676,8.817,0.528c2.326,0.938,9.344,0.97,9.871,3.847c-1.691,1.731-3.303,0.469-5.743,0.618
	c0.451,2.231,0.64,2.231,2.703,2.847c0.337-1.06-0.15-0.646,0.411-1.321c0.678,0.146,1.352,0.261,2.026,0.379
	c0.677-2.26,1.465-1.938,3.755-2.202c-0.376-1.556-0.789-1.115,0.073-2.348c2.365,0.234,0.453,0.03,1.614,1.879
	c1.653-0.206,3.267-1.997,5.555-2.233c1.425-0.146,1.348,0.383,3.376,0.178c1.652-0.178,1.577-0.766,3.229-0.089
	c0.599-1.087,0-1.059,1.462-1.32c2.252-0.384,4.205,0.966,6.38,1.263c-1.614-1.94-3.151-1.558-1.163-4.788
	c2.514-0.499,2.74-0.148,3.827,1.702c0.75-0.41,0.975-0.821,1.388-0.939c1.127-0.265,1.5,0.676,3.94-0.734
	c1.539-0.852-0.975-0.295,1.801-1.059c1.087-0.265,1.087,0.177,2.063-0.616c2.215-0.793,4.392-1.616,6.604-2.439
	c2.363-0.028,1.164,0.676,3.866-0.323c3.677-1.293,4.727,0.089,7.504,0.177c6.497,0.249,4.195,3.869,14.359,3.869
	c1.615,0,1.502-0.618,3.79-0.646c0.113,0,0.226,0,0.376,0L352.255,152.415z M391.919,205.834c0.185,1.408,0.9,2.467,2.14,3.025
	c1.276-1.997-0.3-2.114,4.35-3.554c0.3-0.089,0.601-0.207,0.864-0.321c3.978-2.233,1.238-0.618,4.24-1.791
	c0.039-1.82-0.414-3.025-0.562-4.992c-0.074-2.203-0.826-3.055-2.814-3.407c-0.189,4.083,2.664,2.762-1.952,7.017
	C395.783,204.071,394.206,201.429,391.919,205.834L391.919,205.834z M365.802,261.368c0.262-1.232,0.451-2.76,1.013-3.672
	c1.765,0,0.152,1.439,2.815,1.115c0.451-1.026,0.451-1.526,0.262-2.612c-1.201-0.264-1.538-0.03-2.403,0.705
	c-0.26-0.293-0.522-0.586-0.786-0.88c-1.239-0.879-1.089,1.146-2.252-1.146c-1.239-2.378,0.15-2.408-2.551-4.051
	c-1.653-1-2.216-1.557-3.566-2.938c-2.325-2.437-0.264-1.351-4.128-2.526c-0.076,2.674,0.527,1.087,2.589,4.199
	c0.864,1.471,1.689,2.938,2.552,4.405C360.585,255.992,361.863,261.513,365.802,261.368L365.802,261.368z M371.767,257.519
	c3.34,0.501,5.74,1.705,6.679,1.059c1.015-1.146,0.677-1.907,1.691-3.583c1.349-2.172,0.411-1.497,2.138-3.407
	c-0.975-3.492-1.426-1.936,0.449-5.492c-0.299-1.113-1.125-2.404-2.063-3.08c-1.088,0.676-0.15-0.09-0.899,0.879
	c-1.315,1.438-2.665,2.878-3.941,4.317c-1.126,1.088-0.676,0.262-2.402,1.616c-0.487,0.264-0.975,0.529-1.499,0.793
	c-0.826,0.291-1.352-0.646-1.538,1.791C370.265,253.526,371.429,256.023,371.767,257.519L371.767,257.519z M291.779,189.159
	c0.262,3.586,2.439,4.965,3.979,6.608c-0.189,1.704-0.604,1.263-0.566,3.641c1.841,1.294,3.19,2.085,5.593,1.44
	c0.337-2.878-0.604-2.733-1.502-4.699c0.15-0.236,0.562-0.529,0.639-0.588c0.675-0.88,0.336,0.352,0.675-1.146
	c-1.764-0.558-4.616-2.321-4.839-4.638c0.861-0.676,0.598-0.266,1.236-0.676c1.388-0.883,0.338,0.468,1.164-1.028
	c-0.712-1.351-1.501-1.587-3.227-0.911C294.18,187.457,292.191,188.837,291.779,189.159z M276.43,190.1
	c-1.161-1.584-1.088-2.378-3.339-2.436c-0.9,0.939-1.951,2.349-2.439,3.787c-0.751,2.174-0.227,0.676-0.15,3.025
	c-0.039,0.089,0,0.208,0,0.295c-0.039,1.408-0.377-0.266-0.152,1.029c1.766-0.353,0.414-0.324,1.728-0.738
	c1.237-0.409,5.028-1.525,6.115-1.262c2.589,0.586,4.767,2.585,7.693,0.586c-0.15-2.553-3.303-3.523-5.479-4.64
	c0.115-2.347,0.753-0.497,0.6-2.759c-0.75-0.031-1.2-0.148-1.913,0.145c-1.687,0.734-0.753,0.942-0.753,1.205
	c0.077,1.263,1.691-0.262-0.035,1.293C277.82,190.042,277.032,190.042,276.43,190.1L276.43,190.1z M232.62,172.296
	c-0.071,4.113,1.388,2.73,2.778,4.758c-0.636,1.734-0.75,0.383-1.46,2.172c-0.638,1.5,0.149,0.15-0.264,2.763
	c1.089,0.058,2.701-0.321,4.129-0.442c2.026-0.175,1.988-0.353,2.701-2.378c-1.126-1.351-2.253-2.701-3.413-4.051
	c-1.466-2.173,0-0.678-0.451-2.498c-0.336-0.646-0.638-1.289-0.938-1.938C233.748,171.329,233.936,171.152,232.62,172.296z"/>
<path style="fill:#FAD24D;" d="M278.721,213.77c-0.412,1.32,1.838,5.786,2.4,6.87c0.564,1.089,1.464,1.558,1.728,3.117
	c0.375,2.142-0.076,1.877,1.125,3.316c2.515,2.966-0.113,2.439,3.791,5.346c2.925,2.175,2.176,2.819,3.415,5.728
	c1.913,0.527,7.617-1.968,8.592-1.236c1.164,2.027-1.349,5.258-1.987,7.019c-2.102,5.904-5.779,5.816-8.594,10.338
	c-1.537,2.437-2.252,2.762-3.676,5.697c-1.616,3.32,3.263,12.511,0.337,16.358c-0.638,0.88-2.703,1.41-5.292,4.083
	c-2.74,2.907,0.074,2.406-0.976,7.253c-0.826,1.116-1.838,1.174-2.852,1.967c-0.375,1.145-0.074,2.056-0.712,3.465
	c-0.677,1.705-0.787,0.792-1.764,2.174c-0.715,1.085-0.639,1.526-1.464,2.525c-0.712,0.911-1.088,1.176-1.764,1.764
	c-3.264,2.937-10.282,3.025-10.883,2.613c-1.652-1.38-0.525-1.734-0.938-3.672c-0.399-1.704-1.323-3.131-2.098-4.444v-0.044
	l-0.06-0.102c-0.373-0.644-0.712-1.263-0.9-1.849c-1.351-4.172-0.86-7.339-3.225-11.568c-2.966-5.466,1.649-8.312,1.46-11.397
	c-0.074-0.82-0.373-1.32-0.45-1.968c-0.562-3.406-0.898-6.46-3.227-9.135c-2.551-2.904-2.214-1.877-1.386-6.662
	c1.048-5.492-1.352-4.083-4.728-4.228c-1.653-4.993-4.88-2.559-8.105-1.089c-2.027,0.909-2.778-0.261-5.067,0.06
	c-5.104,0.676-1.088,2.82-7.919-2.467c-2.85-2.205-0.938-1.088-2.625-3.847c-0.562-0.998-2.29-2.318-3.078-3.32
	c-2.587-3.171,0.488-6.37,0.039-10.012c-0.788-6.756-1.914-0.883,1.951-9.045c2.025-4.347,5.103-4.375,5.893-6.316
	c0.675-1.731,0.222-2.967,1.499-4.551c1.126-1.29,2.739-1.029,3.378-3.054c0.213-0.591,0.277-1.059,0.229-1.431h0.001l0.955-0.038
	l-0.061,0.06c0.489,1.116-0.187,0.938,1.765,1.205c3.563,0.467,4.016-1.674,6.604-2.205c1.276-0.264,9.27-0.586,9.831-0.441
	c1.725,1.881,0.3,3.204,0.3,4.787c1.876,0.97,4.539,1.205,5.63,2.205c1.237,1.145,0.638,0.968,1.237,1.172l0.076,0.022v0.011
	c0.223,0.066,0.552,0.181,1.108,0.388c1.501,0.5,1.426,0.792,3.039,0.909c1.464-4.787-0.038-4.286,7.016-2.086
	c7.356,2.352,4.052,0.208,7.167,0.529c1.251,0.12,1.214,0.454,2.299,0.431L278.721,213.77L278.721,213.77z M297.183,271.097
	c-1.65,0.82-1.876,2.701-3.114,3.758c-1.35,1.204-3.153,0.646-3.678,2.877c-0.676,2.791,1.127,1.938-0.864,5.58
	c-0.712,1.349-0.75,4.728,0.337,5.727c3.267,3.082,5.031-4.699,5.781-7.135c0.562-1.734,1.089-3.7,1.688-5.317
	C297.932,274.854,298.796,273.326,297.183,271.097L297.183,271.097z"/>
<path style="fill:#FF5B62;" d="M166.955,279.397c-1.013-1.642-3.489-2.404-5.479-3.729c-0.112-0.03-0.188-0.059-0.224-0.117
	c-2.74-1.88-5.33-9.251-7.507-12.012c-1.013-1.322-1.649-0.735-2.099-2.818c-0.488-1.908,0.261-1.587,0.9-3.175
	c-3.339-5.99,4.317-5.899,2.74-13.096c-0.337-1.32-1.314-3.171-2.14-3.758c-1.575,0.676-0.825,1.056-1.652,2.349
	c-1.277-0.708-2.552-1.412-3.79-2.116c-3.865-3.641-1.799-0.996-2.889-3.374c-2.325-4.993-4.542-2.203-7.317-4.672
	c-1.24-1.028-1.464-2.643-3.528-2.348c-3.114,0.411-1.387,0.879-4.615-0.59c-2.74-1.263-5.593-2.73-7.506-4.433
	c-0.076-2.644,0.902-2.762-0.787-5.228c-0.825-1.264-1.952-2.291-2.628-3.292c-1.199-1.907,0.564-0.176-2.437-3.932
	c-1.988-2.498,0.337-2.733-1.915-4.464c-2.962,1.379,1.689,5.285,3.155,11.6c-1.277-0.176-2.14-1.177-2.629-2.586
	c-0.75-2.321,0.038-1.731-2.288-2.702c0.112-3.995,0.9-0.469-0.75-4.433c-0.564-1.469-0.226-2.116-0.788-3.613
	c-0.451-1.291,0.226-0.119-0.527-0.852c-0.298-0.88,0.228-0.058-0.449-0.734c-0.675-0.736-0.038-0.089-0.638-0.529
	c-1.502-1.027-1.838-2.321-2.101-4.375c-0.754-6.695,1.5-7.254,4.089-12.039c1.99-3.438,1.614-2.935,0.037-5.756
	c0.377-1.412,0.864-1.44,0.753-3.377c-0.113-2.264-0.262-1.235,0.264-2.967c-0.077-0.089-0.189-0.148-0.264-0.176
	c-0.074,0-0.188-0.087-0.262-0.118c-0.076-0.028-0.226-0.089-0.3-0.146c-0.411-0.119-0.786-0.265-1.239-0.411
	c0.188-3.583,0.751-5.699-3.413-6.108c-1.838-0.177-3.002-0.94-3.601-0.911c-0.34,0-2.065,0.853-3.377,1.176
	c-2.328,0.617-1.089,0.556-3.229,0.177c-1.151-0.217-4.386,0.143-7.181-0.62l0.391-3.868c1.589-0.209,3.203-0.306,4.312-1.297
	c-1.087-0.909-2.213-0.265-3.827-0.82c0.299-2.85,4.765-1.882,6.716-1.882c0.262-2.143-0.899-2.083,0.151-2.907
	c0.603-0.469,12.27-3.435,15.124-2.877c4.352,0.793,8.703,1.588,13.056,2.35c2.665,0.262,6.904-1.528,9.644-1.412
	c2.064,0.12,0.188,0.529,2.74,0.708c1.764,0.117,1.838-0.383,3.79,0.176c1.801,0.529,0.938,0.676,3.077,0.676
	c0.338-1.146,0.676-2.321,1.053-3.496c-1.877,0.295-3.005,0.971-4.843,0.558c0.076-1.732,2.325-2.436,3.527-3.052
	c4.09-2.056,6.906,1.32,11.335,1.643c1.649,0.118,2.849-1.028,4.764-1.087c-0.638,1.205-1.052,0.942-1.952,2.526
	c0.826,2.174-0.337-0.705,0.638,1.235c0.151,0.236,0.262,0.236,0.415,0.852c-3.078,0.734-1.164,1.087-5.442,0.762
	c0.526,0.736-0.449,0.325,1.202,1.089c1.388,0.645,3.377,0.291,4.842,0.234c0.487-0.881,0.787-1.646,1.65-1.967
	c0.337-0.117,0.75-0.146,1.312-0.117c0.076,0.438,0.189,0.879,0.301,1.321c0,0.03,0.076,0.321,0.039,0.262
	c0.037-0.06,0.073,0.178,0.112,0.266c2.363-1.351,0.375-1.382,1.65-3.818c-1.99-0.383-1.726-0.15-2.966-1.381
	c1.204-1.293,3.529-1.734,5.255-1.616c-0.113,1.174-0.676,1.148-0.227,2.146c1.352-0.821,2.291-3.025,4.466-2.613
	c0.412,0.292,0.9,0.556,1.35,0.82c-1.127,1.029-2.814,1.087-4.277,1.675c-0.638,6.372,2.063,1.028,1.163,5.403
	c1.613-0.117,3.191-1.264,3.79-2.437c-0.599-0.766-1.462-0.766-1.951-1.674c0.379-1.174,1.187-2.065,2.326-2.593
	c0.77-0.359,1.695-0.548,2.74-0.548c11.932,0.087,6.265,0.614,9.944,2.261c0.824,0.351,2.288,0.529,2.778,1.235
	c0.75,1.116,0.038,2.172,1.236,3.054c1.051,0.762,1.203-0.03,2.591,1.674c-0.299,0.968-1.015,1.967-2.475,1.996
	c-2.027,0.031-0.826-1.32-3.005-1.116c0.039,1.998,2.066,2.763,0.189,3.847c-1.65,0.97-0.601-0.351-1.838,0.323
	c-0.037,0.031-0.151,0.089-0.189,0.118c-0.074,0.058-0.149,0.146-0.188,0.204c-0.226,0.239-0.414,0.442-0.599,0.65
	c-3.002-0.795-2.439-0.442-4.24-2.378c-0.675-0.734-0.787-0.912-1.99-0.822c-0.751,0.027-1.724,0.349-2.44-0.294
	c1.466-1.792,2.177-0.058,4.317-1.116c0.376-0.177,2.74-1.966,3.116-2.378c-0.638-1.408-0.077-0.239-1.013-1.145
	c-2.103-2.086-2.704-1.558-5.553-1.558c-1.335,1.5-2.336,3.358-3.79,4.172v0.002c-0.878,0.49-1.921,0.603-3.305,0.027
	c0.639,2.525,2.29,0.587,2.44,3.641c-1.089-0.206-1.653-0.736-2.778-0.352c-2.402,0.88-0.262,0.792-0.077,1.264
	c0,0.03,1.127,0.145,0,0.556c-1.239,0.44-0.187-0.236-2.589-1.615c0.338-0.588,0.676-1.203,1.013-1.82
	c-1.951,0.587-4.389,1.528-6.678,2.612c-2.591,1.263-5.03,2.703-6.492,4.025c-0.038,2.203,0.375,0.734,0.6,3.345
	c3.49,0.209,2.365,1.235,5.854,2.205c0.677,0.176,1.539,0.353,2.59,0.529c0,1.645-1.5,2.878-0.451,4.582
	c2.439,1.673,2.515-1.588,3.117-3.673c8.259-1.685,4.277-4.057,6.411-8.496v-0.001c0.32-0.664,0.776-1.369,1.431-2.134
	c0.636,0.03,3.224,0.295,3.789,0.414c1.876,0.319,0.865,0.762,2.891,1.642c-0.04,1.586-0.865,3.641,1.537,3.262
	c1.837-0.321,1.427-1.734,3.677-2.088c1.014,2.321,0.753,3.321,1.2,6.108c5.404,2.058,3.002,3.73,1.951,7.579
	c0.678,0.321,1.389,0.618,2.104,0.909c-0.037,1.116-0.077,2.203-0.113,3.29c-0.112,0-5.78-1.206-6.156-1.32
	c0.864-2.411,2.44-2.437,3.455-4.904c-2.027,0.35-1.877,0.966-3.341,1.408c-1.31,0.383-2.325,0.118-3.715,0.295
	c-0.488,1.583-0.037-1.381,0.113,0.644c0.076,0.766,0.45,0.032-0.077,0.852c-1.875-0.852-1.238-2.85-4.726-0.998
	c0.786,0.352,1.574,0.675,2.4,0.998c-0.111,2.26-0.299,0.556-0.787,2.055c-1.202,3.847,3.266,1.469,4.428,1.264
	c-0.301,2.027-1.577,2.027-3.379,2.584c-1.987,0.586-2.589,1.381-4.165,1.736c0-2.41-0.375-0.382,0.714-2.057
	c-1.576,0.145-2.741,0.85-4.24,1.469l-0.148,0.057v0.002c-1.931,0.768-2.222,0.88-2.441,3.288c-1.649,0.5-3.565,1.059-4.727,2.233
	c-1.164,1.086-2.328,2.173-3.455,3.231c-0.112,0.089-0.187,0.176-0.26,0.234c0.412,3.025,0,3.084-1.876,4.26
	c-1.578,0.997-2.102,0.968-3.566,2.231c-4.69,4.113-2.439,2.203-2.177,9.282c-0.975-0.294-1.913-0.618-2.814-0.939
	c-0.712-4.7,0.262-3.143-3.601-4.23c-4.167-1.174-3.604,0.821-5.328,1.176c-1.915,0.409-2.855-1.704-5.631,0.058
	c-1.536,1.029-3.001,1.705-3.374,3.522c-0.453,2.203-1.465,3.82-1.315,6.258c0.262,6.608,6.418,6.987,7.993,3.902
	c1.05-2.053,0.788-3.17,4.204-2.641c0.338,1.763-0.189,3.054-0.637,4.405c-0.301,0.792-1.128,2.232-0.716,3.32
	c2.44,0.966,2.515-0.851,5.743,1.024c0.224,3.144-1.465,6.669,1.011,8.488c1.914,1.382,2.026,0.149,3.716-0.146
	c1.876-0.321,1.539,0.822,3.266,1.087c0.975-1.174,0.562-0.441,1.2-1.879c1.127-2.496,1.427-1.321,4.091-2.849
	c0.261-0.146,0.487-0.293,0.751-0.471c0.298,0.618,0.638,1.205,0.936,1.791c1.953-2.26,2.179-0.058,4.428,0.561
	c0.966,0.258,1.658,0.351,2.19,0.358h0.001c1.635,0.024,1.802-0.755,4.036,0.019c0.265,0.12,0.601,0.209,0.903,0.295
	c0.038,0,0.15,0.058,0.15,0.118c0.039,0.03,0.151,0.117,0.189,0.149c0.372,0.409,0.411,0.82,0.712,1.263
	c1.541,1.438,3.079,2.879,4.579,4.289c2.961,1.145,2.961-1.001,6.34,2.2c1.425,1.321,0.787,1.295,1.577,2.996
	c0.113,0.265,0.336,0.529,0.487,0.854c0.3,0.79,0.639,1.554,0.977,2.317c1.537,1.968,3.639,0.735,5.779,2.761
	c1.236,1.174,0.301,0.821,3.039,1.291c4.241,0.676,2.591,0.294,5.818,2.675c1.238,0.879,1.538,0.38,2.701,1.144
	c1.614,2.202,1.2,4.582-0.149,6.519c-4.166,5.932-2.74,4.962-2.928,9.662c-0.151,2.701-0.938,8.28-3.529,8.955
	c-9.418,2.586-3.939,4.377-6.414,8.93c-0.714,1.294-1.24,1.616-1.691,2.645c-1.874,4.285-0.561,5.725-6.115,4.758
	c0.527,0.909,0.189,0.292,0.716,1.113c1.648,2.498,1.912,4.377-1.465,4.992c-2.814,0.53-1.614,0-1.876,3.054
	c-1.089,0.441-1.576,0-2.29,0.705c0.975,1.763,0.074,0.295,1.727,1.294c-0.301,0.968-0.527,1.909-0.788,2.847
	c-0.637,2.291-0.824,0.177-1.049,2.849c0.975,0.438,1.649,0.35,2.512,1.498c-0.112,0.88-1.013,3.289-1.275,4.669
	c1.387,2.027,2.514,4.199,5.477,4.406c-0.039,1.702,0.375,1.526-1.125,1.876c-1.278,0.295-3.978-0.879-5.105-1.466
	c-1.951-1.029-3.753-2.38-5.065-4.317c-0.75-1.087-0.45-0.559-1.24-1.586c-1.425-1.79-0.86-2.613-1.274-3.818
	c-0.226-0.705-1.389-1.469-0.903-3.761c0.116-0.645,1.165-3.73-0.11-3.201c-1.277,0.5,0.975,0.292-0.789,1.116
	c-0.414-1.116-0.751-2.762-0.976-4.141c-0.45-2.321-1.011-2.408-1.277-3.817c-0.561-3.262,0.864-3.615-0.714-9.048
	c-1.034-3.595-0.618-12.102-1.712-16.471c-0.163-0.613-0.342-1.213-0.651-1.738L166.955,279.397z"/>
<path style="fill:#21D0C3;" d="M378.119,306.519h48.189v3.848h-48.189V306.519z"/>
<path style="fill:#FAD24D;" d="M378.119,318.922h48.189v3.848h-48.189V318.922z"/>
<path style="fill:#FF5B62;" d="M378.119,331.325h48.189v3.849h-48.189V331.325z"/>
<path style="fill:#21D0C3;" d="M373.418,306.519h-4.702v3.848h4.702V306.519z"/>
<path style="fill:#FAD24D;" d="M373.418,318.922h-4.702v3.848h4.702V318.922z"/>
<path style="fill:#FF5B62;" d="M373.418,331.325h-4.702v3.849h4.702V331.325z"/>
<g>
</g>
<g>
</g>
<g>
</g>
<g>
</g>
<g>
</g>
<g>
</g>
<g>
</g>
<g>
</g>
<g>
</g>
<g>
</g>
<g>
</g>
<g>
</g>
<g>
</g>
<g>
</g>
<g>
</g>
</svg>
